<svg width="28" height="28" viewBox="0 0 28 28" fill="none" xmlns="http://www.w3.org/2000/svg">
<path d="M25.2855 12.8325C25.2855 13.9923 24.3453 14.9325 23.1855 14.9325C22.0257 14.9325 21.0855 13.9923 21.0855 12.8325V4.43252C21.0855 3.27272 22.0257 2.33252 23.1855 2.33252C24.3453 2.33252 25.2855 3.27272 25.2855 4.43252V12.8325Z" fill="white"/>
<path d="M19.6855 13.0659V5.46301C19.6855 4.40245 19.0863 3.43292 18.1377 2.95862L18.0679 2.92373C17.2903 2.53493 16.4329 2.33252 15.5635 2.33252H7.98095C6.64624 2.33252 5.49708 3.27461 5.23532 4.58339L3.55533 12.9834C3.2088 14.716 4.53402 16.3325 6.30095 16.3325H11.2855V21.9325C11.2855 23.4789 12.5391 24.7325 14.0855 24.7325C14.8587 24.7325 15.4855 24.1057 15.4855 23.3325V22.3992C15.4855 21.1875 15.8785 20.0085 16.6055 19.0392L18.5655 16.4259C19.2925 15.4565 19.6855 14.2775 19.6855 13.0659Z" fill="white"/>
</svg>
