<svg width="16" height="16" viewBox="0 0 16 16" fill="none" xmlns="http://www.w3.org/2000/svg">
<mask id="mask0_0_2555" style="mask-type:alpha" maskUnits="userSpaceOnUse" x="0" y="0" width="16" height="16">
<rect width="16" height="16" fill="#D9D9D9"/>
</mask>
<g mask="url(#mask0_0_2555)">
<path d="M13.3501 6.24995L12.6501 5.54995L13.0668 5.13328C13.1112 5.08884 13.1335 5.03884 13.1335 4.98328C13.1335 4.92773 13.1112 4.87773 13.0668 4.83328L11.1668 2.93328C11.1224 2.88884 11.0724 2.86662 11.0168 2.86662C10.9612 2.86662 10.9112 2.88884 10.8668 2.93328L10.4501 3.34995L9.73346 2.63328L10.1668 2.18328C10.389 1.96106 10.6668 1.85262 11.0001 1.85795C11.3335 1.86373 11.6112 1.97773 11.8335 2.19995L13.8001 4.16662C14.0224 4.38884 14.1335 4.66373 14.1335 4.99128C14.1335 5.31928 14.0224 5.5944 13.8001 5.81662L13.3501 6.24995ZM5.83346 13.7833C5.61124 14.0055 5.33635 14.1166 5.0088 14.1166C4.6808 14.1166 4.40569 14.0055 4.18346 13.7833L2.23346 11.8499C2.01124 11.6166 1.90013 11.3306 1.90013 10.992C1.90013 10.6528 2.01124 10.3722 2.23346 10.15L2.65013 9.73328L3.3668 10.45L2.95013 10.8499C2.90569 10.8944 2.88346 10.9444 2.88346 11C2.88346 11.0555 2.90569 11.1055 2.95013 11.15L4.85013 13.05C4.89457 13.0944 4.94457 13.1166 5.00013 13.1166C5.05569 13.1166 5.10569 13.0944 5.15013 13.05L5.55013 12.6333L6.2668 13.35L5.83346 13.7833ZM12.3835 8.71662L13.2335 7.86662C13.2779 7.82217 13.3001 7.77217 13.3001 7.71662C13.3001 7.66106 13.2779 7.61106 13.2335 7.56662L8.43346 2.76662C8.38902 2.72217 8.33902 2.69995 8.28346 2.69995C8.22791 2.69995 8.17791 2.72217 8.13346 2.76662L7.28346 3.61662C7.23902 3.66106 7.2168 3.70817 7.2168 3.75795C7.2168 3.80817 7.23902 3.85551 7.28346 3.89995L12.1001 8.71662C12.1446 8.76106 12.1919 8.78328 12.2421 8.78328C12.2919 8.78328 12.339 8.76106 12.3835 8.71662ZM7.8668 13.2333L8.7168 12.3666C8.76124 12.3333 8.78346 12.2888 8.78346 12.2333C8.78346 12.1777 8.76124 12.1277 8.7168 12.0833L3.9168 7.28328C3.87235 7.23884 3.82235 7.21662 3.7668 7.21662C3.71124 7.21662 3.6668 7.23884 3.63346 7.28328L2.7668 8.13328C2.72235 8.17773 2.70013 8.22773 2.70013 8.28328C2.70013 8.33884 2.72235 8.38884 2.7668 8.43328L7.5668 13.2333C7.61124 13.2777 7.66124 13.3 7.7168 13.3C7.77235 13.3 7.82235 13.2777 7.8668 13.2333ZM7.58346 9.53328L9.53346 7.58328L8.4168 6.46662L6.4668 8.41662L7.58346 9.53328ZM8.5668 13.9333C8.34457 14.1666 8.06124 14.2833 7.7168 14.2833C7.37235 14.2833 7.08902 14.1666 6.8668 13.9333L2.0668 9.13328C1.83346 8.91106 1.7168 8.62773 1.7168 8.28328C1.7168 7.93884 1.83346 7.65551 2.0668 7.43328L2.9168 6.56662C3.15013 6.33328 3.43346 6.21662 3.7668 6.21662C4.10013 6.21662 4.38346 6.33328 4.6168 6.56662L5.75013 7.71662L7.7168 5.74995L6.58346 4.61662C6.35013 4.38328 6.23346 4.09706 6.23346 3.75795C6.23346 3.41928 6.35013 3.13328 6.58346 2.89995L7.43346 2.04995C7.6668 1.81662 7.95302 1.69995 8.29213 1.69995C8.6308 1.69995 8.9168 1.81662 9.15013 2.04995L13.9501 6.84995C14.1835 7.08328 14.3001 7.36928 14.3001 7.70795C14.3001 8.04706 14.1835 8.33328 13.9501 8.56662L13.1001 9.41662C12.8668 9.64995 12.5808 9.76662 12.2421 9.76662C11.903 9.76662 11.6168 9.64995 11.3835 9.41662L10.2501 8.28328L8.28346 10.25L9.43346 11.3833C9.6668 11.6166 9.78346 11.9 9.78346 12.2333C9.78346 12.5666 9.6668 12.85 9.43346 13.0833L8.5668 13.9333Z" fill="#ED6530"/>
</g>
</svg>
