<svg width="18" height="18" viewBox="0 0 18 18" fill="none" xmlns="http://www.w3.org/2000/svg">
<mask id="mask0_0_2253" style="mask-type:alpha" maskUnits="userSpaceOnUse" x="0" y="0" width="18" height="18">
<rect width="18" height="18" fill="#D9D9D9"/>
</mask>
<g mask="url(#mask0_0_2253)">
<path d="M8.71875 16.875L7.70921 15.9907C6.17961 14.6643 4.91768 13.5221 3.92344 12.5641C2.92919 11.6062 2.14145 10.7549 1.5602 10.0103C0.978947 9.26637 0.573602 8.58842 0.344161 7.9765C0.11472 7.36516 0 6.74263 0 6.1089C0 4.85617 0.439914 3.80594 1.31974 2.95821C2.19896 2.11107 3.28865 1.6875 4.58882 1.6875C5.38421 1.6875 6.14137 1.86789 6.86028 2.22868C7.57919 2.59005 8.19868 3.10972 8.71875 3.78766C9.23882 3.10972 9.85831 2.59005 10.5772 2.22868C11.2961 1.86789 12.0533 1.6875 12.8487 1.6875C14.1488 1.6875 15.2385 2.11107 16.1178 2.95821C16.9976 3.80594 17.4375 4.85617 17.4375 6.1089C17.4375 6.74263 17.3228 7.36516 17.0933 7.9765C16.8639 8.58842 16.4586 9.26637 15.8773 10.0103C15.2961 10.7549 14.5083 11.6062 13.5141 12.5641C12.5198 13.5221 11.2579 14.6643 9.72829 15.9907L8.71875 16.875ZM8.71875 15.0843C10.1872 13.8169 11.3956 12.7263 12.3439 11.8125C13.2923 10.8987 14.0418 10.1064 14.5924 9.43556C15.1431 8.76527 15.5255 8.17222 15.7396 7.65639C15.9538 7.14056 16.0609 6.62473 16.0609 6.1089C16.0609 5.22462 15.7549 4.48772 15.1431 3.8982C14.5312 3.30868 13.7664 3.01392 12.8487 3.01392C12.1298 3.01392 11.4604 3.21288 10.8406 3.61081C10.2214 4.00873 9.73594 4.56141 9.38413 5.26883H8.05337C7.68627 4.54667 7.19679 3.99016 6.58495 3.59931C5.97311 3.20905 5.30773 3.01392 4.58882 3.01392C3.67105 3.01392 2.90625 3.30868 2.29441 3.8982C1.68257 4.48772 1.37664 5.22462 1.37664 6.1089C1.37664 6.62473 1.48372 7.14056 1.69786 7.65639C1.91201 8.17222 2.29441 8.76527 2.84507 9.43556C3.39572 10.1064 4.14523 10.8949 5.09359 11.801C6.04194 12.7077 7.25033 13.8021 8.71875 15.0843Z" fill="black"/>
</g>
</svg>
