<svg width="17" height="17" viewBox="0 0 17 17" fill="none" xmlns="http://www.w3.org/2000/svg">
<path d="M7.15388 1.12742C7.22405 1.16231 7.28562 1.21232 7.33417 1.27385C7.38272 1.33538 7.41703 1.40689 7.43465 1.48326C7.45364 1.56712 7.97508 3.81108 7.97322 5.31582C7.97197 6.32394 7.50182 7.22217 6.77101 7.80385C6.50545 8.01575 6.37782 8.24693 6.37758 8.44006L6.37695 8.95579C6.37691 8.98055 6.3783 9.0039 6.3811 9.02583C6.41686 9.28905 6.54617 10.2665 6.66695 11.2801C6.78563 12.2746 6.90207 13.3592 6.90152 13.8039C6.90083 14.3668 6.67655 14.9063 6.27804 15.3038C5.87953 15.7014 5.33943 15.9243 4.77655 15.9236C4.21367 15.9229 3.67412 15.6986 3.2766 15.3001C2.87907 14.9016 2.65614 14.3615 2.65684 13.7986C2.65739 13.3529 2.77652 12.2707 2.89767 11.2754C3.02096 10.2622 3.15269 9.285 3.1891 9.02188L3.19343 8.95185L3.19407 8.43612C3.19431 8.24298 3.06726 8.01149 2.80223 7.79893C2.42851 7.50026 2.12692 7.12122 1.91985 6.68996C1.71278 6.2587 1.60557 5.78632 1.60619 5.30793C1.60805 3.8085 2.13079 1.5775 2.15426 1.47778C2.18199 1.35985 2.24886 1.2548 2.34396 1.17976C2.43906 1.10472 2.55678 1.06411 2.67793 1.06457C2.97505 1.06494 3.21564 1.30612 3.21527 1.60325L3.21133 4.78464C3.20706 4.8563 3.21752 4.92807 3.24206 4.99552C3.26661 5.06298 3.30472 5.12469 3.35405 5.17684C3.40337 5.22899 3.46286 5.27048 3.52884 5.29875C3.59483 5.32701 3.6659 5.34145 3.73769 5.34118C3.80947 5.34091 3.88043 5.32592 3.9462 5.29715C4.01196 5.26838 4.07114 5.22644 4.12006 5.17391C4.16898 5.12138 4.20662 5.05939 4.23065 4.99175C4.25468 4.9241 4.26459 4.85226 4.25977 4.78063L4.26372 1.59712C4.26389 1.4564 4.31996 1.32151 4.41959 1.22213C4.51922 1.12275 4.65424 1.06702 4.79496 1.06719C4.93568 1.06737 5.07057 1.12343 5.16995 1.22306C5.26933 1.32269 5.32506 1.45772 5.32489 1.59844L5.32091 4.80954C5.32369 4.94886 5.38171 5.08136 5.48218 5.17791C5.58266 5.27445 5.71738 5.32712 5.8567 5.32434C5.99601 5.32156 6.12852 5.26355 6.22506 5.16307C6.32161 5.06259 6.37428 4.92787 6.3715 4.78856L6.37544 1.60504C6.37581 1.30898 6.61593 1.06945 6.91306 1.06982C6.93641 1.06985 7.0404 1.06997 7.15388 1.12742ZM9.56432 5.84838C9.56589 4.5819 10.0705 3.36792 10.9671 2.47349C11.8638 1.57906 13.079 1.07746 14.3455 1.07903C14.4862 1.0792 14.6211 1.13527 14.7205 1.2349C14.8199 1.33453 14.8756 1.46955 14.8754 1.61027L14.8676 7.94865L14.8875 8.1365C14.9709 8.92859 15.051 9.72104 15.1276 10.5138C15.2564 11.8468 15.3915 13.3411 15.3909 13.8144C15.3902 14.3773 15.1659 14.9168 14.7674 15.3144C14.3689 15.7119 13.8288 15.9348 13.2659 15.9341C12.703 15.9334 12.1635 15.7091 11.766 15.3106C11.3684 14.9121 11.1455 14.372 11.1462 13.8091C11.1468 13.3359 11.2855 11.8419 11.4177 10.5092C11.4854 9.83335 11.5531 9.18611 11.6035 8.70653L11.625 8.50387L10.6222 8.50262C10.3408 8.50228 10.071 8.39014 9.87222 8.19088C9.67346 7.99163 9.56199 7.72158 9.56234 7.44014L9.56432 5.84838Z" fill="black"/>
</svg>
