<svg width="28" height="28" viewBox="0 0 28 28" fill="none" xmlns="http://www.w3.org/2000/svg">
<path d="M3.5 14.2325C3.5 13.0727 4.4402 12.1325 5.6 12.1325C6.7598 12.1325 7.7 13.0727 7.7 14.2325V22.6325C7.7 23.7923 6.7598 24.7325 5.6 24.7325C4.4402 24.7325 3.5 23.7923 3.5 22.6325V14.2325Z" fill="white"/>
<path d="M9.1 13.9992V21.602C9.1 22.6626 9.69921 23.6321 10.6478 24.1064L10.7176 24.1413C11.4952 24.5301 12.3526 24.7325 13.222 24.7325H20.8045C22.1393 24.7325 23.2884 23.7904 23.5502 22.4816L25.2302 14.0816C25.5767 12.349 24.2515 10.7325 22.4845 10.7325H17.5V5.13252C17.5 3.58612 16.2464 2.33252 14.7 2.33252C13.9268 2.33252 13.3 2.95932 13.3 3.73252V4.66585C13.3 5.87753 12.907 7.05651 12.18 8.02585L10.22 10.6392C9.493 11.6085 9.1 12.7875 9.1 13.9992Z" fill="white"/>
</svg>
