<svg width="17" height="17" viewBox="0 0 17 17" fill="none" xmlns="http://www.w3.org/2000/svg">
<path d="M14.8669 8.50774L2.13283 8.49195C1.85139 8.49161 1.58133 8.60307 1.38208 8.80183C1.18282 9.0006 1.07069 9.27037 1.07034 9.55181L1.06771 11.6742C1.06736 11.9556 1.17883 12.2256 1.37759 12.4249C1.57635 12.6242 1.84613 12.7363 2.12757 12.7366L14.8616 12.7524C15.1431 12.7528 15.4131 12.6413 15.6124 12.4425C15.8116 12.2438 15.9238 11.974 15.9241 11.6926L15.9267 9.57022C15.9271 9.28878 15.8156 9.01873 15.6169 8.81948C15.4181 8.62022 15.1483 8.50808 14.8669 8.50774ZM14.8629 11.6913L6.37357 11.6807L6.3762 9.55839L14.8656 9.56891L14.8629 11.6913ZM13.347 4.00117C13.8788 3.05805 13.8409 2.56191 13.7709 2.34958C13.7402 2.24831 13.6792 2.15888 13.5961 2.09336C13.5322 2.06519 13.4744 2.02466 13.4262 1.9741C13.3779 1.92354 13.3401 1.86395 13.315 1.79874C13.2898 1.73354 13.2778 1.66401 13.2796 1.59415C13.2814 1.52428 13.297 1.45546 13.3254 1.39164C13.3539 1.32782 13.3947 1.27024 13.4455 1.22223C13.4963 1.17422 13.5561 1.13672 13.6214 1.11187C13.6867 1.08703 13.7563 1.07533 13.8261 1.07745C13.896 1.07958 13.9647 1.09548 14.0284 1.12425C14.2067 1.2153 14.3649 1.34118 14.4937 1.49445C14.6224 1.64772 14.7191 1.82526 14.7781 2.01656C15.0001 2.68936 14.8299 3.53212 14.2709 4.52229C13.7392 5.46541 13.777 5.96222 13.8471 6.17454C13.8779 6.27558 13.9389 6.36476 14.0218 6.43011C14.0858 6.45828 14.1436 6.49881 14.1918 6.54937C14.2401 6.59993 14.2778 6.65952 14.303 6.72472C14.3281 6.78993 14.3402 6.85946 14.3384 6.92932C14.3366 6.99918 14.321 7.068 14.2925 7.13183C14.2641 7.19565 14.2233 7.25322 14.1725 7.30123C14.1217 7.34924 14.0619 7.38675 13.9966 7.41159C13.9313 7.43644 13.8617 7.44814 13.7918 7.44601C13.722 7.44389 13.6532 7.42799 13.5895 7.39922C13.4112 7.30829 13.2529 7.18245 13.1241 7.02916C12.9953 6.87587 12.8987 6.69827 12.8399 6.5069C12.6198 5.83411 12.79 4.99003 13.347 4.00117ZM10.6941 3.99789C11.2259 3.05476 11.188 2.55862 11.118 2.3463C11.0873 2.24502 11.0263 2.15559 10.9432 2.09007C10.8792 2.0619 10.8215 2.02137 10.7732 1.97081C10.725 1.92025 10.6872 1.86066 10.662 1.79546C10.6369 1.73025 10.6249 1.66072 10.6267 1.59086C10.6285 1.521 10.644 1.45218 10.6725 1.38835C10.701 1.32453 10.7418 1.26696 10.7926 1.21895C10.8434 1.17093 10.9031 1.13343 10.9684 1.10858C11.0338 1.08374 11.1033 1.07204 11.1732 1.07416C11.2431 1.07629 11.3118 1.09219 11.3755 1.12096C11.5538 1.21201 11.712 1.3379 11.8407 1.49116C11.9695 1.64443 12.0662 1.82197 12.1252 2.01328C12.3472 2.68607 12.177 3.52883 11.618 4.519C11.0862 5.46213 11.1241 5.95894 11.1941 6.17126C11.2249 6.27229 11.2859 6.36147 11.3689 6.42682C11.4329 6.45499 11.4906 6.49552 11.5389 6.54608C11.5871 6.59664 11.6249 6.65623 11.6501 6.72143C11.6752 6.78664 11.6872 6.85617 11.6854 6.92603C11.6836 6.99589 11.6681 7.06471 11.6396 7.12854C11.6111 7.19236 11.5703 7.24993 11.5195 7.29794C11.4688 7.34596 11.409 7.38346 11.3437 7.40831C11.2783 7.43315 11.2088 7.44485 11.1389 7.44273C11.0691 7.4406 11.0003 7.4247 10.9366 7.39593C10.7583 7.305 10.6 7.17916 10.4712 7.02587C10.3424 6.87259 10.2458 6.69498 10.1869 6.50361C9.96692 5.83082 10.1371 4.98674 10.6941 3.99789Z" fill="black"/>
</svg>
