<svg width="28" height="28" viewBox="0 0 28 28" fill="none" xmlns="http://www.w3.org/2000/svg">
<path d="M13.8749 21C13.8749 21.2321 13.7827 21.4546 13.6186 21.6187C13.4545 21.7828 13.232 21.875 12.9999 21.875C8.57592 21.875 4.95459 18.3692 4.95459 14C4.95459 9.63083 8.57592 6.125 12.9999 6.125C16.6224 6.125 19.7071 8.47583 20.7058 11.7262L21.4093 10.5362C21.5273 10.3363 21.7199 10.1915 21.9447 10.1336C22.1695 10.0757 22.4081 10.1095 22.608 10.2276C22.8079 10.3456 22.9527 10.5382 23.0106 10.763C23.0684 10.9879 23.0346 11.2264 22.9166 11.4263L21.0149 14.6405C20.8985 14.8377 20.7094 14.9813 20.4882 15.0407C20.267 15.1 20.0314 15.0703 19.8319 14.9578L16.5396 13.1017C16.4395 13.0452 16.3514 12.9696 16.2806 12.8791C16.2097 12.7886 16.1573 12.6851 16.1264 12.5744C16.0955 12.4636 16.0868 12.3479 16.1006 12.2338C16.1144 12.1197 16.1506 12.0095 16.2071 11.9093C16.2635 11.8092 16.3392 11.7212 16.4296 11.6503C16.5201 11.5794 16.6237 11.527 16.7344 11.4961C16.8451 11.4653 16.9608 11.4565 17.0749 11.4703C17.189 11.4842 17.2993 11.5204 17.3994 11.5768L19.1168 12.5452C18.4471 9.87583 15.9773 7.875 13.0011 7.875C9.50342 7.875 6.70459 10.6365 6.70459 14C6.70459 17.3635 9.50342 20.125 12.9999 20.125C13.232 20.125 13.4545 20.2172 13.6186 20.3813C13.7827 20.5454 13.8749 20.7679 13.8749 21Z" fill="black"/>
</svg>
