<svg width="17" height="17" viewBox="0 0 17 17" fill="none" xmlns="http://www.w3.org/2000/svg">
<path d="M8.49663 11.3296C7.74612 11.3287 7.02672 11.0297 6.49669 10.4983C5.96666 9.96699 5.66942 9.24685 5.67035 8.49635C5.67128 7.74584 5.97031 7.02644 6.50165 6.49641C7.033 5.96638 7.75314 5.66913 8.50364 5.67006C9.25415 5.67099 9.97355 5.97002 10.5036 6.50137C11.0336 7.03272 11.3309 7.75285 11.3299 8.50336C11.329 9.25387 11.03 9.97327 10.4986 10.5033C9.96727 11.0333 9.24714 11.3306 8.49663 11.3296ZM8.49663 11.3296L8.49224 14.8669M10.6251 6.38014L14.8751 2.14072M14.8751 2.14072L14.8715 4.97051M14.8751 2.14072L12.0453 2.13721M6.38042 6.37488L2.141 2.12494M2.141 2.12494L2.13749 4.95473M2.141 2.12494L4.97079 2.12844M3.90479 6.01809L6.02977 3.89838M6.72538 13.4498L10.2626 13.4542" stroke="black" stroke-width="1.33333" stroke-linecap="round" stroke-linejoin="round"/>
</svg>
