<svg width="96" height="75" viewBox="0 0 96 75" fill="none" xmlns="http://www.w3.org/2000/svg">
<path d="M50.6661 56.0926C51.3853 56.5746 51.9916 57.3041 52.7709 57.6021C55.6316 58.695 58.4806 60.2314 61.4482 60.5554C69.7804 61.4651 76.6212 57.4881 82.3564 52.1443C86.3551 48.4178 89.434 43.6402 92.6027 39.1085C95.2469 35.3272 96.3862 30.9615 95.8849 26.6145C95.1036 14.1857 87.2694 3.60075 77.6394 1.10337C67.0126 -1.65206 57.1082 0.773749 48.6165 8.15221C44.5253 11.7077 42.7733 16.2967 42.4004 21.4452C42.138 25.0578 42.2933 28.7171 42.4911 32.343C42.9009 39.8563 42.9641 39.8539 36.0068 37.6612C35.6769 37.5574 35.3609 37.4067 35.029 37.3163C33.3977 36.8712 32.306 37.3792 31.9983 39.1266C31.7884 40.3177 31.7929 41.5711 31.4106 42.6984C31.177 43.3887 30.3543 44.4301 29.8624 44.3949C25.4312 44.0777 23.5543 50.2746 18.6428 48.7518C18.2854 48.6408 17.0701 49.818 17.0151 50.4627C16.7015 54.0748 14.9888 53.055 12.8437 52.0819C10.0134 50.798 9.09457 51.4792 8.99151 54.5193C8.9621 55.3823 9.01633 56.2606 9.13966 57.1153C9.47401 59.4266 8.80465 60.864 6.5196 62.0663C4.45587 63.1532 2.92777 65.2462 1.1339 66.8639C-0.507612 68.3446 -0.175809 69.8117 0.921595 71.4574C3.0157 74.599 4.51553 75.0629 8.3995 74.1112C12.3558 73.1421 15.6239 71.0239 18.8716 68.7106C21.3964 66.912 24.1175 65.3818 26.8008 63.8159C31.1215 61.2949 35.6235 59.0546 39.7929 56.3084C45.3711 52.6368 45.2693 52.474 50.6661 56.0926ZM45.1758 49.6641C42.2889 51.2321 39.649 53.2478 36.8613 55.0038C33.3562 57.2116 29.807 59.3498 26.2766 61.5177C23.0506 63.4975 19.6686 65.267 16.6399 67.5126C13.4291 69.8925 9.66564 70.3858 6.03211 71.3539C5.43583 71.5133 4.29902 70.8828 3.93001 70.2941C3.60381 69.7723 3.70587 68.5108 4.13033 68.0782C5.56237 66.6186 7.02714 64.7598 8.83689 64.1918C12.4394 63.0601 12.9153 61.0714 11.8564 57.9317C11.6077 57.1943 11.8801 56.2814 11.9236 55.185C13.2024 55.5697 14.1575 55.9297 15.1438 56.1391C17.249 56.5847 19.0351 56.3421 19.3195 53.6868C19.5427 51.6082 20.1192 50.4046 22.6342 51.3827C24.4772 52.0995 26.1624 51.2991 26.8631 49.4057C27.7174 47.0999 29.2497 47.2315 31.0001 47.9548C33.2416 48.8809 33.7325 47.5501 33.9183 45.8007C33.9915 45.1149 33.8639 44.406 33.951 43.7231C34.3657 40.5003 34.5504 40.3905 37.7795 41.1274C38.4528 41.2806 39.1352 41.3929 39.8097 41.5375C44.8353 42.6177 45.4776 41.7856 45.0243 36.7477C44.5758 31.7582 44.5476 26.7011 44.7354 21.6897C45.0445 13.4196 50.2001 8.39948 57.1247 5.10788C62.3627 2.61849 68.076 2.1296 73.8712 2.66958C78.0651 3.06077 81.6092 4.84866 84.2781 7.93933C89.5537 14.0491 93.7609 20.848 93.2868 29.2787C93.1206 32.2431 91.8553 35.456 90.1929 37.9592C87.2371 42.4115 84.1564 47.0838 80.1144 50.443C73.7068 55.7676 66.4738 60.5515 57.4527 56.5115C54.7405 55.296 51.922 53.3582 50.2818 50.9747C48.5971 48.5252 46.9928 48.6764 45.1758 49.6641Z" fill="#FDF0EA"/>
</svg>
