<svg width="41" height="73" viewBox="0 0 41 73" fill="none" xmlns="http://www.w3.org/2000/svg">
<path fill-rule="evenodd" clip-rule="evenodd" d="M0.17136 21.3825C0.806536 21.8136 1.48472 22.2727 2.14591 22.7208C1.85983 25.2796 1.16064 27.7712 2.56303 30.1299C1.57476 32.2985 1.99586 34.5452 2.1049 36.7628C2.14191 37.49 2.62904 37.9561 3.37725 38.0271C4.02243 38.0891 4.67461 38.0841 5.28278 38.1081C6.03399 38.9433 6.31806 39.8756 6.61014 40.8849C7.06427 42.4483 7.15429 44.2138 8.57369 45.4071C8.86677 45.6532 8.96981 46.2354 8.99582 46.6715C9.08284 48.258 9.09383 49.8484 9.14484 51.4368C9.19886 53.0163 9.07883 54.6187 9.85204 56.1001C10.0171 56.4132 10.0201 56.8253 10.0401 57.1954C10.2482 60.9205 10.4382 64.6445 10.6483 68.3685C10.7043 69.3828 10.5022 70.4321 11.0844 71.5184C11.4235 71.6274 11.8466 71.8215 12.2887 71.8955C14.5694 72.2766 16.846 72.7207 19.1426 72.9518C20.51 73.0888 21.8764 72.9538 23.2188 72.2956C24.6101 71.6135 26.1796 71.2943 27.773 70.7832C28.0211 68.1025 29.2724 65.5997 28.7563 62.845C28.7053 62.5739 28.6753 62.2578 28.7653 62.0098C29.6285 59.5991 29.3295 57.0193 29.8646 54.5587C30.0416 53.7454 30.0406 52.8932 30.1117 52.058C30.1587 51.4998 30.0927 50.9167 30.2407 50.3905C30.6718 48.8491 30.8989 47.3027 30.8799 45.6952C30.8639 44.4419 31.284 43.4276 32.4993 42.6734C34.1568 41.6441 34.2318 39.6596 34.5759 37.9921C34.887 36.4837 34.4409 34.8772 35.1961 33.3468C35.5322 32.6666 35.3071 31.7093 35.3371 30.8611C36.9176 30.8911 38.1999 30.9181 39.3702 30.9411C40.6966 29.4567 41.1197 27.9133 40.9647 26.1458C40.8496 24.8444 40.9017 23.5291 40.8196 22.2227C40.7786 21.5805 40.7686 20.8413 40.4485 20.3342C39.7363 19.2139 39.6783 18.1356 39.9504 16.8722C40.1615 15.886 40.0524 14.8267 40.0494 13.8014C40.0424 11.7888 39.1792 10.2444 37.3437 9.15409C37.4077 7.85473 36.9406 6.66342 36.2254 5.54311C35.4001 4.25275 34.4909 3.15545 32.7904 2.9824C31.8762 2.88737 30.9069 2.57424 30.4108 1.713C29.9176 0.857765 29.2194 0.587736 28.3302 0.572732C27.2909 0.555727 26.2846 0.606708 25.4784 1.43894C25.0303 1.90107 24.4891 2.27616 23.972 2.66627C23.6819 2.88633 23.3538 3.05538 23.0697 3.23143C22.0284 2.47022 21.0962 1.70399 20.0839 1.06481C17.4862 -0.573643 14.2803 -0.339537 12.1377 1.89408C10.9854 3.09642 9.714 3.95064 8.19858 4.38476C6.18102 4.96493 5.7119 6.76141 4.89267 8.26682C4.69762 8.62692 4.95369 9.38517 5.22676 9.82029C6.04099 11.1197 5.55685 12.1599 4.67461 13.0952C4.17047 13.6323 3.5213 14.0394 2.91213 14.4715C0.545469 16.151 -0.424806 18.3836 0.17136 21.3825ZM37.3587 15.8279C36.3724 15.1758 34.2818 13.3843 34.1118 12.8381C33.9577 12.344 34.0538 11.7718 34.0418 11.2857C34.7359 11.5177 35.2991 11.8728 35.8483 11.8538C36.8255 11.8208 37.2357 12.394 37.4257 13.1222C37.6538 13.9934 37.7848 14.9197 37.3587 15.8279ZM30.2437 14.4996C30.5098 14.5786 30.7909 14.6666 31.0609 14.6546C33.3636 14.5556 34.3098 15.981 34.971 18.0195C32.8804 18.2066 30.9679 18.4526 29.3095 18.1056C28.7133 17.4444 28.3212 17.0073 27.87 16.5051C27.3739 17.1763 27.0068 17.6735 26.6427 18.1646C25.8455 17.6414 25.4614 17.0823 25.8565 16.2181C26.3626 16.09 26.8698 15.964 27.594 15.78C27.2909 15.3618 27.1498 14.9577 26.8918 14.8567C26.3836 14.6586 25.8135 14.5796 25.2623 14.5446C24.3501 14.4866 23.8429 14.8737 23.6919 15.7619C23.5408 16.6492 23.4768 17.5514 23.3828 18.3667C21.9804 18.7608 21.0422 18.2816 20.2459 17.3734C19.5577 16.5881 19.5537 15.8709 20.3029 15.1747C20.57 14.9267 20.9231 14.7737 21.2172 14.5486C22.1325 13.8484 22.2945 13.4283 21.8414 12.432C21.4583 11.5917 20.8571 10.8256 21.4703 9.60722C23.977 9.26513 25.3423 10.4605 25.9395 12.8211C26.3016 12.5961 26.5797 12.508 26.7267 12.3179C27.586 11.2046 28.9303 10.9796 30.1137 10.4955C30.5728 10.3064 31.261 10.2754 31.281 10.4645C30.5608 11.5187 30.0697 12.2009 29.6205 12.9081C29.2644 13.4683 29.6065 14.3085 30.2437 14.4996ZM26.0555 25.8627C25.4754 26.761 24.9442 27.5852 24.4041 28.4215C23.2528 28.5445 22.1645 28.7255 21.1002 28.3714C20.7151 27.09 21.3843 26.3039 22.2965 25.7707C23.4648 25.0905 24.7132 24.9605 26.0555 25.8627ZM24.5651 23.6761C24.169 23.7522 23.9059 23.8312 23.6379 23.8482C23.0917 23.8822 22.5456 23.8832 21.7013 23.9052C21.5583 22.6829 21.3192 21.7276 21.8904 20.7223C22.3655 20.6743 22.8056 20.6313 23.3618 20.5763C23.7609 21.2044 24.211 21.7806 24.5061 22.4278C24.6632 22.7759 24.5531 23.246 24.5651 23.6761ZM29.0424 19.2309C29.4975 20.6002 30.2417 21.7346 29.5535 23.297C27.563 23.433 27.563 23.4331 26.4667 20.9664C27.2999 20.4052 28.1441 19.836 29.0424 19.2309ZM11.5895 46.2174C17.1061 46.0553 22.4765 45.9143 27.9631 45.7623C28.4382 47.0336 28.2832 47.9379 28.0511 48.8571C27.869 49.5763 27.746 50.3125 27.649 51.0477C27.4769 52.3371 27.3609 53.6344 27.1939 54.9248C26.8818 57.3215 26.3626 59.7101 26.2836 62.1128C26.2186 64.0833 26.0535 65.9779 25.5314 67.8844C25.2703 68.8387 24.9142 69.3668 23.942 69.5059C23.4938 69.5709 23.0297 69.7149 22.6306 69.9299C21.2172 70.6871 19.7578 70.6052 18.2774 70.2381C17.7372 70.103 17.1791 69.7009 16.6849 69.7779C15.4126 69.979 14.7004 69.0577 13.7461 68.6036C12.8219 68.1635 12.6218 67.4613 12.5928 66.571C12.5108 64.1434 12.4368 61.7167 12.3027 59.291C12.2267 57.8986 12.0977 56.5032 11.8896 55.1249C11.4545 52.2621 11.4965 49.3992 11.5895 46.2174ZM9.58297 41.336C10.1511 41.262 10.7883 41.0529 11.3895 41.127C12.9379 41.318 14.3333 41.136 15.4506 39.7856C17.3811 41.5211 19.2827 41.6021 21.0511 39.9056C21.2622 40.0176 21.3542 40.0496 21.4203 40.1067C21.5583 40.2287 21.7103 40.3497 21.8094 40.5018C23.1978 42.6504 25.2773 42.7634 27.4789 42.3633C28.1551 42.2393 28.7823 41.8401 29.4305 41.5681C28.7983 42.6344 28.0711 43.5206 26.7727 43.5736C23.1597 43.7197 19.5417 43.7877 15.9367 44.0328C13.9282 44.1678 12.1397 43.3306 10.2271 43.0735C9.47694 42.9735 9.38591 42.1872 9.58297 41.336ZM2.22092 19.648C2.52401 17.8035 3.30222 16.5542 4.74262 15.6219C5.58285 15.0797 6.34607 14.3195 6.93123 13.5073C8.06255 11.9389 7.98252 10.1864 7.27633 8.59992C8.04754 6.10323 10.1251 5.97821 11.9896 5.62711C12.2077 5.34504 12.3968 5.13895 12.5398 4.90688C14.5854 1.59496 18.1053 1.28789 20.582 4.2057C21.3462 5.10595 22.1125 6.00719 22.8917 6.89443C23.2958 7.35656 24.015 7.21755 24.232 6.60138C24.4431 6.00022 24.5541 5.36502 24.6822 4.85187C25.7345 4.16668 26.6497 3.56852 27.5109 3.00737C28.2322 3.53151 28.7633 4.07265 29.4095 4.35473C30.3367 4.75884 31.342 4.99093 32.3223 5.26801C33.6897 5.65711 35.001 7.32759 34.934 8.75799C34.92 9.05007 34.5409 9.32616 34.2558 9.70826C31.8141 6.80846 29.3895 8.15882 26.9478 9.62023C24.7172 8.10381 22.3995 7.0785 19.6268 8.1728C18.9506 9.73123 19.4487 11.3227 19.3047 12.9412C18.4264 11.7208 17.6212 10.5365 16.738 9.41515C16.4749 9.08306 15.9967 8.74097 15.6016 8.72197C14.3933 8.66095 13.173 8.70097 11.9686 8.81C11.3965 8.86302 10.9614 9.2841 10.8723 9.92127C10.6743 11.3597 10.7803 12.659 11.9666 13.7633C12.9309 14.6596 13.8182 15.5749 15.1285 15.987C15.8317 16.207 16.4659 16.6432 17.1281 16.9903C17.7132 17.2943 17.8703 17.7515 17.5622 18.4286C16.72 18.6537 15.8327 18.8888 14.9805 19.1169C14.2983 18.3977 13.6661 17.7315 12.9689 16.9993C11.6856 17.2183 10.3732 16.6892 9.19187 17.6695C7.98553 18.6687 8.56669 20.1281 8.15157 21.2535C6.47711 22.5608 5.7499 23.4881 5.3918 24.7444C4.90367 26.4559 5.40581 27.6012 6.99125 28.4514C8.15657 29.0766 9.3339 29.5958 10.7193 29.3737C11.1614 29.3037 11.6295 29.4047 12.1007 29.4277C12.9519 30.7051 13.7601 31.9184 14.6034 33.1848C16.0298 33.1467 17.4202 33.1097 18.7655 33.0747C18.9336 32.8837 19.1436 32.7546 19.1596 32.6036C19.3127 31.2042 20.1449 30.7211 21.4653 30.7531C22.4905 30.7781 23.5208 30.659 24.5471 30.685C25.7845 30.714 26.6087 30.0959 27.4449 29.2607C28.4922 28.2174 28.2782 26.885 28.4222 25.7667C29.3965 25.0745 30.6838 25.6396 31.411 24.4173C31.382 23.283 31.347 21.9957 31.309 20.5533C33.3956 20.3822 35.4992 20.2091 37.7148 20.0281C38.498 20.4812 38.8871 21.2644 38.9031 22.2777C38.9271 23.8652 38.9861 25.4536 39.0011 27.0421C39.0041 27.4052 38.9281 27.7842 38.8131 28.1313C38.549 28.9406 37.8138 29.3077 37.0506 28.9966C36.0333 28.5825 35.037 28.1203 34.0708 27.6942C32.3973 29.1686 32.2853 31.0412 32.1742 32.9387C31.5881 33.3148 31.0699 33.7179 30.4908 33.992C30.0827 34.184 29.5905 34.1981 29.1364 34.2981C27.2999 34.7002 27.1158 35.1143 27.775 37.0378C27.9741 37.617 28.0001 38.2582 28.1031 38.8603C27.4879 39.2564 27.0408 39.6015 26.5467 39.8476C25.5044 40.3648 24.7042 40.2597 24.109 39.3124C23.3238 38.0611 22.5546 36.9628 20.8351 37.2979C20.7951 37.3059 20.7411 37.1329 20.666 37.0918C19.4297 36.4127 19.4387 36.4216 18.6955 37.4859C18.5064 37.757 18.2274 37.9651 17.9653 38.2281C17.1561 37.64 16.5069 37.1129 15.8017 36.6747C15.2595 36.3386 14.4643 36.5637 14.0802 37.0928C13.9212 37.3149 13.8812 37.626 13.7141 37.84C13.114 38.6042 12.3668 38.9333 11.8026 38.6533C11.0124 38.2621 11.6235 37.4519 11.4225 37.0668C10.5302 36.6697 9.78202 36.3286 9.02681 36.0065C8.70072 35.8665 8.2566 35.5714 8.03754 35.6845C6.78219 36.3236 5.7489 35.5334 4.55357 35.4614C4.39053 34.188 4.14947 33.1027 4.65561 32.0144C5.41782 30.383 5.31679 28.8615 4.46656 27.2151C3.8874 26.0968 3.68134 24.7234 4.49457 23.482C4.72863 23.1229 4.90767 22.7269 5.28478 22.0297C4.20748 21.1884 3.18519 20.3952 2.22092 19.648ZM10.2522 24.2163C10.2312 25.1175 10.3472 26.0228 10.4032 26.927C9.35791 27.0131 8.80976 26.911 8.11557 26.5049C7.46439 26.1208 7.21131 25.5516 7.5244 24.8604C7.74846 24.3673 8.05655 23.6471 8.45866 23.5471C10.5652 23.0199 10.7323 21.3535 10.9754 19.681C10.9854 19.613 11.0934 19.556 11.2744 19.3769C12.1937 19.4899 12.8269 19.847 13.0359 21.0104C13.228 22.0796 14.3763 22.5328 15.0935 21.7776C16.3509 20.4522 17.7262 20.7653 19.2847 20.8944C19.3027 21.5595 19.3157 22.0707 19.3257 22.4628C19.1226 22.6458 19.0636 22.7338 18.9836 22.7629C18.8095 22.8229 18.6245 22.8589 18.4414 22.8929C17.7412 23.0239 16.834 22.7599 16.5039 23.6601C16.1778 24.5444 16.937 24.9695 17.4592 25.4937C17.9023 25.9388 18.2654 26.4669 18.6665 26.962C18.3314 27.5672 18.0013 28.0283 17.8152 28.5405C17.6122 29.1046 17.5422 29.7188 17.4251 30.259C17.0991 30.313 16.917 30.364 16.734 30.368C16.0888 30.386 15.4136 30.504 15.0215 29.7618C14.6664 29.0896 14.7414 28.5535 15.3406 28.0393C15.9047 27.5562 15.8707 26.862 15.7207 26.2148C15.5136 25.3165 15.2385 24.4343 14.9985 23.5701C13.7651 22.9949 12.5368 23.127 11.3405 23.139C10.7333 23.144 10.2662 23.5951 10.2522 24.2163ZM13.35 24.9195C13.4931 24.9095 13.6421 25.0365 13.7891 25.1035C13.6561 25.1916 13.5281 25.3376 13.389 25.3466C13.248 25.3566 13.0979 25.2295 12.9509 25.1615C13.0849 25.0745 13.213 24.9275 13.35 24.9195ZM16.4739 14.0174C14.6384 13.8994 13.6841 12.7971 13.151 10.9056C14.2933 10.6025 15.0805 10.7455 15.7797 11.5827C16.3959 12.321 17.043 12.9682 16.4739 14.0174Z" fill="#FDF0EA"/>
</svg>
