<svg width="85" height="81" viewBox="0 0 85 81" fill="none" xmlns="http://www.w3.org/2000/svg">
<path d="M79.4479 0.0171158C79.0512 -0.0163017 78.6481 -0.00194934 78.2559 0.0710609C77.8966 0.137729 77.8257 0.122594 77.4921 0.0496623C76.9986 -0.0573995 76.553 0.346771 76.1495 0.563449C75.92 0.687402 75.7077 0.815776 75.5018 0.977192C74.0794 2.09107 72.8047 3.41264 71.5088 4.66704C69.9381 6.18739 68.3475 7.68005 66.6892 9.10581C63.4406 11.8977 59.9421 14.3961 56.3046 16.6551C53.3195 18.5081 50.2308 20.1828 47.088 21.7538C46.5652 21.2274 45.7522 21.0707 45.0114 21.3019C44.2012 21.5546 43.6485 22.2378 43.3754 23.0174C42.9051 22.7146 42.2822 22.6497 41.7191 22.8409C41.0114 23.0808 40.5534 23.6914 40.3089 24.3797C39.8636 24.0338 39.2377 23.8955 38.6763 24.0576C37.8599 24.2924 37.4356 25.0312 37.2656 25.8266C36.737 25.4131 36.0272 25.228 35.3675 25.387C34.6452 25.5599 34.0717 26.1087 33.8095 26.7789C33.3641 26.4773 32.7675 26.3709 32.2421 26.4877C31.5871 26.633 31.131 27.1059 30.8501 27.6807C30.4951 27.3603 29.9937 27.1886 29.4698 27.2891C28.35 27.5036 27.8032 28.4864 27.5092 29.5042C26.9765 29.1166 26.2454 29.0109 25.6013 29.2729C24.8257 29.5888 24.4353 30.2878 24.311 31.0507C22.5162 31.2491 20.6776 31.2286 18.9001 30.9201C17.9447 30.7538 17.0121 30.5019 16.1079 30.1486C15.2555 29.8151 14.441 29.3364 13.5319 29.1662C12.7051 29.0113 11.7689 29.1686 11.1481 29.7662C10.4904 30.3996 10.2369 31.4142 10.092 32.2888C9.77203 34.2178 10.6428 35.753 12.2145 36.835C13.173 37.4951 14.2587 37.9455 15.3228 38.4023C16.3147 38.8273 17.3185 39.2481 18.3355 39.6186C18.2905 40.6566 18.292 41.6994 18.2083 42.7331C18.1257 43.7532 17.9842 44.7692 17.7843 45.7731C17.5899 46.7512 17.39 47.798 16.958 48.7031C16.044 50.6197 13.7502 50.7417 11.889 50.6703C9.80794 50.5904 7.73132 50.4288 5.64805 50.3658C4.5676 50.333 3.48547 50.3129 2.40465 50.283C1.73058 50.2649 0.923304 50.3021 0.398732 50.7894C-0.989794 52.0794 1.62359 54.0886 2.49588 54.8159C4.11835 56.1671 5.77116 57.4029 7.02433 59.1277C9.21749 62.1465 10.6442 66.0739 14.1097 67.9346C14.5402 68.1656 14.9933 68.3288 15.4568 68.4576C14.7699 69.4289 14.9416 70.7518 15.0049 71.8736C15.0857 73.3002 15.2399 74.7437 15.5169 76.1464C15.7595 77.3721 16.1532 78.6222 17.0281 79.5508C18.6216 81.2436 21.2486 81.1808 23.3476 80.7218C25.9945 80.1439 28.4318 78.9261 30.7666 77.5859C33.3305 76.1146 35.8059 74.5129 38.172 72.7385C47.6739 65.6111 55.2842 56.273 62.3199 46.7927C62.4994 46.5505 62.6712 46.3016 62.8461 46.0567C65.6842 42.7647 68.4518 39.4105 71.1124 35.9905C73.5589 32.8467 75.8971 29.6142 78.0115 26.236C79.8862 23.2408 81.6589 20.1419 82.9238 16.8332C84.1259 13.6914 84.9312 10.2623 84.7179 6.87944C84.5288 3.84162 82.8788 0.303591 79.4479 0.0171158ZM76.7646 11.4645C76.3448 12.3362 75.8904 13.194 75.4156 14.0334C72.5566 19.081 69.0636 23.7125 65.3732 28.1769C62.3159 31.8753 59.1461 35.5007 55.8554 39.0129C56.416 37.9904 56.8742 36.9265 57.2609 35.8251C58.1041 33.4186 58.6533 30.9166 59.3916 28.4768C61.0304 23.0654 63.812 18.0354 68.4909 14.6827C70.9726 12.9044 73.7702 11.8918 76.7646 11.4645ZM56.7535 27.1973C57.641 22.9997 59.4183 19.1069 62.5768 16.1264C65.9374 12.9546 70.4761 11.7065 74.2494 9.16807C74.4237 9.05107 74.6189 9.2994 74.4493 9.42918C72.5306 10.904 70.4052 12.0675 68.2955 13.2416C66.3358 14.3312 64.4434 15.6029 62.9204 17.2647C61.4593 18.859 60.2355 20.6364 59.3213 22.5973C57.6003 26.2866 56.7988 30.4184 56.127 34.408C56.0794 34.6906 55.6394 34.6335 55.6843 34.3492C56.0613 31.9701 56.2542 29.5551 56.7535 27.1973ZM49.1119 25.0512C49.1058 26.9318 47.3834 29.6148 45.4459 28.6322C45.3522 29.5686 44.9093 30.4859 44.0681 30.9555C43.1243 31.4822 42.2169 31.1049 41.5684 30.4044C41.2699 31.1392 40.7894 31.8376 40.0656 32.1455C39.6858 32.3074 39.2679 32.3155 38.8959 32.128C38.5655 31.9618 38.4071 31.7005 38.2568 31.4267C37.9019 32.2791 37.2095 33.1146 36.5492 33.606C35.6184 34.2983 34.8853 33.799 34.3781 33.0308C34.0637 33.8685 33.6281 34.6816 32.8399 35.1511C31.9835 35.6601 31.4129 35.1917 31.08 34.511C30.8447 35.0976 30.5061 35.6333 29.9695 36.0175C29.2043 36.5665 28.3991 36.481 27.7288 35.9121C27.4991 36.6181 27.0876 37.2878 26.5164 37.7439C26.0636 38.1056 25.5226 38.3505 24.9343 38.3009C24.4372 38.2584 23.9897 37.9723 23.6947 37.577C23.3519 37.1159 23.172 36.5114 23.0981 35.9481C22.9935 35.1533 23.0954 34.3381 23.2833 33.5643C23.3194 33.4167 23.4359 33.2985 23.6002 33.3218C23.7411 33.3427 23.8761 33.4893 23.8427 33.6386C23.6682 34.4135 23.5794 35.2212 23.7091 36.0107C23.7496 36.2549 23.8105 36.5011 23.9188 36.725C23.9603 36.8106 24.0142 36.8943 24.0833 36.9879C24.113 37.0283 24.1443 37.0675 24.1771 37.1055C24.1864 37.116 24.233 37.1637 24.2448 37.1774C24.316 37.2441 24.3932 37.3037 24.4755 37.3568C24.4781 37.3586 24.4775 37.3578 24.4802 37.3596C24.4822 37.3605 24.4795 37.3588 24.4836 37.3608C24.5051 37.3708 24.5265 37.3822 24.5495 37.3924C24.5893 37.4098 24.6305 37.4225 24.6704 37.4399C24.6793 37.4432 24.6799 37.4441 24.6845 37.4468C24.7074 37.452 24.7303 37.4572 24.754 37.4618C24.7966 37.4696 24.839 37.4738 24.8827 37.4782C24.899 37.4796 24.916 37.4804 24.9325 37.4805C24.9375 37.4804 24.9297 37.4801 24.9383 37.4798C24.9882 37.4757 25.0373 37.4722 25.0869 37.4645C25.1227 37.4586 25.2677 37.417 25.1594 37.452C25.2109 37.4352 25.2617 37.4191 25.3121 37.4008C25.4104 37.3659 25.5022 37.3209 25.5974 37.2771C25.6065 37.2726 25.6042 37.2744 25.6102 37.2723C25.6149 37.2687 25.6119 37.2697 25.6205 37.2644C25.6416 37.2508 25.6641 37.2373 25.6853 37.2237C25.7409 37.1875 25.7946 37.1488 25.8472 37.1086C25.9498 37.03 26.0442 36.9439 26.1382 36.8555C26.3472 36.6602 26.5434 36.4432 26.7646 36.1829C27.0273 35.8746 27.275 35.55 27.5382 35.2424C27.6084 35.1609 27.7273 35.1646 27.8037 35.2198C27.8895 35.2033 27.9791 35.218 28.0568 35.2849C29.2023 36.2802 30.4368 34.4492 30.807 33.4715C30.895 33.24 31.2628 33.2324 31.346 33.473C31.4471 33.7668 31.6724 34.5147 32.0475 34.581C32.3032 34.6264 32.5647 34.3379 32.7169 34.1722C33.2337 33.6088 33.7695 32.8591 34.016 32.1288C34.1091 31.853 34.5057 31.8878 34.6093 32.1304C34.7796 32.5278 35.0819 33.2988 35.6229 33.3013C35.993 33.3033 36.2848 32.9159 36.4749 32.648C36.9866 31.9294 37.2766 30.9575 37.9376 30.3581C38.1189 30.1941 38.4748 30.3358 38.4802 30.5854C38.4977 31.3686 39.3905 31.8126 39.9861 31.3769C40.5583 30.9567 40.8871 30.1988 41.0474 29.5307C41.1166 29.2417 41.5481 29.0237 41.7436 29.3451C42.1803 30.0624 42.9111 30.7616 43.7617 30.2104C44.484 29.7421 44.7793 28.8003 44.7129 27.9813C44.6894 27.69 45.0586 27.4037 45.3085 27.6378C46.9937 29.2162 48.2196 26.4272 48.4835 25.0499C48.5466 24.7151 49.1132 24.6752 49.1119 25.0512ZM44.8788 22.1596C45.3021 21.8583 45.8749 21.8743 46.2873 22.1508C45.5895 22.4943 44.8941 22.8409 44.1912 23.1744C44.3196 22.7782 44.521 22.4145 44.8788 22.1596ZM43.9654 24.4266C44.8138 24.0423 45.6577 23.6489 46.4987 23.2501C46.939 24.2097 47.3551 25.4692 46.437 26.206C45.9287 26.614 45.2685 26.3997 44.8273 25.9964C44.3747 25.5815 44.1431 25.0051 43.9654 24.4266ZM41.6616 23.7736C42.037 23.4674 42.6154 23.4413 42.9692 23.7386C42.3542 24.0237 41.7395 24.3124 41.1204 24.5905C41.2365 24.277 41.401 23.9857 41.6616 23.7736ZM41.0439 25.7209C41.7199 25.4282 42.3927 25.1279 43.0654 24.8276C43.3676 25.9547 44.0954 27.3443 43.2504 28.241C42.258 29.2947 41.3736 26.9418 41.0439 25.7209ZM38.6979 24.7127C39.1668 24.499 39.7499 24.6851 39.9876 25.1029C39.3008 25.4063 38.6103 25.7 37.9209 25.9967C37.9619 25.4615 38.1765 24.9502 38.6979 24.7127ZM38.0581 26.9875C38.7538 26.6973 39.4475 26.4012 40.1405 26.1043C40.2538 27.0704 40.2061 28.0538 39.9778 29.0024C39.8918 29.3585 39.6937 30.0101 39.2518 29.6868C39.0361 29.5287 38.8581 29.0817 38.7502 28.8714C38.442 28.2741 38.2186 27.6409 38.0581 26.9875ZM35.5313 26.0216C36.0452 25.9162 36.4872 26.1308 36.8108 26.4777C36.0226 26.812 35.2318 27.1396 34.4412 27.4657C34.464 26.8044 34.8389 26.1627 35.5313 26.0216ZM37.1564 27.3582C37.3484 28.5607 37.2726 29.8257 36.8096 30.9576C36.6116 31.4412 36.2557 31.8272 35.8041 31.3675C35.5925 31.152 35.4349 30.8686 35.2864 30.6086C34.9055 29.9444 34.6069 29.1947 34.5334 28.429C35.4092 28.0756 36.2833 27.7184 37.1564 27.3582ZM31.3298 28.639C31.4042 28.0253 31.693 27.3751 32.2954 27.1526C32.8759 26.938 33.4406 27.2469 33.6428 27.7965C33.3728 27.9072 33.1045 28.0218 32.8347 28.1311C32.3388 28.3326 31.8378 28.5242 31.3398 28.7197C31.3386 28.6916 31.3319 28.6665 31.3298 28.639ZM32.274 29.3365C32.7519 29.1462 33.2281 28.9535 33.7054 28.7624C33.6989 30.0007 33.6025 31.318 32.9067 32.3833C32.7755 32.5847 32.5694 32.8548 32.3226 32.9149C31.8797 33.0241 31.7541 32.3931 31.6609 32.0668C31.5147 31.5575 31.4286 31.0327 31.3759 30.5037C31.3732 30.228 31.3616 29.9604 31.341 29.701C31.6518 29.5792 31.963 29.4597 32.274 29.3365ZM28.9504 28.415C29.2207 28.1513 29.6144 27.9283 30.0024 28.0328C30.2675 28.1038 30.5025 28.3317 30.5563 28.5998C30.5357 28.728 30.5215 28.8562 30.5155 28.982C30.5149 29.0027 30.5225 29.0208 30.5235 29.0403C29.768 29.3332 29.0122 29.6239 28.254 29.91C28.3756 29.3612 28.5403 28.816 28.9504 28.415ZM30.5279 30.0191C30.5744 31.2989 30.5601 32.7465 29.6337 33.7067C29.282 34.0719 28.8123 34.3291 28.4026 33.9042C28.1575 33.65 28.0458 33.2468 28.0168 32.9055C27.964 32.2806 28.0046 31.6739 27.8032 31.0858C28.7106 30.7308 29.619 30.3739 30.5279 30.0191ZM25.7004 30.0719C26.1899 29.7894 26.85 29.88 27.1879 30.3132C27.0321 30.3719 26.8769 30.4313 26.721 30.49C26.1227 30.7144 25.5169 30.9307 24.9166 31.1591C25.0524 30.713 25.3054 30.2997 25.7004 30.0719ZM25.1675 32.1285C25.5813 31.9582 25.9961 31.796 26.4002 31.6344C26.6169 31.5481 26.8346 31.4648 27.0519 31.3792C27.0491 32.8484 26.6782 34.3101 25.9022 35.5642C25.6827 35.919 25.2219 36.3841 25.0133 35.7586C24.9024 35.4256 24.8952 35.0435 24.882 34.6963C24.8493 33.8289 24.9626 32.9708 25.1675 32.1285ZM13.087 30.3185C13.9787 30.3934 14.8527 30.9414 15.6579 31.248C16.6225 31.6143 17.6315 31.8885 18.6499 32.0546C20.075 32.2869 21.4972 32.2714 22.8948 32.0324C22.3318 32.3144 21.7872 32.6289 21.2758 33.0064C20.9539 33.244 20.6655 33.5038 20.3987 33.7787C20.1261 33.7261 19.8381 33.7307 19.5622 33.7083C19.147 33.6739 18.7308 33.6364 18.3187 33.5681C17.4679 33.4264 16.6162 33.2439 15.7926 32.9842C14.5675 32.5976 13.0877 31.728 13.087 30.3185ZM15.7692 37.6314C14.6197 37.1983 13.3956 36.7882 12.3825 36.0765C11.3321 35.3391 10.7373 34.2782 10.9134 32.9794C11.0373 32.0691 11.3842 30.7444 12.3319 30.4041C12.3664 31.8989 13.7147 32.9991 15.0616 33.5021C15.939 33.8303 16.8694 34.0398 17.7882 34.2127C18.2948 34.3072 18.8024 34.3997 19.3103 34.4843C19.4565 34.5088 19.6031 34.5354 19.7491 34.5613C19.1702 35.3768 18.7771 36.3113 18.5705 37.3494C18.4901 37.7556 18.44 38.1651 18.4011 38.5761C17.524 38.2615 16.6416 37.9597 15.7692 37.6314ZM27.5115 51.3435C30.2699 50.621 33.0875 50.1623 35.859 49.4966C41.5766 48.1212 47.0622 45.5751 51.1065 41.1971C51.1976 41.0983 51.3581 41.2141 51.2754 41.3254C49.388 43.8455 46.7511 45.8663 44.0244 47.4054C41.5017 48.83 38.8064 49.864 35.9871 50.5234C33.0786 51.2031 30.1152 51.6394 27.2305 52.4195C24.2295 53.2306 21.3047 54.1563 18.4362 55.3633C15.5919 56.5606 12.8356 57.9621 9.95372 59.0658C9.82647 59.1139 9.70653 58.9242 9.83072 58.8506C12.7306 57.1222 15.7805 55.6261 18.8793 54.2895C21.6817 53.0787 24.5584 52.1166 27.5115 51.3435ZM49.275 47.5096C49.2416 47.5781 49.2076 47.6458 49.1742 47.7143C48.7519 48.5778 48.3329 49.4439 47.9234 50.3141C47.055 52.1616 46.2402 54.0363 45.4373 55.9133C44.0104 59.2462 42.6698 62.6342 41.5469 66.0854C40.6022 66.8766 39.6482 67.6573 38.6739 68.4131C38.0759 68.8771 37.4676 69.3326 36.8607 69.7883C38.86 66.6472 40.3829 63.2155 41.9629 59.845C42.932 57.7778 43.8891 55.7032 44.9549 53.6831C45.4922 52.6647 46.0521 51.6579 46.5994 50.6445C46.888 50.1093 47.2441 49.6031 47.586 49.0915C48.1552 48.57 48.7148 48.0394 49.275 47.5096ZM4.28771 52.735C6.71468 52.6171 9.16118 52.8149 11.583 52.5847C14.1527 52.3398 16.4369 51.4184 18.4622 49.8141C18.6667 49.6525 18.9726 49.9448 18.7918 50.1425C16.9971 52.1157 14.6932 53.2934 12.0272 53.4933C9.44141 53.6874 6.86598 53.2221 4.28695 53.1067C4.07212 53.0982 4.07687 52.7449 4.28771 52.735ZM9.4433 60.6734C15.1243 57.421 21.6361 56.3921 27.9632 55.117C31.1684 54.4703 34.365 53.7381 37.4407 52.6123C40.6346 51.4428 43.6811 49.9026 46.5045 48.0067C46.9081 47.7357 47.3082 47.4585 47.7046 47.1765C45.5308 49.1938 43.298 51.1439 40.9934 53.0101C36.5461 56.6109 31.8256 59.8994 26.8079 62.6593C24.2912 64.0439 21.704 65.3083 19.0577 66.4261C18.1539 66.8073 17.0642 67.1187 16.2256 67.7088C12.9187 66.753 11.0747 63.496 9.4433 60.6734ZM16.2283 73.096C16.176 72.4139 16.1418 71.7293 16.1347 71.0455C16.1282 70.3953 16.0677 69.6071 16.5332 69.0855C16.9912 68.5721 17.7356 68.3621 18.3566 68.1229C19.0478 67.8565 19.7329 67.5757 20.4142 67.2865C23.0222 66.1779 25.5603 64.9169 28.0292 63.526C32.891 60.7883 37.4819 57.5977 41.8151 54.0854C43.1639 52.9924 44.4806 51.861 45.7808 50.713C45.2824 51.4505 44.8129 52.2012 44.3746 52.981C43.2381 55.006 42.2016 57.0858 41.2192 59.1884C39.4174 63.0443 37.6193 66.9 35.6572 70.6766C33.3194 72.3775 30.909 73.9851 28.3808 75.376C25.1636 77.1467 21.6965 78.5051 18.0452 78.9945C16.5581 77.6041 16.3776 75.0508 16.2283 73.096ZM41.0777 69.0666C36.7656 72.7962 31.9669 76.3618 26.7004 78.6202C24.5378 79.547 21.7144 80.5491 19.3611 79.7686C19.0179 79.6551 18.715 79.5019 18.4464 79.3174C25.3555 78.6889 31.6317 74.789 37.1591 70.8526C42.7969 66.8379 47.9437 62.1223 52.764 57.1465C49.1476 61.3877 45.2954 65.418 41.0777 69.0666ZM42.277 65.466C43.5845 62.3861 44.8501 59.2877 46.1713 56.2125C46.9615 54.3717 47.7872 52.5493 48.6091 50.7234C49.02 49.8105 49.4288 48.8981 49.8478 47.9891C50.126 47.386 50.5308 46.724 50.7873 46.058C52.6539 44.2431 54.4612 42.3687 56.2426 40.4688C56.1471 40.8158 56.0631 41.1679 55.97 41.508C55.7646 42.2523 55.5619 42.997 55.3613 43.7426C54.9611 45.2255 54.5616 46.7091 54.189 48.1999C53.5634 50.7011 53.0066 53.2064 52.4977 55.7282C49.2441 59.1337 45.8599 62.4131 42.277 65.466ZM55.6216 52.3841C54.7939 53.2902 53.9523 54.1831 53.1087 55.075C53.7115 52.8739 54.3128 50.6741 54.8994 48.4666C55.3018 46.9505 55.6946 45.4316 56.1032 43.917C56.3039 43.1714 56.5073 42.4261 56.7128 41.6818C56.9118 40.9589 57.1877 40.2125 57.2487 39.4626C57.2503 39.44 57.2361 39.4281 57.2345 39.4078C57.6111 39.0009 57.9723 38.5805 58.3457 38.1711C58.3503 38.3354 58.3644 38.5039 58.3696 38.6691C58.3905 39.3083 58.4001 39.946 58.3953 40.5847C58.3856 41.7776 58.3392 42.9706 58.2546 44.1615C58.1129 46.1749 57.8772 48.1909 57.5856 50.1916C56.9312 50.9234 56.2828 51.6596 55.6216 52.3841ZM83.5283 6.92013C83.7993 10.1705 83.0177 13.4905 81.865 16.5087C79.309 23.2041 74.9245 29.201 70.5323 34.7972C66.5991 39.8085 62.4846 44.6986 58.2427 49.4601C58.5978 47.7139 58.8522 45.955 58.996 44.1685C59.0916 42.9805 59.1506 41.7891 59.171 40.5969C59.1814 40.0134 59.1846 39.4289 59.1815 38.8442C59.1784 38.3997 59.2847 37.826 58.954 37.4946C61.2254 34.9797 63.4552 32.4286 65.612 29.8234C69.2093 25.4781 72.6491 20.9732 75.5023 16.0979C77.7655 12.2297 79.9769 7.90123 79.1768 3.28979C79.0559 2.59081 78.8333 1.89765 78.5081 1.26161C79.6681 1.14762 80.8312 1.61324 81.6984 2.4114C82.935 3.55042 83.3938 5.30116 83.5283 6.92013Z" fill="#FDF0EA"/>
</svg>
