<svg width="72" height="69" viewBox="0 0 72 69" fill="none" xmlns="http://www.w3.org/2000/svg">
<path d="M18.7231 68.3441C23.9975 68.0076 29.2678 67.585 34.5281 67.0783C37.8478 66.7589 41.1424 65.8847 44.456 65.8426C52.8186 65.7365 60.993 62.1605 69.5049 64.5038C70.0346 64.65 71.3785 63.6406 71.5277 62.9837C71.8211 61.6959 71.6289 60.2668 71.4796 58.914C70.7146 51.9643 69.7863 45.0306 69.1334 38.0709C68.5476 31.8242 68.4524 25.5274 67.7444 19.2977C67.2958 15.3522 66.9003 11.6151 68.3643 7.73164C69.606 4.43805 68.126 2.51337 64.7162 2.1769C60.6105 1.77233 56.4847 1.54898 52.39 1.05729C43.5928 -0.000181093 34.8536 -0.546902 25.9832 0.786958C17.3442 2.08577 8.6791 2.68456 0 2.8568V5.45044C8.26252 5.25817 16.484 4.56016 24.7315 3.69696C32.292 2.90586 39.9928 3.25835 47.6244 3.40755C52.3199 3.49868 57.0055 4.15465 61.693 4.58926C63.6167 4.7675 64.1895 5.73382 62.8857 7.27397C61.7451 8.61984 60.5785 10.0649 59.1244 11.0032C48.6518 17.7606 39.9227 26.5498 31.1104 35.1929C27.5454 38.6898 24.6684 39.1604 19.8567 37.3319C12.899 34.6882 6.33183 31.4186 0 27.7685V32.5782C1.55317 32.3319 3.2255 32.9648 5.88921 34.2716C11.6873 37.1176 17.6546 39.6301 23.6199 42.1165C26.537 43.3332 29.1236 43.2801 31.0903 39.9375C32.4532 37.6203 34.6403 35.7697 36.5419 33.7909C38.1302 32.1386 39.418 32.2328 41.4207 33.834C50.0898 40.7617 55.8739 50.2799 63.6187 58.0147C64.0954 58.4914 64.6271 59.4717 64.4348 59.9153C64.1965 60.4651 63.2612 60.9448 62.5722 61.0339C49.7584 62.6882 36.9445 64.3535 24.1096 65.8326C21.0203 66.1891 17.8549 65.8857 14.7245 65.8857C9.80667 66.4425 4.90083 66.5886 0 66.4955V69C1.72941 68.996 3.45882 68.971 5.18623 68.9249C9.69952 68.8047 14.2158 68.6315 18.7231 68.3441ZM56.7611 45.6214C53.6578 42.1125 50.4684 38.6787 47.2649 35.261C46.1954 34.1194 44.7804 33.2672 43.8531 32.0335C42.4982 30.2309 41.7382 28.4364 44.2327 26.5648C50.6226 21.7692 56.8503 16.7562 63.143 11.8303C63.6207 12.0646 64.0984 12.3 64.577 12.5343C65.3922 26.8733 66.2083 41.2133 67.0234 55.5523C66.5978 55.7475 66.1723 55.9428 65.7467 56.1381C62.7565 52.6282 59.8144 49.0753 56.7611 45.6214Z" fill="#FDF0EA"/>
</svg>
