<svg width="49" height="52" viewBox="0 0 49 52" fill="none" xmlns="http://www.w3.org/2000/svg">
<path fill-rule="evenodd" clip-rule="evenodd" d="M5.37252 29.7105C5.97853 29.5907 6.62491 29.4622 7.25537 29.3371C8.5348 30.9435 9.5404 32.748 11.6717 33.2769C12.3299 35.0645 13.8375 36.0908 15.1503 37.2791C15.5815 37.668 16.1227 37.6525 16.5902 37.2651C16.9938 36.9315 17.3636 36.556 17.7246 36.2221C18.6247 36.2639 19.3128 36.6273 20.0488 37.0296C21.1899 37.6518 22.2369 38.596 23.7207 38.458C24.027 38.4293 24.4141 38.6987 24.6749 38.9298C25.6192 39.7747 26.5224 40.6653 27.4472 41.5319C28.3688 42.3917 29.2038 43.3639 30.481 43.7576C30.7518 43.8398 30.9859 44.0705 31.2061 44.2678C33.4255 46.2495 35.6341 48.241 37.8541 50.221C38.4581 50.761 38.9343 51.4681 39.8795 51.7481C40.1347 51.6159 40.4859 51.4836 40.7802 51.2727C42.2982 50.1846 43.8493 49.1344 45.2918 47.9525C46.1503 47.2486 46.8548 46.3918 47.2506 45.2537C47.6609 44.0741 48.3776 42.9975 48.9998 41.7989C47.6298 40.1454 46.9334 38.0192 45.0851 36.7606C44.9031 36.6369 44.7077 36.4758 44.6193 36.2845C43.7531 34.4319 42.1275 33.148 41.0456 31.4546C40.6882 30.8949 40.2071 30.4149 39.7766 29.9033C39.4888 29.5617 39.1222 29.2705 38.9101 28.8892C38.2872 27.7737 37.5449 26.7719 36.6276 25.8763C35.9117 25.1787 35.5797 24.3667 35.8488 23.247C36.2153 21.7196 35.1391 20.5577 34.3954 19.4208C33.7225 18.3924 32.5617 17.7414 32.1302 16.4469C31.9387 15.8713 31.2703 15.46 30.8091 14.9646C31.729 14.0785 32.4769 13.3611 33.1585 12.7055C33.0792 11.1106 32.4506 9.99849 31.3653 9.09035C30.5658 8.42221 29.8537 7.65074 29.0702 6.96093C28.6847 6.62222 28.2621 6.21108 27.7932 6.10797C26.7546 5.8831 26.1134 5.30818 25.5564 4.44031C25.1208 3.76355 24.4612 3.22848 23.8813 2.65202C22.7424 1.52111 21.3783 1.14337 19.7148 1.57721C19.0187 0.807899 18.08 0.402978 17.0396 0.179827C15.8405 -0.0763535 14.7022 -0.175659 13.6331 0.698281C13.0572 1.16703 12.3268 1.54422 11.5577 1.34201C10.7937 1.14147 10.2425 1.38809 9.72596 1.88768C9.12259 2.47186 8.57641 3.07552 8.58509 4.00545C8.58965 4.52208 8.49199 5.04277 8.41652 5.55822C8.37488 5.84804 8.28275 6.13083 8.21972 6.3924C7.19554 6.55806 6.23082 6.6586 5.29203 6.8765C2.88392 7.43669 1.18429 9.40031 1.2197 11.884C1.23934 13.2204 0.994672 14.4285 0.373659 15.5391C-0.451892 17.0189 0.293127 18.3 0.673986 19.617C0.765607 19.9315 1.33949 20.2128 1.74088 20.3021C2.93879 20.5697 3.24881 21.4329 3.27215 22.4644C3.28701 23.0553 3.14568 23.6557 3.04131 24.2475C2.63621 26.5467 3.34084 28.36 5.37252 29.7105ZM23.4868 5.33213C22.5555 5.52784 20.3509 5.71198 19.9457 5.50115C19.5791 5.31051 19.3113 4.933 19.0303 4.66571C19.5578 4.39997 20.0798 4.27846 20.3828 3.954C20.9225 3.37705 21.4801 3.46595 21.9993 3.76801C22.6209 4.12902 23.2181 4.5765 23.4868 5.33213ZM18.6727 8.64801C18.8692 8.54056 19.0795 8.42963 19.227 8.26856C20.4868 6.89716 21.8312 7.16031 23.3585 7.93215C22.2695 9.23203 21.3156 10.4635 20.1723 11.2153C19.4589 11.183 18.9884 11.1605 18.4474 11.1351C18.5425 11.7971 18.6131 12.2871 18.682 12.7721C17.9315 12.9326 17.3968 12.8367 17.1351 12.1236C17.3521 11.7623 17.5708 11.4015 17.8808 10.8839C17.4718 10.8213 17.1634 10.674 16.9589 10.7644C16.5569 10.9431 16.1866 11.2242 15.852 11.5194C15.2981 12.0079 15.2266 12.5159 15.6412 13.1031C16.0552 13.6897 16.5275 14.2351 16.9335 14.7486C16.3545 15.772 15.5482 16.0379 14.5811 15.9806C13.7451 15.931 13.3384 15.5288 13.3739 14.7082C13.3866 14.4157 13.502 14.1277 13.5431 13.8327C13.6712 12.915 13.5269 12.5855 12.7062 12.2825C12.0135 12.0276 11.2379 11.939 10.9012 10.9016C12.1405 9.27657 13.5947 9.17057 15.267 10.1606C15.347 9.82681 15.4562 9.61827 15.433 9.42709C15.2962 8.30837 15.9374 7.4134 16.3404 6.46432C16.4961 6.0954 16.8718 5.68473 16.9899 5.77991C17.1729 6.78591 17.277 7.45121 17.4192 8.10661C17.5316 8.62594 18.2009 8.90431 18.6727 8.64801ZM22.6876 17.4487C22.8626 18.2867 23.024 19.055 23.1869 19.8351C22.5985 20.5623 22.0788 21.2861 21.271 21.6945C20.3284 21.192 20.2674 20.3663 20.488 19.5444C20.7719 18.4934 21.4118 17.7068 22.6876 17.4487ZM20.603 17.0672C20.4196 17.3363 20.3138 17.5312 20.1702 17.6939C19.8774 18.0251 19.5659 18.3377 19.096 18.8325C18.325 18.2249 17.6497 17.8228 17.4091 16.9296C17.6535 16.6311 17.8807 16.3553 18.1675 16.0066C18.7497 16.1328 19.3318 16.2005 19.8653 16.3969C20.1514 16.5035 20.3536 16.8315 20.603 17.0672ZM20.6543 12.0024C21.6865 12.5146 22.7514 12.7291 23.2393 14.0034C22.1787 15.2173 22.1787 15.2174 20.1614 14.4527C20.321 13.6602 20.4824 12.8569 20.6543 12.0024ZM25.9007 37.1918C28.9611 33.9487 31.95 30.8009 34.9989 27.5806C35.9873 28.0261 36.4086 28.6246 36.7944 29.2755C37.0959 29.7851 37.4408 30.2706 37.7999 30.7406C38.4287 31.566 39.094 32.3639 39.7262 33.1869C40.8994 34.7168 41.9498 36.3604 43.2595 37.7604C44.3335 38.9088 45.3076 40.0714 46.0844 41.4449C46.4733 42.1322 46.5677 42.6335 46.0906 43.2674C45.8713 43.5601 45.6873 43.9064 45.5805 44.2557C45.2 45.4902 44.32 46.2778 43.2671 46.9166C42.8824 47.149 42.3367 47.2411 42.0978 47.5669C41.4843 48.4072 40.5579 48.2946 39.7566 48.5837C38.9803 48.8635 38.4701 48.5819 37.9515 48.0964C36.5356 46.7743 35.1249 45.4481 33.6805 44.1568C32.8519 43.4151 31.9913 42.7019 31.0951 42.0435C29.2322 40.6777 27.6418 39.0393 25.9007 37.1918ZM22.0016 35.5856C22.2845 35.2192 22.5307 34.7373 22.9159 34.4356C23.9083 33.6587 24.6029 32.7588 24.4797 31.3589C26.5614 31.2346 27.6935 30.1939 27.7472 28.2269C27.931 28.1695 28.0016 28.1349 28.0715 28.1294C28.2192 28.1193 28.3743 28.1007 28.5166 28.1299C30.5215 28.5483 31.7734 27.4239 32.8056 25.9404C33.122 25.4842 33.2552 24.9008 33.4721 24.377C33.7122 25.3395 33.7965 26.2547 33.0846 27.0264C31.1027 29.173 29.074 31.2784 27.1525 33.4762C26.0811 34.6999 24.5871 35.2496 23.3495 36.1973C22.8644 36.5695 22.3691 36.1782 22.0016 35.5856ZM5.56542 27.5614C4.69845 26.3481 4.43858 25.199 4.73583 23.8503C4.91016 23.0646 4.91752 22.1998 4.79382 21.4075C4.55574 19.8767 3.52178 18.9341 2.2237 18.443C1.25642 16.5944 2.37292 15.3369 3.2402 14.0737C3.20572 13.7901 3.19752 13.5658 3.14838 13.3532C2.44948 10.3169 4.28741 8.13269 7.3478 8.36309C8.29208 8.43415 9.23807 8.50461 10.1836 8.55976C10.6751 8.58948 11.0076 8.10019 10.7841 7.62871C10.5657 7.16912 10.271 6.74749 10.0547 6.38497C10.2696 5.39738 10.4552 4.53715 10.6308 3.72866C11.3384 3.61219 11.947 3.61389 12.4753 3.40378C13.2329 3.1019 13.9382 2.65844 14.6545 2.25463C15.6551 1.69284 17.3464 1.88563 18.1147 2.73054C18.2714 2.90325 18.2105 3.27554 18.2631 3.65389C15.2328 3.41363 14.609 5.5604 14.0381 7.77951C11.9085 8.19879 10.0062 8.94473 9.0391 11.146C9.53158 12.4111 10.7136 13.024 11.544 14.0189C10.3541 13.8325 9.22613 13.6247 8.08919 13.497C7.75162 13.46 7.28553 13.5403 7.04908 13.7553C6.3243 14.4113 5.64965 15.131 5.02305 15.8806C4.72605 16.2374 4.7149 16.7234 5.02334 17.1336C5.72131 18.0579 6.5146 18.7301 7.81512 18.675C8.87145 18.6295 9.8945 18.6387 10.8756 18.1225C11.4014 17.8448 12.0097 17.7285 12.5837 17.5459C13.0895 17.383 13.437 17.5511 13.6429 18.109C13.2886 18.7171 12.9142 19.3566 12.5559 19.9721C11.7606 19.9563 11.0238 19.9418 10.2125 19.9272C9.60284 20.7839 8.55464 21.2353 8.43248 22.463C8.30676 23.7158 9.46176 24.2067 9.85916 25.0785C9.63971 26.7724 9.74711 27.7107 10.251 28.6238C10.9372 29.8678 11.8699 30.2268 13.2552 29.8005C14.2735 29.4872 15.2389 29.1073 15.9052 28.1906C16.1184 27.8985 16.4428 27.688 16.7249 27.4318C17.9316 27.6658 19.0776 27.8883 20.2734 28.1206C21.067 27.2843 21.8405 26.469 22.5894 25.6807C22.5777 25.4769 22.6249 25.2841 22.5489 25.1898C21.8472 24.3132 22.0503 23.5653 22.8227 22.829C23.4226 22.2573 23.9441 21.6016 24.5451 21.0299C25.2684 20.3393 25.3907 19.5198 25.3975 18.5711C25.4075 17.3844 24.5339 16.7553 23.9856 16.0424C24.1519 15.0954 25.2061 14.6786 24.9323 13.5739C24.2761 12.9508 23.5301 12.2448 22.695 11.4532C23.7907 10.1646 24.895 8.86515 26.0587 7.49721C26.7617 7.30526 27.4257 7.52465 28.0063 8.08691C28.9151 8.96838 29.8446 9.83041 30.7489 10.7176C30.9554 10.9206 31.1257 11.1778 31.2557 11.4393C31.5612 12.0465 31.3481 12.6735 30.7366 12.9342C29.9219 13.2818 29.0921 13.5904 28.2997 13.9022C28.1751 15.6897 29.167 16.8097 30.1736 17.9432C30.0508 18.4902 29.9821 19.0135 29.8057 19.499C29.6808 19.8404 29.4076 20.1295 29.2045 20.4454C28.382 21.7214 28.5104 22.06 29.9717 22.7681C30.412 22.981 30.7884 23.3277 31.1868 23.6084C31.0587 24.1833 30.9979 24.6333 30.8543 25.0544C30.5505 25.9415 30.034 26.3395 29.1598 26.1453C28.0055 25.8883 26.9467 25.7084 26.1533 26.8798C26.1349 26.9071 26.0065 26.8404 25.9405 26.8601C24.8511 27.1835 24.8614 27.1834 25.0369 28.2082C25.0817 28.4691 25.0396 28.7459 25.0382 29.0439C24.2442 29.1746 23.5761 29.2482 22.9261 29.4041C22.4268 29.5243 22.0994 30.1055 22.1783 30.6234C22.2127 30.8394 22.3653 31.0377 22.3905 31.2539C22.4786 32.0277 22.2372 32.6402 21.757 32.8046C21.0849 33.0355 20.9772 32.2294 20.6452 32.1271C19.9115 32.413 19.2917 32.6481 18.6786 32.8979C18.4133 33.0052 17.9932 33.0926 17.9318 33.2815C17.575 34.3592 16.539 34.5039 15.8154 35.1462C15.0042 34.5213 14.2545 34.047 13.93 33.1441C13.4455 31.7886 12.5298 30.9884 11.1156 30.5457C10.1541 30.2459 9.26187 29.5892 9.02649 28.4245C8.95772 28.0883 8.83667 27.7627 8.65897 27.1541C7.56909 27.2952 6.5377 27.4319 5.56542 27.5614ZM12.73 25.5491C13.2263 26.0693 13.8031 26.5136 14.345 26.9915C13.7963 27.6372 13.4255 27.8928 12.7999 28.0604C12.2113 28.2159 11.7457 28.0395 11.5348 27.4708C11.3848 27.0647 11.1547 26.4826 11.328 26.1964C12.2343 24.6956 11.39 23.6604 10.5858 22.5784C10.5531 22.5344 10.5827 22.4405 10.5852 22.2361C11.1741 21.7746 11.7372 21.6142 12.5127 22.1508C13.2254 22.6441 14.137 22.2436 14.1209 21.4079C14.0919 19.9422 15.0543 19.3329 16.0174 18.5153C16.4028 18.8801 16.6985 19.161 16.9253 19.3764C16.9125 19.5956 16.9284 19.679 16.899 19.741C16.8334 19.8743 16.748 20.0003 16.6626 20.1241C16.3365 20.598 15.6692 20.9675 15.9883 21.6637C16.3006 22.3487 16.9741 22.1546 17.568 22.1519C18.0722 22.1498 18.5774 22.2401 19.0858 22.2902C19.2356 22.8229 19.3071 23.2715 19.4896 23.6666C19.6917 24.1008 19.998 24.4871 20.2358 24.8586C20.0799 25.0753 20.0047 25.2081 19.9023 25.315C19.5439 25.6937 19.2247 26.146 18.5821 25.9515C18.0002 25.7753 17.7407 25.4301 17.7931 24.7979C17.843 24.2031 17.4321 23.8311 16.9814 23.5518C16.3566 23.1636 15.7019 22.8232 15.0774 22.473C14.0484 22.8533 13.4211 23.6296 12.7444 24.3199C12.4003 24.6696 12.3878 25.1908 12.73 25.5491ZM14.8965 24.1758C14.9726 24.0884 15.1294 24.0749 15.2512 24.0287C15.2248 24.1543 15.234 24.3098 15.1597 24.3943C15.0847 24.4806 14.9274 24.4947 14.805 24.5403C14.8325 24.4146 14.8227 24.2586 14.8965 24.1758ZM10.5336 16.2432C9.41832 17.2253 8.2515 17.1489 6.88025 16.3868C7.36199 15.5633 7.89242 15.1942 8.76402 15.2668C9.53234 15.3311 10.2671 15.3263 10.5336 16.2432Z" fill="#FDF0EA"/>
</svg>
