<svg width="110" height="114" viewBox="0 0 110 114" fill="none" xmlns="http://www.w3.org/2000/svg">
<path d="M102.436 50.1892C102.224 48.828 102.155 47.442 101.893 46.0914C101.32 43.1382 103.709 39.0396 106.656 38.7331C109.063 38.4826 109.747 36.9734 109.283 35.3446C108.46 32.4537 107.215 29.635 105.783 26.9819C104.852 25.2561 102.982 24.0386 102.046 22.3143C98.8122 16.3555 93.6979 12.1699 88.9694 7.55458C85.4563 4.12498 81.0484 2.38434 76.867 0.281279C75.4633 -0.424462 73.0042 0.334347 71.2983 1.0592C69.821 1.68708 68.6806 3.17009 67.4715 4.35647C63.3121 8.44085 62.9426 8.51303 57.6159 5.75023C56.7991 5.32693 56.0282 4.51074 55.2043 4.46543C53.5663 4.37624 50.7199 4.24674 50.4601 4.92841C49.3453 7.85543 45.9588 10.105 47.0872 13.6642C47.8057 15.9286 46.959 17.5638 45.9673 19.2747C44.9657 21.0026 43.8798 22.693 42.6935 24.2984C39.3297 28.8471 35.8137 33.2847 32.5066 37.8731C26.4883 46.2231 20.579 54.6509 14.6238 63.0455C14.6245 63.0462 14.6259 63.0462 14.6266 63.0455C10.1303 68.305 5.68983 73.6245 1.08375 78.7955C-0.0452913 80.0633 -0.446641 81.0621 0.633562 82.3787C3.94778 86.4192 6.98804 90.745 10.6987 94.3848C16.2802 99.8602 22.5052 104.676 28.1475 110.094C33.3504 115.088 35.0103 115.28 40.8374 110.744C47.9147 105.236 54.0781 98.5541 60.6315 92.373C64.5212 88.7042 68.1072 84.6339 72.3509 81.4365C79.5697 75.9987 85.5596 69.3859 91.6204 62.8098C92.2122 62.167 92.2702 61.0331 92.5583 60.1107C92.5668 60.1263 92.576 60.1355 92.5845 60.1511C94.827 58.3404 96.8437 55.5181 99.3665 54.9518C102.719 54.1986 102.826 52.7015 102.436 50.1892ZM100.279 51.0847C84.9919 44.8512 73.5139 34.578 63.4771 22.1076C65.3996 21.2171 66.1769 22.7022 66.9923 23.6097C69.5569 26.4645 71.9814 29.4453 74.5155 32.3291C74.8461 32.705 75.8385 33.1028 75.9511 32.9761C77.7207 31.004 78.6778 32.9068 79.7289 33.7767C84.5148 37.7386 89.7544 40.9396 95.634 42.9358C99.5039 44.2503 99.9463 47.2382 100.279 51.0847ZM65.4329 17.1844C65.3918 17.1022 65.7755 16.8106 65.9624 16.6152C66.4409 17.3528 66.9293 18.0848 67.3859 18.8358C67.4468 18.9349 67.3463 19.1317 67.3208 19.2832C67.0575 19.211 66.683 19.2216 66.5542 19.0489C66.1238 18.467 65.755 17.8335 65.4329 17.1844ZM76.1259 2.48201C78.505 3.56717 81.0399 4.57587 83.0233 6.20962C87.6485 10.0194 92.1498 14.0167 96.368 18.2688C98.1079 20.0229 99.0183 22.5995 100.292 24.8151C100.297 24.7939 100.303 24.7776 100.307 24.7557C103.101 27.4052 106.161 29.8417 106.614 34.1137C106.786 35.7474 106.19 36.8686 104.729 36.0043C97.0015 31.44 87.8538 29.0935 82.0982 21.4181C78.3691 16.4447 76.3984 10.5751 73.4941 5.18466C73.1493 4.54546 73.2074 3.1906 73.6533 2.75598C74.1368 2.28666 75.4435 2.17055 76.1259 2.48201ZM72.3926 8.07838C75.372 14.4711 78.3203 20.8313 82.7395 26.4567C84.0384 28.1096 85.5462 29.1657 87.1778 30.0498C91.5836 32.4381 96.1613 34.5072 100.612 36.8163C101.286 37.1653 101.904 38.0699 102.042 38.8124C102.113 39.1918 101.118 40.1043 100.508 40.2098C98.9446 40.4802 97.1375 40.941 95.7635 40.4278C88.6268 37.7649 82.4514 33.5134 75.1958 26.3002C73.281 22.9867 70.0864 17.4364 66.8684 11.8994C65.8697 10.1814 66.1429 8.75014 67.5197 7.33087C69.8004 4.97651 70.9776 5.04376 72.3926 8.07838ZM60.589 9.47358C61.2388 9.84875 62.0373 11.072 61.849 11.5406C61.5404 12.3079 60.5564 13.037 59.7134 13.2741C59.14 13.4355 58.0322 12.9209 57.6704 12.3737C56.6716 10.8624 55.9383 9.17631 54.7321 6.84743C57.2634 7.9517 59.0119 8.56327 60.589 9.47358ZM49.7558 14.4145C49.0855 12.252 49.3339 10.4816 50.509 8.75159C51.3995 7.44062 52.2567 7.24874 53.1953 8.91223C55.0818 12.2541 57.5452 15.329 59.0225 18.8294C61.3924 24.4456 65.8145 28.3453 69.6844 32.671C76.7333 40.5524 85.2892 46.5487 94.6507 51.4337C95.5037 51.879 97.5777 52.0191 96.5032 53.8511C95.7564 55.1245 94.6904 56.1042 92.7367 55.5662C83.1373 52.9252 75.2743 47.5029 66.6511 39.0595C64.4589 36.2344 60.8587 31.6404 57.3109 27.0067C54.3201 23.1 51.2607 19.2676 49.7558 14.4145ZM64.9749 66.4468C65.4641 65.9874 66.4897 66.0985 67.267 65.9471C67.1275 66.7222 67.2394 67.6919 66.8111 68.242C63.1564 72.9401 59.433 77.585 55.6622 82.1897C54.5976 83.4908 53.1139 84.4733 52.164 85.8395C50.7688 87.8448 49.5789 87.36 48.0633 86.078C46.3623 84.6389 47.0405 83.4511 48.2481 82.2378C50.9535 79.5196 53.6689 76.8128 56.3807 74.1009C56.523 74.2432 56.666 74.3862 56.8076 74.5292C59.5158 71.8209 62.1817 69.0659 64.9749 66.4468ZM62.0111 75.6512C61.6827 76.4171 61.3549 77.1823 61.0264 77.9482C61.3549 77.1837 61.6827 76.4171 62.0111 75.6512ZM65.2786 73.597C66.8373 71.7452 68.115 69.6577 69.7587 67.3401C70.4602 67.6098 71.3769 67.8384 72.1675 68.2879C74.6359 69.6916 74.8652 70.4943 72.857 72.402C67.182 77.791 61.3938 83.0625 55.5978 88.3233C55.1377 88.741 54.2769 88.717 53.6016 88.8982C53.763 88.087 53.6611 87.0534 54.1283 86.4999C57.7922 82.1536 61.6197 77.9454 65.2786 73.597ZM38.2608 35.3241C41.8773 30.1928 45.5115 25.0735 49.2164 19.841C54.4299 26.8071 59.1124 34.3649 65.1087 40.6727C70.0843 45.906 75.0945 51.593 82.3955 54.1767C85.9065 55.4197 86.0509 56.313 83.7284 59.4864C81.9142 61.9646 79.8202 64.2397 77.841 66.5969C76.7035 67.9524 75.4924 68.3665 73.8253 67.2814C71.8978 66.0278 69.6787 65.1989 67.8248 63.8575C60.5833 58.6164 53.4502 53.226 46.2455 47.934C43.3157 45.7828 41.5764 42.4523 38.3401 40.5127C36.3149 39.3016 36.5676 37.7266 38.2608 35.3241ZM45.8038 82.8049C45.4987 83.1071 45.0266 83.2409 44.6316 83.4533C44.3484 83.2013 44.066 82.95 43.7829 82.698C45.898 80.0052 48.0633 77.3515 50.1147 74.6106C52.4181 71.5342 54.65 68.4033 56.8366 65.2427C57.3491 64.5023 57.6336 63.5693 57.858 62.6838C57.9416 62.3554 57.6485 61.7253 57.3498 61.5654C57.0773 61.4203 56.4728 61.6156 56.1818 61.8599C55.8576 62.1317 55.6905 62.6144 55.5122 63.0292C52.738 69.4772 48.0966 74.617 43.8204 80.0385C42.6397 81.5349 41.6996 81.6015 40.3674 80.8738C35.1908 78.0487 30.4807 74.6042 26.4642 70.2494C24.1177 67.7061 24.6783 64.8024 25.8831 62.1819C28.6034 56.2634 32.9858 51.4918 37.3986 46.8029C38.6345 45.4891 39.9809 45.2767 41.7598 46.6705C48.4144 51.8839 55.2779 56.8305 62.0154 61.9398C63.2973 62.9117 64.9169 63.8758 62.862 65.8685C57.112 71.4471 51.4929 77.1625 45.8038 82.8049ZM42.3197 82.8714C42.9759 81.9958 43.6328 81.1209 44.2883 80.2459C43.6321 81.1216 42.9766 81.9965 42.3197 82.8714ZM34.8715 42.6576C35.4895 41.8612 36.2774 41.1796 36.9881 42.2895C37.3193 42.8063 37.1856 44.0061 36.787 44.5419C34.3173 47.8583 31.6104 50.9998 29.1817 54.3444C26.8656 57.5327 24.793 60.8964 22.6418 64.1406C20.1409 61.8039 20.0751 61.7536 21.9127 59.354C26.1967 53.7604 30.5514 48.2221 34.8715 42.6576ZM38.2261 102.944C36.9215 104.017 35.2963 104.773 34.2054 106.014C32.445 108.016 31.0597 107.201 29.5406 105.893C23.4855 100.681 17.383 95.5209 11.3959 90.2303C8.98704 88.1018 6.81321 85.7028 4.56432 83.3959C3.40555 82.2074 3.57754 81.3488 4.7703 79.9705C8.07957 76.1488 11.2126 72.1437 14.0511 67.963C14.6216 67.1235 14.6047 65.8833 14.5933 64.646L14.2359 65.2894C14.2062 65.6405 14.1028 65.952 13.7673 66.1332L14.2359 65.2894C14.2918 64.6276 14.0837 63.8206 14.6118 63.4214C14.6181 63.2961 14.6224 63.1687 14.6344 63.0462C18.3174 63.4957 20.4623 65.9095 22.5965 68.712C26.0622 73.2649 30.344 76.9763 35.3097 79.9713C38.4894 81.8896 41.9375 83.6231 44.0221 87.0301C44.3817 87.6176 45.6665 87.5617 46.3672 88.0346C47.8743 89.0518 49.3247 90.1709 50.669 91.3905C50.8339 91.5399 50.3745 92.7581 49.92 93.1489C46.0615 96.4624 42.1541 99.7157 38.2261 102.944ZM39.2624 109.083C38.391 109.891 37.2252 110.451 36.1039 110.891C35.5419 111.112 34.7724 110.805 34.0964 110.738C34.2932 110.019 34.2833 109.108 34.7321 108.624C35.544 107.75 36.6759 107.183 37.5961 106.396C44.0009 100.92 50.3589 95.3871 56.7934 89.9465C59.1053 87.9914 61.5899 86.2401 63.9959 84.3961C64.2579 84.6694 64.5191 84.9433 64.781 85.218C56.2838 93.1814 47.8007 101.163 39.2624 109.083ZM91.8766 61.5399C92.0189 61.1145 92.1597 60.689 92.302 60.2636C90.6463 61.5696 88.9751 62.8869 86.9966 64.4463C88.0202 62.7786 88.7492 61.3091 89.7473 60.0534C90.5168 59.0857 91.5581 58.5782 92.4217 59.9047C92.4599 59.9642 92.4988 60.013 92.5363 60.0788C92.4585 60.1397 92.3799 60.2027 92.302 60.2636C92.1597 60.689 92.0182 61.1137 91.8766 61.5399Z" fill="#FDF0EA"/>
</svg>
