<svg width="25" height="26" viewBox="0 0 25 26" fill="none" xmlns="http://www.w3.org/2000/svg">
<path d="M23.5493 6.96253C22.2644 4.00987 20.0575 1.56309 16.9416 0.54528C13.4407 -0.598499 9.52565 0.120024 6.47322 2.11232C4.79231 3.20974 2.98647 4.78584 1.85377 6.64914C1.84974 6.65519 1.84572 6.66224 1.84169 6.66828C1.74091 6.83557 1.64617 7.00385 1.55749 7.17516C0.916574 8.32197 0.447964 9.56653 0.209131 10.8857C-0.329 13.8595 0.159772 17.0671 1.81044 19.6288C3.49638 22.2438 6.25957 24.0104 9.21324 24.869C12.2526 25.7528 15.6215 25.6923 18.5338 24.3943C19.7098 23.8703 20.7437 23.1236 21.6275 22.2287C21.7313 22.1793 21.814 22.0866 21.8614 21.9758C23.0747 20.6657 23.9786 19.0664 24.4865 17.3271C25.4841 13.9089 24.9521 10.1873 23.5493 6.96253ZM12.9651 24.2936C14.2288 22.3678 14.9755 20.0691 14.4363 17.7624C14.1491 16.535 13.4891 15.5696 12.6365 14.6647C11.651 13.6166 10.9425 12.4628 10.9415 10.9794C10.9405 9.73784 11.4655 8.55073 12.3423 7.67803C12.7736 7.24874 13.354 6.79828 13.9657 6.67937C14.8273 6.51309 15.3836 7.4654 15.7333 8.11035C17.128 10.6811 16.7632 13.7386 16.8247 16.5481C16.8741 18.7792 17.3114 21.2815 19.2362 22.66C17.3779 23.8431 15.1619 24.345 12.9651 24.2936ZM19.9073 22.1834C19.8761 22.13 19.8338 22.0796 19.7703 22.0393C17.5603 20.6466 17.5412 17.6213 17.5442 15.3066C17.5482 12.495 17.5704 9.47684 15.8562 7.0875C15.1498 6.10194 14.2781 5.70187 13.1253 6.25814C12.1034 6.75092 11.2569 7.6468 10.7662 8.66259C10.2512 9.72777 10.1112 10.9169 10.346 12.0758C10.6251 13.4554 11.4494 14.3946 12.3917 15.3802C14.8888 17.9912 13.9264 21.4477 12.3644 24.2734C11.9916 24.2472 11.6207 24.2079 11.2529 24.1515C11.2106 24.1444 11.1683 24.1343 11.1259 24.1273C11.9976 23.182 12.7141 22.2126 12.9066 20.8552C13.1172 19.3678 12.4592 18.0728 11.6137 16.8968C9.90356 14.5175 7.45576 12.2804 8.43327 9.05862C8.86659 7.62966 9.85216 6.33975 11.1098 5.53558C12.6214 4.56916 14.4726 4.5732 16.1535 5.05893C17.646 5.49024 18.8915 6.42843 19.3793 7.94407C19.8539 9.41939 19.6413 11.0328 19.3742 12.5252C19.0598 14.2847 18.7021 16.0251 19.0145 17.8128C19.2463 19.138 19.8156 20.4531 20.6571 21.5253C20.4173 21.7571 20.1663 21.9758 19.9073 22.1834ZM23.6914 15.1383C23.4536 17.179 22.6373 19.2035 21.3212 20.8008C20.5432 19.6489 19.988 18.3892 19.863 16.9704C19.7018 15.1524 20.1955 13.3707 20.4112 11.578C20.5765 10.2054 20.5402 8.76639 19.997 7.47447C19.4428 6.15636 18.3746 5.25443 17.0575 4.74351C15.6063 4.18119 13.9093 3.92724 12.3816 4.30111C11.008 4.6377 9.8189 5.54264 8.94922 6.63502C8.07451 7.73446 7.49507 9.08483 7.43863 10.4997C7.38019 11.973 7.97474 13.3657 8.72248 14.6032C9.60827 16.0684 10.9224 17.3483 11.6016 18.9274C12.3534 20.6778 11.5442 22.5421 10.4901 24.0044C7.97779 23.4773 5.56727 22.2771 3.80272 20.3997C1.88803 18.362 0.965959 15.5837 1.02844 12.8104C1.09193 10.0089 2.21352 7.46943 3.97101 5.44792C4.73386 4.70421 5.56625 4.04918 6.35934 3.51307C8.78697 1.87147 11.6691 0.913103 14.6177 1.27488C17.6349 1.64472 20.129 3.3619 21.6648 5.96387C23.2661 8.67266 24.0562 12.0042 23.6914 15.1383Z" fill="#FDF0EA"/>
</svg>
