<svg width="33" height="62" viewBox="0 0 33 62" fill="none" xmlns="http://www.w3.org/2000/svg">
<path fill-rule="evenodd" clip-rule="evenodd" d="M27.5868 1.16609C29.034 2.73369 29.4483 4.69543 29.4332 6.86779C29.3821 13.4541 29.4071 20.0454 29.4433 26.6317C29.4613 30.2252 29.5546 33.8198 29.6308 37.4133C29.6358 37.6981 29.7692 37.9799 29.8274 38.2046C29.9628 38.3109 30.029 38.4082 30.1132 38.4233C31.3879 38.6459 32.8582 38.4704 32.9726 40.405C33.111 42.7248 32.777 43.463 30.6809 44.4208C30.4151 44.5412 30.1293 44.6264 29.7241 44.7759C29.6208 45.9513 29.6729 47.0636 29.9989 48.2661C30.7531 51.0302 31.8954 53.7572 31.5123 56.7209C31.4481 57.2133 31.5123 57.7288 31.419 58.2142C31.1623 59.5411 30.0671 60.5611 28.6459 60.6173C24.4095 60.7938 23.9662 60.6955 24.1257 56.756C24.244 53.8404 23.6202 51.0302 22.6834 48.2711C22.4307 47.5259 22.3445 46.7266 22.1499 45.8029C20.2513 45.1219 18.1832 45.5511 16.1653 45.4709C14.1153 45.3896 12.0563 45.4529 9.83077 45.4529C9.83077 46.3956 9.82576 47.1508 9.83178 47.906C9.84382 49.5017 9.83178 51.1014 9.88394 52.6981C9.92706 53.9979 9.98223 55.2636 9.42158 56.5203C9.14878 57.128 9.24908 57.8903 9.16684 58.5803C8.92012 60.6694 7.9272 61.552 5.70369 61.556C4.57137 61.557 3.43203 61.4888 2.30472 61.3654C1.41111 61.2682 0.884568 60.51 1.02999 59.6304C1.09318 59.2422 1.29075 58.8802 1.38403 58.4971C1.57158 57.7348 1.85942 56.9666 1.86744 56.2003C1.88248 54.7782 2.09813 53.4563 2.72998 52.1455C3.69381 50.1436 3.86331 47.9441 4.17122 45.6063C3.20839 45.4719 2.31977 45.3606 1.43618 45.2201C0.623803 45.0928 0.125338 44.6184 0.0782002 43.8221C0.0370798 43.129 -0.112341 42.3387 0.158452 41.752C0.835436 40.2847 1.36699 38.8264 1.4031 37.2007C1.41112 36.8597 1.78321 36.5227 1.99985 36.1937C2.37996 35.62 2.83529 35.0815 3.14018 34.4717C3.4882 33.7756 3.99068 33.3113 4.77096 33.2782C7.45884 33.1679 9.91804 31.7457 12.6681 32.0275C14.8766 30.8952 17.3157 31.3806 19.6195 31.153C19.8461 30.6635 19.7348 30.3686 19.2764 30.1651C18.6235 29.8762 17.9947 29.5342 17.3428 29.2423C15.035 28.2083 13.9549 26.3479 13.8997 24.009C13.8044 19.917 13.8536 15.823 13.8907 11.7291C13.8977 10.9397 14.0421 10.1304 14.2618 9.36813C14.679 7.91186 14.9287 6.44456 14.8264 4.93614C14.7472 3.75368 15.1383 2.78484 16.0711 2.01358C16.384 1.75181 16.6939 1.48403 16.9697 1.18816C17.8643 0.224337 18.9104 -0.133703 20.2874 0.0438168C22.6955 0.358739 25.1497 0.381795 27.5868 1.16609ZM22.0867 27.8342C22.1699 27.2475 22.0947 26.5846 22.3635 26.0921C23.1699 24.6088 23.1538 23.0382 23.1318 21.4495C23.1278 21.0524 23.1518 20.6542 23.1668 20.255C23.3052 16.3807 23.4407 12.5033 23.5851 8.62594C23.6272 7.49763 23.3644 6.44858 22.7165 5.51183C22.3194 4.93915 21.858 4.40459 21.4348 3.84796C21.0145 3.29635 21.8339 2.44885 21.0316 2.01358C19.6074 1.76786 18.9485 2.74473 18.1512 3.50596C17.5053 4.12276 17.4591 4.886 17.3899 5.69737C17.2686 7.07641 17.0228 8.44541 16.8303 9.81944C16.747 10.4122 16.5976 11.0009 16.5916 11.5936C16.5635 15.5783 16.5815 19.561 16.5484 23.5446C16.5384 24.7642 17.065 25.7662 18.0829 26.2967C19.3146 26.9406 20.4609 27.9155 22.0867 27.8342ZM23.887 35.8597C21.0296 33.6814 17.8944 33.0615 14.4072 34.1688C13.9248 34.3222 13.3922 34.4917 12.9058 34.4396C10.2921 34.1527 7.85801 35.2279 5.29049 35.3222C3.88237 35.3773 3.30465 36.0463 3.13917 37.4143C3.07298 37.9649 3.2515 38.5436 3.32973 39.2015C6.11188 39.5275 8.82684 39.7562 11.3793 39.1063C13.2087 38.6409 14.9839 38.4704 16.8223 38.4463C18.5674 38.4242 20.3155 38.4533 22.0606 38.4002C22.6413 38.3831 23.218 38.1926 23.887 38.0652C23.887 37.2659 23.887 36.5929 23.887 35.8597ZM25.96 29.9374C25.9259 29.3757 25.8357 28.8121 25.8748 28.2545C25.9149 27.6758 25.9059 26.9827 26.2248 26.5515C26.9499 25.5766 26.973 24.5255 26.978 23.4273C27.0061 17.4608 27.0432 11.4954 27.0703 5.52787C27.0723 5.03442 27.1535 4.48884 26.97 4.06059C26.7955 3.6544 26.3612 3.1519 25.968 3.0837C25.3001 2.96435 25.2339 3.58419 25.2399 4.0987C25.2429 4.39657 25.256 4.69543 25.268 4.9923C25.5689 13.3227 25.5679 21.6571 25.96 29.9374ZM2.71192 41.8362C2.7029 42.0589 2.69588 42.2815 2.68686 42.5022C3.34177 42.5995 3.99369 42.781 4.64661 42.781C10.8247 42.782 16.9998 42.771 23.1749 42.7148C23.9652 42.7078 24.7615 42.445 25.5388 42.2424C26.8176 41.9095 28.0431 41.3318 29.4412 41.7861C29.6699 41.8593 30.2486 41.6347 30.0891 40.9727C29.8665 40.8955 29.5997 40.715 29.3359 40.717C25.7364 40.7521 22.1378 40.8082 18.5403 40.8674C18.1291 40.8744 17.6808 40.8393 17.3167 40.9797C15.4372 41.7179 13.4654 41.5273 11.5227 41.5634C9.15581 41.6096 6.78787 41.5554 4.42094 41.5835C3.85127 41.5905 3.2826 41.749 2.71192 41.8362ZM7.6905 45.5822C6.44084 46.3053 6.28038 47.1889 6.08882 48.1668C5.74782 49.9039 5.3286 51.643 4.74991 53.3179C4.11204 55.1683 4.2414 56.9535 4.62151 58.8922C5.23029 58.822 5.70972 58.7659 5.9083 58.7438C7.93223 54.4623 7.43475 50.1326 7.6905 45.5822ZM26.3893 45.174C25.9159 45.3546 25.2941 45.4097 25.0514 45.7337C24.8047 46.0616 24.8147 46.6804 24.926 47.1237C25.0935 47.7847 25.6231 48.3864 25.6903 49.0434C25.953 51.6079 27.0272 54.0701 26.7092 56.7038C26.6862 56.8954 26.7213 57.105 26.7805 57.2935C27.0001 58.0166 27.5186 58.157 28.3199 57.9023C28.9307 56.424 28.8114 54.8203 28.4854 53.2948C27.9097 50.606 27.1224 47.9622 26.3893 45.174ZM23.0906 31.6915C22.9923 31.4408 22.9412 31.1379 22.859 31.1289C22.5982 31.1048 22.3254 31.19 22.0576 31.2312C22.1348 31.4378 22.1759 31.7898 22.2993 31.8179C22.533 31.8731 22.8138 31.7457 23.0906 31.6915Z" fill="#FDF0EA"/>
</svg>
