<svg width="61" height="64" viewBox="0 0 61 64" fill="none" xmlns="http://www.w3.org/2000/svg">
<path fill-rule="evenodd" clip-rule="evenodd" d="M5.67228 40.7032C5.34458 40.2321 5.29693 40.1221 5.21607 40.0483C1.70725 36.8392 1.46854 36.4463 0.423336 31.8875C0.300317 31.3477 0.172246 30.7514 0.276307 30.2254C1.02393 26.4444 2.02209 22.7766 4.94892 19.9632C5.88658 19.0619 6.87735 18.4546 8.19609 18.4108C9.97476 18.3515 11.7427 17.9608 13.4068 19.1465C14.3065 19.7848 15.0346 19.3396 15.3936 18.1904C15.7613 17.0102 16.1429 15.8247 16.3671 14.6132C17.1211 10.5237 19.5858 7.48187 22.4499 4.73221C23.9349 3.30702 25.9814 2.80158 27.9197 2.25189C29.4223 1.82706 30.9729 1.48448 32.5238 1.34673C33.7281 1.23704 34.9798 1.42159 36.189 1.61032C39.2671 2.0889 42.3704 2.48547 45.2706 3.71384C46.6228 2.73324 47.8845 1.59561 49.3386 0.816838C51.5518 -0.367972 53.8943 -0.177692 56.1589 0.834196C56.6657 1.06041 57.1406 1.38828 57.5784 1.7356C58.8065 2.70126 60.1921 3.53938 60.4471 5.30827C60.7432 7.36328 60.6333 9.36481 59.6324 11.2154C58.8363 12.6901 58.0246 14.1764 57.0508 15.5323C56.1378 16.804 55.0023 17.9136 53.8519 19.2226C54.2042 21.0663 54.4535 22.9465 54.9469 24.7619C55.3312 26.166 55.2719 27.5185 54.5953 28.6838C53.1309 31.2109 51.5956 33.7411 48.3046 34.2728C46.8686 34.5062 45.4491 34.829 44.0358 35.1598C43.3926 35.3123 42.7795 35.5887 42.1987 35.7919C41.3769 37.6836 41.2808 39.5904 41.1927 41.4988C41.1156 43.2151 40.7031 44.8037 39.6576 46.2275C38.1773 48.2435 36.3887 49.339 33.7405 49.4814C30.6714 49.6481 27.9377 49.2583 25.527 47.2721C25.1868 46.9932 24.7603 46.8094 24.3532 46.6294C24.1591 46.5431 23.9167 46.5665 23.5115 46.5152C23.3046 47.079 23.0612 47.6723 22.8745 48.2847C22.4518 49.6812 21.9758 51.0697 21.6671 52.4916C20.9319 55.8693 18.739 58.3174 16.3555 60.5232C14.372 62.3576 11.8876 63.5499 9.14595 63.9309C5.95385 64.3744 3.75755 62.6233 2.03875 60.2696C0.33059 57.9266 -0.476187 55.2999 0.290942 52.3285C0.652799 50.9252 0.777951 49.4583 1.03175 48.0229C1.39567 45.968 2.31025 44.2126 3.84288 42.7651C4.48112 42.162 5.01626 41.4497 5.67228 40.7032ZM43.6183 7.91464C41.9308 6.278 39.4514 6.33619 37.2045 5.76345C34.0847 4.96749 30.9867 5.64605 27.9486 6.41463C26.4129 6.80105 25.143 7.64544 24.0233 8.86641C22.1525 10.9054 20.8105 13.1472 20.2365 15.8701C19.9358 17.295 19.5762 18.7229 19.0769 20.0895C17.7783 23.643 15.4138 24.6547 11.9476 23.2417C11.844 23.2014 11.7596 23.1179 11.6565 23.0741C9.05049 21.9413 7.67552 22.2711 6.29456 24.5922C4.5781 27.4791 3.70435 30.5399 4.86763 33.8968C5.52401 35.7913 6.48713 37.2471 8.737 37.5458C10.2515 37.7461 10.8901 39.2107 10.2488 40.5822C10.0144 41.0845 9.67858 41.5458 9.34022 41.9901C8.66037 42.8854 8.02027 43.8236 7.23515 44.6197C5.55599 46.3206 4.9386 48.4267 4.68724 50.7048C4.61233 51.374 4.66934 52.0816 4.46705 52.7056C3.79932 54.7702 4.67192 56.4658 5.71362 58.0815C6.71504 59.6351 8.08828 60.0828 9.81112 59.4119C13.2907 58.0557 16.0313 55.839 17.3813 52.2438C18.1297 50.2502 18.6653 48.1778 19.3852 46.1725C19.7198 45.2397 20.1702 44.3152 20.7418 43.5065C21.6138 42.271 22.8818 41.8485 24.3045 42.4559C25.4301 42.9359 26.5708 43.4627 27.5543 44.176C29.189 45.3693 30.9211 45.8117 32.9245 45.6199C35.8427 45.3406 37.046 44.1917 37.3342 41.1935C37.4745 39.7413 37.5657 38.2766 37.8247 36.8458C38.4851 33.2112 39.9449 31.8588 43.5593 31.2693C44.7685 31.0718 45.955 30.7299 47.1627 30.5083C48.8949 30.1917 49.7604 28.8342 50.7027 27.5963C51.5118 26.5326 50.8419 25.4428 50.6007 24.3715C50.4537 23.7358 50.3023 23.0991 50.1744 22.5497C49.7028 22.3397 49.3865 22.2221 49.0912 22.0654C47.6502 21.2949 47.3727 20.3789 48.2697 19.1438C48.7296 18.511 49.2074 17.8243 49.8337 17.3899C52.819 15.3067 54.1719 12.02 56.0105 9.10822C56.7391 7.95374 56.8674 6.5471 55.8498 5.32816C54.6805 3.92767 52.7127 3.09509 51.3782 3.7438C48.8886 4.95568 46.4923 6.35645 43.6183 7.91464Z" fill="#FDF0EA"/>
</svg>
