<svg width="33" height="62" viewBox="0 0 33 62" fill="none" xmlns="http://www.w3.org/2000/svg">
<path fill-rule="evenodd" clip-rule="evenodd" d="M12.7155 0.04416C14.0925 -0.134355 15.1375 0.224672 16.0331 1.18845C16.3099 1.48431 16.6188 1.75308 16.9317 2.01383C17.8644 2.78606 18.2565 3.75385 18.1763 4.93627C18.073 6.44462 18.3237 7.91186 18.7409 9.36806C18.9605 10.1313 19.105 10.9396 19.112 11.7289C19.1491 15.8227 19.1982 19.9165 19.1029 24.0083C19.0478 26.347 17.9687 28.2064 15.66 29.2414C15.0081 29.5332 14.3783 29.8752 13.7264 30.1641C13.2681 30.3676 13.1578 30.6625 13.3834 31.1519C15.6861 31.3796 18.1271 30.8942 20.3345 32.0264C23.0834 31.7446 25.5425 33.1667 28.2303 33.277C29.0115 33.3101 29.513 33.7745 29.861 34.4705C30.1659 35.0792 30.6202 35.6188 31.0003 36.1924C31.2169 36.5214 31.589 36.8584 31.597 37.1994C31.6341 38.8251 32.1646 40.2833 32.8416 41.7505C33.1124 42.3382 32.9629 43.1275 32.9218 43.8205C32.8757 44.6168 32.3762 45.0911 31.5639 45.2185C30.6804 45.3589 29.7918 45.4702 28.829 45.6046C29.1369 47.9423 29.3064 50.1407 30.2702 52.1435C30.902 53.4543 31.1176 54.7761 31.1326 56.1982C31.1407 56.9644 31.4285 57.7326 31.6161 58.4948C31.7093 58.8779 31.9069 59.2399 31.9701 59.6281C32.1155 60.5076 31.589 61.2668 30.6944 61.3631C29.5671 61.4854 28.4289 61.5536 27.2956 61.5536C25.0722 61.5496 24.0783 60.6671 23.8316 58.578C23.7504 57.888 23.8496 57.1268 23.5769 56.5181C23.0162 55.2615 23.0714 53.9958 23.1145 52.6961C23.1667 51.0985 23.1546 49.4988 23.1667 47.9042C23.1727 47.1491 23.1677 46.3939 23.1677 45.4512C20.9412 45.4512 18.8843 45.388 16.8334 45.4692C14.8166 45.5494 12.7476 45.1202 10.8481 45.8012C10.6546 46.7248 10.5683 47.5242 10.3156 48.2693C9.37889 51.0283 8.75509 53.8384 8.87343 56.7538C9.03289 60.6932 8.59061 60.7904 4.35339 60.6149C2.93229 60.5578 1.83812 59.5388 1.58138 58.212C1.48811 57.7266 1.55131 57.2111 1.48813 56.7187C1.10502 53.7551 2.2473 51.0283 3.00148 48.2643C3.32842 47.0618 3.38057 45.9486 3.27627 44.7742C2.87211 44.6258 2.58629 44.5405 2.31952 44.4192C0.223471 43.4614 -0.110488 42.7233 0.0269083 40.4036C0.141238 38.469 1.61148 38.6445 2.88616 38.4219C2.9704 38.4068 3.03659 38.3105 3.17198 38.2032C3.23015 37.9786 3.36354 37.6968 3.36855 37.412C3.44377 33.8186 3.53804 30.2242 3.55609 26.6309C3.59219 20.0448 3.61626 13.4538 3.56712 6.86783C3.55007 4.69557 3.96527 2.73391 5.41244 1.16639C7.85048 0.382123 10.3046 0.359069 12.7155 0.04416ZM14.9189 26.2949C15.9368 25.7644 16.4623 24.7625 16.4523 23.543C16.4192 19.5595 16.4373 15.577 16.4102 11.5925C16.4052 10.9998 16.2557 10.4111 16.1715 9.81836C15.9789 8.4444 15.7322 7.07543 15.6119 5.69645C15.5417 4.88511 15.4955 4.12292 14.8507 3.50513C14.0534 2.74294 13.3935 1.76711 11.9694 2.01282C11.167 2.44808 11.9874 3.29553 11.5672 3.84712C11.145 4.40473 10.6826 4.93827 10.2855 5.51092C9.63763 6.44863 9.37488 7.49666 9.418 8.62492C9.56142 12.5011 9.69681 16.3793 9.83521 20.2535C9.85025 20.6526 9.87432 21.0518 9.87031 21.4479C9.84825 23.0365 9.83219 24.607 10.6385 26.0903C10.9063 26.5827 10.8331 27.2456 10.9153 27.8323C12.538 27.9146 13.6853 26.9397 14.9189 26.2949ZM9.11312 38.0629C9.78205 38.1902 10.3577 38.3808 10.9394 38.3978C12.6844 38.451 14.4315 38.4209 16.1775 38.444C18.0158 38.468 19.7909 38.6385 21.6202 39.1039C24.1726 39.7527 26.8874 39.5251 29.6694 39.1991C29.7466 38.5412 29.9262 37.9625 29.86 37.412C29.6955 36.044 29.1168 35.3751 27.7088 35.3199C25.1414 35.2256 22.7063 34.1505 20.0928 34.4374C19.6084 34.4905 19.0749 34.321 18.5925 34.1666C15.1054 33.0594 11.9704 33.6802 9.11312 35.8575C9.11312 36.5916 9.11312 37.2645 9.11312 38.0629ZM7.73113 4.99243C7.74216 4.69557 7.7552 4.39672 7.75921 4.09886C7.76523 3.58437 7.69904 2.96456 7.03111 3.08391C6.63798 3.1511 6.20373 3.65358 6.02923 4.06075C5.8457 4.48899 5.92693 5.03455 5.92893 5.52797C5.95701 11.4942 5.99412 17.4604 6.0222 23.4266C6.02722 24.5258 6.05128 25.5768 6.77537 26.5506C7.09429 26.9829 7.08528 27.6749 7.12539 28.2535C7.16451 28.8112 7.07323 29.3748 7.03913 29.9364C7.43126 21.6565 7.43126 13.3225 7.73113 4.99243ZM28.5763 41.583C26.2094 41.5559 23.8416 41.6091 21.4758 41.5629C19.5322 41.5268 17.5605 41.7174 15.6811 40.9793C15.317 40.8378 14.8697 40.874 14.4585 40.8669C10.8612 40.8068 7.26279 40.7516 3.6624 40.7165C3.39864 40.7145 3.13287 40.895 2.91023 40.9722C2.75077 41.6332 3.32943 41.8588 3.55809 41.7856C4.95512 41.3313 6.18167 41.9089 7.46036 42.2419C8.2376 42.4445 9.03389 42.7073 9.82417 42.7143C15.999 42.7714 22.1748 42.7814 28.3516 42.7804C29.0045 42.7804 29.6564 42.5979 30.3113 42.5017C30.3033 42.281 30.2962 42.0584 30.2872 41.8357C29.7166 41.7475 29.1479 41.589 28.5763 41.583ZM27.09 58.7405C27.2886 58.7626 27.7679 58.8187 28.3777 58.8889C28.7578 56.9503 28.8862 55.1652 28.2493 53.3149C27.6707 51.64 27.2504 49.902 26.9095 48.164C26.7189 47.1852 26.5585 46.3026 25.3089 45.5795C25.5636 50.1307 25.0662 54.4601 27.09 58.7405ZM4.51385 53.2918C4.18791 54.8172 4.06856 56.4208 4.67932 57.8991C5.47963 58.1538 5.99813 58.0124 6.21877 57.2903C6.27794 57.1018 6.31404 56.8922 6.28997 56.7006C5.97206 54.067 7.04516 51.6049 7.30892 49.0405C7.37511 48.3836 7.90564 47.7819 8.07312 47.121C8.18444 46.6787 8.19447 46.0589 7.94776 45.731C7.70606 45.408 7.08326 45.3519 6.6099 45.1713C5.87779 47.9604 5.08951 50.604 4.51385 53.2918ZM10.7007 31.8158C10.8241 31.7877 10.8652 31.4357 10.9414 31.2291C10.6736 31.188 10.4018 31.1028 10.1401 31.1268C10.0589 31.1359 10.0067 31.4387 9.90941 31.6895C10.1862 31.7446 10.467 31.872 10.7007 31.8158Z" fill="#FDF0EA"/>
</svg>
