<svg width="81" height="77" viewBox="0 0 81 77" fill="none" xmlns="http://www.w3.org/2000/svg">
<path fill-rule="evenodd" clip-rule="evenodd" d="M17.4314 3.82339C17.2713 2.58191 17.1323 1.50857 17.0004 0.475511C18.2157 -0.208158 18.8158 -0.156785 19.0504 0.643682C19.3565 1.68983 19.2467 2.86686 20.4641 3.83749C22.7577 3.86266 24.99 4.70037 26.8376 6.257C28.1646 5.10614 28.1647 5.10614 28.5765 3.46996C29.2752 3.28772 29.9579 3.07327 30.6557 2.92928C32.0331 2.64434 33.3833 2.46813 34.7345 3.17194C35.5028 3.57167 36.2287 3.88177 36.5922 4.71547C36.8701 5.35181 37.3585 5.90962 37.8639 6.67284C39.0973 5.63475 40.5472 5.12627 41.9961 5.14439C43.2356 3.80323 44.3331 2.58795 45.4769 1.41393C45.6501 1.2337 46.0417 1.23974 46.5281 1.10684C46.8039 3.22933 44.0179 3.94018 44.3683 6.12712C44.753 6.55303 45.3017 7.23971 45.203 8.23149C44.9825 10.4094 45.6048 12.6275 44.8033 14.7913C44.6855 15.1065 44.8104 15.5817 44.9946 15.8999C46.2421 18.0455 46.0045 20.1277 44.7167 22.1546C43.9022 23.4363 43.1258 24.7624 42.123 25.9082C41.4836 26.6402 40.4626 27.0792 39.5625 27.6844C41.6961 28.6943 46.0528 28.515 50.765 27.2443C50.9392 25.5447 51.0761 23.8713 50.3794 22.0811C49.4561 19.7069 49.595 17.234 50.6885 14.8144C54.2971 14.8144 57.7427 14.7923 61.1862 14.8205C63.6299 14.8426 64.231 15.3048 65.0808 17.5934C65.1483 17.7777 65.26 17.9479 65.4372 18.2922C66.5911 18.3909 67.8487 18.4966 69.0922 18.6023C70.2571 19.9284 71.0153 21.2917 70.9418 23.0155C70.8844 24.3446 70.382 25.3474 69.066 25.9213C67.9101 26.4258 66.7492 26.9503 65.3959 26.5426C65.3124 26.5164 65.1231 26.7872 64.9187 26.9805C65.1623 27.1396 65.409 27.4397 65.6396 27.4286C67.4661 27.3481 69.2885 27.2131 71.111 27.0842C72.722 26.9685 74.33 26.7711 75.94 26.7419C77.0254 26.7198 77.5902 27.2041 77.6366 28.1858C77.7463 30.5862 77.7836 32.9916 77.7624 35.398C77.7523 36.6264 76.968 37.4481 75.7205 37.8287C75.0267 38.0421 74.2937 38.1569 73.4328 38.3502C73.6453 39.3047 73.9 40.1545 74.0057 41.0194C74.1165 41.9115 73.9524 42.8429 74.1387 43.7148C74.4921 45.3722 75.0197 46.9952 75.4546 48.6375C75.6842 49.5024 75.8383 50.3874 76.0749 51.2533C76.39 52.4072 76.7888 53.543 77.0838 54.7039C77.5771 56.6472 77.8581 58.6418 78.8347 60.4662C79.015 60.8056 79.0492 61.2556 79.015 61.6433C78.8931 63.0116 79.4046 64.1967 80.1125 65.3466C80.7699 66.4169 81.0297 67.5637 80.9975 68.8032C80.9461 70.8059 80.9844 72.8095 80.9844 74.7337C79.9735 76.4172 78.442 76.8823 76.5622 76.7615C75.3771 76.683 74.1829 76.7606 72.9979 76.6941C72.6022 76.6709 72.0131 76.5058 71.8722 76.242C71.2671 75.1143 70.229 74.1306 70.1273 72.8357C69.9631 70.7253 69.0872 68.778 68.6854 66.725C68.4931 65.7523 68.2363 64.7727 68.2152 63.793C68.1739 61.887 68.2988 59.992 67.5396 58.1504C67.3171 57.6128 67.3523 56.9653 67.3563 56.3683C67.3775 53.5389 66.7723 50.8053 66.0645 48.0706C65.692 46.6308 65.5983 45.1295 65.3426 43.4148C64.9821 43.6876 64.681 43.8659 64.4434 44.0985C62.7509 45.7659 61.2698 47.6326 58.965 48.6999C58.3176 49.002 57.8484 49.6333 57.3017 50.1176C54.4139 52.67 51.5202 55.2164 48.6456 57.7809C47.5098 58.7938 46.0246 59.404 45.2443 60.8619C44.8879 61.5285 43.6454 61.7883 42.7956 62.2343C38.8698 61.5527 35.9821 59.3003 33.2031 56.9613C31.6062 55.6201 30.1764 54.1279 28.2432 53.1493C27.6089 52.8261 26.9574 52.2794 26.6584 51.6863C25.5357 49.447 23.1011 48.1783 21.924 46.0025C20.1207 45.0902 19.3535 43.4319 18.2832 41.9337C17.4414 40.7546 15.9734 39.9572 14.894 39.0812C13.9979 39.2715 13.9455 39.787 13.9133 40.2844C13.8026 42.0696 14.0855 43.9122 12.9749 45.5443C13.3203 48.7724 11.9127 51.8363 11.9328 55.0362C11.956 58.7425 11.9549 62.4508 11.9882 66.1611C11.9982 67.3744 11.9217 68.5494 11.3941 69.6922C11.1474 70.2289 11.085 70.8441 10.9732 71.4281C10.9199 71.7231 10.9752 72.0323 10.9319 72.3283C10.5483 74.9371 9.23839 76.0255 6.44632 75.9953C5.26022 75.9802 4.06708 75.9158 2.89205 75.7708C1.82375 75.6369 1.23472 75.1314 1.2176 74.2252C1.17934 72.0342 0.877285 69.8393 1.57203 67.6604C1.93451 66.5246 2.07648 65.3023 2.13287 64.1152C2.24362 61.8135 2.2416 59.5067 2.25267 57.202C2.26174 55.0956 2.27282 53.0063 2.96958 50.9543C3.25452 50.1156 3.20821 49.1721 3.23942 48.273C3.29279 46.669 3.16995 45.056 3.34514 43.4651C3.51832 41.8984 3.96739 40.3539 4.33389 38.619C3.78816 38.4378 3.20619 38.2717 2.64637 38.0602C1.00717 37.437 -0.0198467 36.4009 0.000290831 34.66C0.0284834 32.4549 0.0224473 30.2509 0.0748049 28.0478C0.0949424 27.2172 0.635636 26.6684 1.48544 26.7147C2.54669 26.7681 3.64318 26.8718 4.64502 27.1789C6.17044 27.641 7.44415 27.7196 8.87392 26.7389C10.1355 25.877 11.7334 26.0623 13.1974 26.6503C13.6586 26.8376 14.1369 26.9825 14.6151 27.1487C14.7208 26.7822 14.8789 26.5506 14.8094 26.4348C14.2889 25.5679 13.7583 24.699 13.1612 23.8754C11.8231 22.0217 10.9682 20.019 10.9914 17.7706C11.0105 15.8848 10.8423 13.9586 11.817 12.0506C12.5037 12.0506 13.2065 12.0506 14.1147 12.0506C14.1147 9.96029 14.1147 7.87606 14.1147 5.76161C15.2354 5.10714 16.2241 4.5282 17.4314 3.82339ZM11.9741 29.8058C12.7856 32.4398 12.7645 32.4831 13.9909 33.6974C15.0169 34.7123 16.3117 35.531 17.1595 36.6516C18.6889 38.6734 21.2746 39.9199 22.064 42.4653C22.1163 42.6365 22.3157 42.8167 22.4959 42.8952C23.8351 43.4963 24.4755 44.6583 25.3263 45.6944C26.6241 47.2792 28.4043 48.5106 29.3498 50.3693C29.4343 50.5344 29.6427 50.6693 29.824 50.768C32.6734 52.37 35.1081 54.4169 37.5175 56.5415C38.8708 57.7346 40.5724 58.7556 42.6556 58.8522C44.0381 57.655 45.2322 56.2978 46.7436 55.3966C48.6898 54.2347 50.2012 52.6972 51.8545 51.2684C54.1391 49.297 56.0018 46.8936 58.8221 45.4739C59.0869 45.3389 59.2651 45.054 59.4745 44.8315C60.1733 44.0844 60.8801 43.3433 61.5617 42.5851C62.4508 41.5914 63.5564 40.6852 64.1404 39.5514C65.0828 37.7259 66.2306 36.0706 67.5819 34.5029C67.9071 34.1253 68.332 33.5856 68.2585 33.194C68.041 32.0502 68.5072 30.8308 67.9504 29.6055C64.3719 29.6055 60.9254 29.5904 57.4809 29.6095C54.0243 29.6286 50.5687 29.5914 47.1554 30.2982C46.0116 30.5368 44.7922 30.5046 43.6071 30.5177C37.3393 30.5821 31.0715 30.6405 24.8037 30.6567C23.2974 30.6587 21.7468 30.6677 20.2939 30.3596C17.6216 29.7988 14.9413 29.8753 11.9741 29.8058ZM13.8046 14.2808C12.8712 18.8732 15.0319 22.2362 17.7062 25.4068C19.3353 27.339 21.5777 28.1676 24.2137 28.1435C26.0462 28.1254 27.8878 28.0509 29.7112 28.1787C32.1972 28.3529 34.359 27.5927 36.4764 26.5506C39.4266 25.1027 41.4957 22.8896 42.8701 20.1146C43.7108 18.4171 42.7956 16.7426 40.9369 16.4315C38.0945 15.9553 35.243 15.5374 32.4056 15.043C29.3226 14.5054 26.2274 14.2194 23.087 14.2708C20.0805 14.3191 17.0739 14.2808 13.8046 14.2808ZM77.8782 73.7651C77.8782 72.5186 77.8319 71.4251 77.8893 70.3357C77.9809 68.6038 77.7181 66.9898 76.7898 65.4241C76.2924 64.5864 76.1917 63.5352 75.9551 62.5716C75.7879 61.896 75.7305 61.1952 75.5553 60.5226C75.2231 59.263 74.8052 58.0256 74.486 56.765C73.9504 54.6425 73.2415 52.5744 72.8418 50.3965C72.3232 47.5762 71.1211 44.8778 71.1311 41.9297C71.1352 40.9681 70.6317 39.9985 70.3276 39.0429C70.1142 38.3754 69.5866 38.1035 68.8435 38.1801C68.1196 38.2525 67.5708 38.6231 67.4832 39.2614C67.3614 40.1293 67.3543 41.0315 67.4409 41.9065C67.5497 42.9879 67.8074 44.0582 67.9997 45.1315C68.1216 45.8192 68.1477 46.5341 68.3763 47.1886C69.3781 50.0622 69.7275 53.0315 70.2068 56.0018C70.6851 58.9569 71.4221 61.8668 71.3355 64.8844C71.3234 65.258 71.6154 65.6325 71.7212 66.0182C72.2256 67.8466 72.8126 69.664 73.1841 71.5197C73.6553 73.8657 73.898 74.1346 76.528 74.0611C76.8341 74.0511 77.1381 73.9312 77.8782 73.7651ZM10.6671 39.1366C9.13568 39.1366 7.98282 39.1366 6.8823 39.1366C5.95698 40.8352 5.70929 42.4703 5.72942 44.1971C5.75862 46.5915 5.88449 49.0211 5.49785 51.3701C5.18672 53.258 4.95715 55.1177 4.98333 57.0187C5.01354 59.2167 4.98837 61.4157 5.02059 63.6158C5.04677 65.3194 4.97225 66.9938 4.34497 68.633C3.80125 70.0618 3.81334 71.5258 4.38726 72.9475C4.8464 73.0049 5.16557 73.0925 5.47972 73.0754C7.24578 72.9767 7.49045 72.7511 7.7623 71.1895C7.89924 70.4091 7.97173 69.5875 8.29595 68.8686C8.7722 67.8205 8.88396 66.7582 8.88295 65.6527C8.88194 61.755 8.88598 57.8544 8.91921 53.9568C8.92726 53.0627 8.82256 52.082 9.17698 51.2976C9.82944 49.8457 9.75289 48.3736 9.83344 46.8825C9.88681 45.8987 9.87576 44.8184 10.3188 43.9696C11.1374 42.3979 10.8303 40.8946 10.6671 39.1366ZM54.4039 27.4699C55.6947 27.4699 56.764 27.4095 57.8232 27.486C59.7393 27.624 61.4168 27.2917 62.6079 25.7481C62.6079 25.0624 62.5938 24.3768 62.6099 23.6891C62.6472 22.1053 62.762 20.5164 62.7267 18.9296C62.6995 17.6548 62.1176 17.1282 60.7442 17.0588C59.2459 16.9833 57.7407 16.9812 56.2394 17.0064C55.0906 17.0266 53.9004 16.7889 52.6831 17.2813C52.4495 18.411 52.2109 19.6062 52.7244 20.5254C53.5651 22.0297 53.5591 23.5682 53.6719 25.148C53.7192 25.8226 54.0766 26.4721 54.4039 27.4699ZM16.6198 12.111C19.0796 12.111 21.1115 12.1352 23.1424 12.0949C23.6267 12.0848 24.1069 11.8673 24.4966 11.7697C24.5268 10.6087 24.6104 9.63508 24.551 8.67049C24.5228 8.22243 24.3244 7.69985 24.0133 7.36657C23.4595 6.77553 22.805 6.21571 21.8294 6.29022C21.2706 6.70304 20.7148 7.11386 20.1298 7.54682C19.7663 7.28604 19.4713 7.15111 19.2921 6.93463C18.8591 6.41408 18.3607 6.09793 17.6498 6.37684C16.9027 6.66783 16.4215 7.18534 16.4456 7.97574C16.4829 9.25045 16.5513 10.5241 16.6198 12.111ZM10.498 35.7927C9.70054 34.5845 9.2394 33.5383 8.45303 32.7852C7.47938 31.8508 7.66061 30.5952 7.23067 29.6175C5.82105 29.3457 4.60978 29.1131 3.18706 28.8403C3.18706 30.4865 3.18504 31.9646 3.18806 33.4477C3.18806 34.3489 3.70963 34.8201 4.57051 35.2299C6.37684 36.0827 8.21338 36.1985 10.498 35.7927ZM75.0197 28.6731C74.1095 28.7416 73.303 28.803 72.6535 28.8534C71.8802 30.4915 71.1674 31.9132 70.5481 33.3722C70.3397 33.8635 70.3709 34.4435 70.2713 35.1302C71.4503 35.1715 72.4018 35.2289 73.3533 35.2339C73.8628 35.2349 74.3753 35.1504 75.0881 35.0849C75.2815 32.9221 75.3973 30.8882 75.0197 28.6731ZM27.33 12.0858C29.1584 12.1251 30.6486 12.7705 32.3684 12.3416C32.3684 11.3266 32.4358 10.4376 32.3513 9.55956C32.2496 8.51039 31.6635 8.29191 30.3798 8.66748C30.0082 8.77622 29.5995 8.78426 29.2048 8.81749C28.6097 8.86381 28.0126 8.89302 27.3521 8.93229C27.2746 9.476 27.1759 9.86262 27.1749 10.2483C27.1729 10.7376 27.2524 11.2249 27.33 12.0858ZM40.8493 8.29088C41.0688 9.85154 41.2712 11.3045 41.4736 12.7554C41.4987 12.9527 41.4957 13.1531 41.5299 13.3484C41.6336 13.9083 41.9961 14.2828 42.6043 14.1711C42.9557 14.1066 43.4943 13.7874 43.5205 13.5428C43.6736 12.1684 43.7209 10.7789 43.7561 9.39747C43.7763 8.61714 43.9193 7.69885 42.8409 7.3988C41.8753 7.12997 41.3094 7.79852 40.8493 8.29088ZM35.1594 12.7947C36.5429 13.1078 37.7471 13.8187 39.4246 13.5851C39.4678 12.3094 39.9129 11.0669 39.0419 9.84351C37.9847 9.76095 36.9617 9.68442 35.98 9.60891C35.2319 10.499 34.8564 11.3971 35.1594 12.7947ZM65.1855 20.8406C65.0587 22.2704 64.7395 23.5159 65.7987 24.7393C66.6968 24.2912 67.594 23.8451 68.4095 23.4394C68.3089 20.8336 68.0702 20.6312 65.1855 20.8406ZM35.1333 7.98379C35.9659 7.58809 35.9166 6.90343 35.6276 6.43725C35.1624 5.69015 34.5563 4.96217 33.8384 4.41846C32.6009 3.48206 31.6968 3.80727 30.7554 5.28537C32.2385 6.19861 33.7045 7.10177 35.1333 7.98379ZM39.4971 7.76228L39.7135 7.91432L39.785 7.69585L39.4971 7.76228Z" fill="#FDF0EA"/>
</svg>
