<svg width="123" height="131" viewBox="0 0 123 131" fill="none" xmlns="http://www.w3.org/2000/svg">
<path fill-rule="evenodd" clip-rule="evenodd" d="M0.859647 32.7262C1.03411 33.1992 1.51968 33.84 1.92854 33.8899C3.24708 34.0501 3.43079 35.0543 3.892 35.9602C5.60082 39.3154 6.46729 42.9427 7.54087 46.5183C9.04096 51.5075 10.815 56.4134 12.4842 61.3498C12.9563 62.7462 13.5774 64.099 13.9514 65.518C16.461 75.0479 20.2781 84.1911 22.3437 93.8538C22.8144 96.0604 23.5839 98.1682 24.5277 100.257C25.4452 102.285 25.9943 104.582 26.1805 106.805C26.3236 108.51 26.5835 110.159 26.9592 111.805C28.0883 116.778 29.2374 121.746 30.3698 126.717C30.6511 127.95 31.0603 129.083 32.0649 129.956C33.5045 131.21 34.0048 131.296 36.38 130.419C37.4472 128.582 37.6386 126.462 37.7022 123.79C38.5123 124.517 38.8599 124.755 39.1093 125.067C39.6027 125.686 39.9704 126.416 40.5187 126.972C41.7733 128.248 43.6254 128.685 44.7144 126.615C44.9048 126.253 45.1148 125.903 45.4639 125.284C46.4714 126.242 47.263 126.994 48.0618 127.755C51.5092 127.683 53.1582 125.975 52.5 122.75C51.914 119.884 51.4161 116.952 49.821 114.378C49.43 113.748 49.3151 112.949 48.9919 111.977C49.8096 111.758 50.4245 111.466 51.0484 111.447C53.5726 111.37 55.9713 110.702 58.3755 110.037C65.912 107.954 73.4436 105.845 80.989 103.791C83.7218 103.049 86.4945 102.461 89.2385 101.761C91.7638 101.115 94.2968 100.499 96.6209 99.2438C97.1795 98.9435 97.8686 98.8869 98.7015 98.6637C98.9131 99.4532 99.2544 100.085 99.2178 100.694C99.0356 103.729 100.223 106.472 100.923 109.32C100.95 109.43 100.995 109.535 101.03 109.642C101.478 111.009 102.415 111.961 103.647 112.626C104.914 113.308 106.05 112.7 107.294 112.171C107.638 111.055 107.992 109.908 108.303 108.904C109.183 108.45 109.525 109.09 109.982 109.326C111.778 110.26 112.976 109.177 113.432 107.785C113.675 107.047 113.679 106.232 113.808 105.455C113.894 104.945 114.008 104.439 114.152 103.724C115.554 104.31 115.709 105.631 116.527 106.337C117.291 106.997 118.025 107.693 118.679 108.288C119.917 108.384 120.921 108.239 121.592 107.327C122.421 106.194 122.88 104.885 122.58 103.496C122.197 101.727 121.593 100.007 121.167 98.2449C120.717 96.3768 120.345 94.4877 119.971 92.6004C119.554 90.4937 119.317 88.34 118.747 86.278C116.967 79.8319 115.037 73.4299 113.236 66.9895C112.719 65.1443 112.495 63.218 112.042 61.3506C111.19 57.8263 110.308 54.306 109.361 50.8057C108.501 47.6286 107.785 44.4395 107.424 41.1576C106.207 30.0609 103.299 19.3571 99.7958 8.79516C99.6182 8.25893 99.4655 7.71225 99.3262 7.16449C99.2711 6.94949 99.282 6.71809 99.2469 6.31566C99.5879 5.77482 100.084 5.14842 100.402 4.44293C100.97 3.1796 100.668 1.93357 99.744 1.01099C99.3724 0.640993 98.56 0.71555 97.9255 0.615614C97.9419 0.643874 97.9653 0.656416 97.982 0.685845C97.9478 0.717603 97.9115 0.746148 97.8759 0.777048C98.0202 1.82188 98.1626 2.86852 98.313 3.97826C97.5467 3.99527 97.0339 4.00715 96.5345 4.0179C96.4013 4.57966 96.2815 5.08382 96.1753 5.5354C93.4646 6.15376 91.0044 6.995 88.3316 6.91141C87.3806 6.88122 86.4135 7.49823 85.4494 7.80804C83.7269 8.36123 82.0346 9.1725 80.2689 9.39577C77.3222 9.76599 74.5118 10.6169 71.6478 11.2864C69.776 11.7227 67.8709 12.021 65.9817 12.3878C64.2083 12.7324 62.3905 12.9345 60.6705 13.4594C54.825 15.2454 48.7984 16.3793 43.0742 18.6225C40.1336 19.7746 36.9845 20.3924 33.9361 21.2732C30.0185 22.4058 26.0537 23.4091 22.2107 24.759C19.7369 25.629 17.2895 26.3866 14.6847 26.7254C13.4824 26.8819 12.2363 27.2546 11.1776 27.8346C8.85735 29.1042 6.32592 29.5201 3.84496 30.2087C3.44443 29.7448 2.90522 29.3958 2.92101 29.0752C2.9459 28.5965 3.25031 27.9989 3.63 27.6963C4.58076 26.9431 5.64089 26.3263 6.87444 25.5086C8.28579 26.5868 9.8726 26.0474 11.4254 25.2547C13.0176 24.4401 14.5313 23.4306 16.1906 22.7964C17.6419 22.243 19.2438 22.0599 20.7887 21.7715C21.7779 21.5881 22.816 21.62 23.7822 21.3649C30.2516 19.6678 36.7075 17.9292 43.1625 16.1782C44.0273 15.9428 44.8601 15.579 45.6952 15.2422C46.7337 14.8258 47.725 14.2614 48.7934 13.9613C52.9386 12.7928 57.1043 11.7005 61.2671 10.5926C62.0312 10.3891 62.8317 10.0453 63.5822 10.1192C65.5797 10.3109 67.3794 9.61023 69.2335 9.13602C71.0967 8.65811 72.9287 8.10573 74.899 8.11641C75.8937 8.12233 76.9054 7.79347 77.8855 7.52458C82.6961 6.21048 87.4868 4.81758 92.3107 3.55767C94.3902 3.01553 96.2894 2.23166 97.8771 0.776732C97.8693 0.719792 97.8616 0.662861 97.8539 0.60592C97.8763 0.609955 97.904 0.610083 97.9264 0.614118C97.5108 -0.0793225 96.8118 -0.153159 96.2681 0.23106C94.9139 1.18402 93.3441 1.42135 91.8197 1.82354C87.9857 2.83704 84.1443 3.83243 80.3038 4.82633C77.7875 5.47672 75.318 6.28782 72.6526 6.26C71.5499 6.24913 70.4402 6.69965 69.3398 6.96939C67.4756 7.42495 65.6584 8.03239 63.6715 7.87048C62.8036 7.79918 61.8873 8.13263 61.0139 8.35913C56.5159 9.52795 52.0229 10.7155 47.5319 11.9101C46.7678 12.1136 45.9038 12.2208 45.289 12.658C43.3739 14.0198 41.1307 14.4012 38.9576 14.9923C35.0214 16.0645 31.0796 17.1257 27.1314 18.1535C24.8428 18.7492 22.5808 19.3038 20.1588 19.4443C17.7322 19.586 15.2726 20.2463 13.0878 21.6139C10.4864 23.2401 7.64568 24.3151 4.61503 24.9062C3.17711 25.186 1.75994 25.5808 0.829825 26.9312C0.222485 27.8133 -0.205368 28.6624 0.10265 29.7651C0.371937 30.7513 0.507755 31.7784 0.859647 32.7262ZM51.9872 43.8458C52.4193 45.1211 52.929 46.3719 53.4188 47.628C54.07 49.3041 54.7134 50.9837 55.402 52.6448C55.8632 53.7566 56.3921 54.8403 56.8921 55.938C53.9461 57.1542 48.6612 58.4975 45.8286 58.6563C47.2211 52.6824 48.9201 46.8874 51.1977 40.9461C51.457 41.9137 51.6668 42.8983 51.9872 43.8458ZM66.3448 56.2326C68.1874 55.7338 70.0839 55.2257 71.9722 55.1554C73.371 55.1045 74.6341 54.8376 75.9189 54.4079C76.6587 54.1608 77.4244 53.9958 78.3334 53.7522C79.1476 54.4669 80.0238 55.1738 80.8193 55.9638C81.1532 56.2962 81.3153 56.8027 81.6834 57.4598C78.1753 58.1902 75.0006 59.0496 71.7676 59.4664C68.5058 59.8884 65.2734 60.3402 62.0956 61.193C58.3802 62.1898 54.6513 63.1362 50.9319 64.1228C49.0821 64.6134 47.1979 64.9801 45.6699 66.3249C45.0246 66.8921 44.1252 67.162 42.9582 66.6536C43.4584 65.156 43.9127 63.7963 44.4112 62.3068C45.5463 62.0026 46.6347 61.721 47.7178 61.4195C53.9263 59.6856 60.1246 57.9181 66.3448 56.2326ZM33.6389 86.6162C33.1873 85.1841 33.3121 84.0471 34.359 82.8752C35.3295 81.7877 36.1111 80.5111 36.858 79.2501C38.1846 77.0088 39.4762 74.7443 40.672 72.4313C41.3982 71.0277 42.3544 70.1073 43.9448 69.7829C45.4968 69.4649 47.0156 69.009 48.2434 67.884C48.5601 67.5945 49.031 67.4307 49.4581 67.31C51.8566 66.6321 54.2649 65.9956 56.6643 65.3213C57.6522 65.044 58.4283 65.3446 59.0759 66.0323C59.6599 68.8351 60.1554 71.6264 60.8324 74.3729C62.5084 81.1808 64.2752 87.9668 65.982 94.7677C66.1356 95.3831 66.119 96.043 66.1844 96.7085C62.9501 97.5751 59.8934 98.3828 56.8427 99.2178C55.9724 99.456 55.0237 99.6123 54.2796 100.078C51.3094 101.94 47.901 102.213 44.7625 103.123C43.4012 101.735 42.3974 100.415 41.62 98.8685C40.9172 97.4686 40.0387 96.0969 38.979 94.9533C37.4548 93.3089 35.6955 91.8832 34.296 90.6009C34.0133 88.7959 33.968 87.6618 33.6389 86.6162ZM66.7559 83.8896C65.9094 80.7164 65.0674 77.5409 64.1614 74.3849C63.3803 71.6663 62.5151 68.9715 61.68 66.2674C61.4906 65.654 60.9604 65.1093 61.4 64.2055C62.3797 63.776 63.4844 63.3582 64.7713 63.4566C64.9873 64.0378 65.1759 64.4418 65.2872 64.8665C67.1467 71.9892 69.0558 79.1 70.8172 86.2453C71.5055 89.0389 72.449 91.8057 72.5899 94.7398C71.347 95.0728 70.2669 95.3622 68.9397 95.7178C67.696 93.4848 67.4185 91.2916 67.5058 89.2042C67.5827 87.3266 67.2187 85.6262 66.7559 83.8896ZM67.789 63.0561C71.8351 61.972 75.8433 61.1541 79.6575 59.7906C82.3913 58.8132 84.5187 59.0681 86.916 60.6442C90.3065 62.8771 93.7349 65.1198 97.6377 66.4482C98.5801 66.7695 98.9575 67.6063 99.2469 68.4993C99.6568 69.7617 100.119 71.0077 100.687 72.627C100.382 73.8865 100.157 75.6015 99.543 77.1621C98.6923 79.3198 98.474 81.5365 98.5722 83.7727C98.6483 85.495 98.4501 87.1124 97.9276 88.8733C95.5363 89.5266 93.2215 90.6478 90.7321 90.6394C89.1043 90.6324 87.5926 90.8993 86.067 91.283C83.3221 91.9708 80.5946 92.728 77.8514 93.4216C77.228 93.5786 76.566 93.5915 75.975 93.6632C73.2037 83.7891 70.4806 74.1042 67.7821 64.4127C67.6716 64.0191 67.7811 63.5654 67.789 63.0561ZM72.3003 52.9406C71.0467 52.6199 69.8345 52.8191 68.614 53.1324C67.6307 53.3845 66.6306 53.5646 65.2245 53.8648C64.8976 52.8463 64.6394 52.117 64.4307 51.3756C63.5385 48.2147 62.6425 45.0536 61.7876 41.8814C61.401 40.4483 60.9383 39.0681 60.016 37.8752C59.0213 36.5899 58.5046 35.1162 58.3337 33.4055C59.4014 33.6744 59.6894 34.5853 60.2149 35.2719C61.4493 36.8847 62.5802 38.6031 63.9892 40.0473C67.706 43.8538 71.5537 47.5348 75.3353 51.2787C75.6168 51.556 75.795 51.9401 76.0729 52.3541C74.7472 53.0245 73.5615 53.2618 72.3003 52.9406ZM51.3809 30.834C51.4221 28.4764 51.5981 26.1203 51.7215 23.7646C53.0929 24.797 53.9996 25.9552 54.4398 27.3263C55.0919 29.3475 55.5605 31.4292 56.0771 33.4929C56.6257 35.6762 56.9451 37.9271 58.3303 39.831C58.7107 40.3555 58.842 41.08 59.013 41.7322C59.9875 45.4486 60.947 49.1702 61.8887 52.8954C62.0232 53.4256 62.0336 53.9891 62.1069 54.5859C61.2763 54.8084 60.5536 55.0021 59.8929 55.1791C59.6506 54.8561 59.4635 54.6965 59.389 54.4981C58.0549 50.9107 56.6296 47.3628 55.2116 43.8092C53.8324 40.3582 52.9623 36.703 51.8911 33.1318C51.6678 32.378 51.3678 31.5958 51.3809 30.834ZM106.278 52.7882C106.931 56.0043 107.595 59.2188 108.244 62.4362C108.35 62.9539 108.396 63.4814 108.486 64.1138C107.004 64.3618 105.848 64.1994 104.926 63.1759C103.03 61.0747 101.092 59.009 99.2715 56.8439C97.6704 54.9402 96.231 52.9002 94.6725 50.9586C92.5359 48.2982 90.6694 45.5025 89.3432 42.3198C88.0391 39.1864 86.4916 36.1522 85.0432 33.0801C83.3547 29.501 81.0937 26.1984 79.8861 22.385C79.837 22.2299 79.5462 22.1521 79.1992 21.93C79.4646 24.2795 79.9241 26.4113 80.9131 28.4577C83.0793 32.9433 85.1743 37.4631 87.2412 41.9954C88.4624 44.6739 89.521 47.4299 91.3669 49.774C94.3059 53.5077 97.2396 57.2452 100.161 60.9936C100.429 61.3362 100.585 61.7663 100.794 62.1549C100.098 62.1946 99.7479 61.9066 99.3816 61.6406C94.3533 57.9721 89.2778 54.3615 85.1841 49.5888C84.8171 49.1611 84.3744 48.7926 83.9394 48.4346C81.8214 46.6869 80.0952 44.607 78.5975 42.3164C78.1053 41.5619 77.488 40.8886 76.9327 40.1749C75.8258 38.7477 74.6876 37.3439 73.6257 35.8832C72.7229 34.6411 71.9751 33.2746 70.5641 32.2917C70.0906 33.556 71.0625 34.0627 71.4649 34.7723C71.9649 35.659 72.5461 36.4977 73.0983 37.3541C73.5894 38.114 74.0474 38.9003 74.592 39.6207C75.2046 40.4308 75.9532 41.1442 76.5422 41.9695C77.0655 42.7043 77.4153 43.5598 77.9084 44.3178C78.4635 45.171 79.0622 45.9999 79.6992 46.7935C80.2636 47.4985 80.8866 48.1603 81.5222 48.8035C82.157 49.4483 82.8793 50.0118 83.4897 50.6782C84.1757 51.4297 84.7452 52.2853 85.424 53.0425C86.0242 53.7129 86.6753 54.3482 87.3606 54.933C88.1342 55.5945 88.986 56.1635 89.7759 56.8107C90.4748 57.3855 91.1184 58.0304 91.8136 58.61C92.5959 59.2617 93.4206 59.8656 94.2078 60.5121C94.8482 61.0374 95.7272 61.3656 96.1911 62.8345C92.2072 60.7632 88.7089 58.892 85.6038 56.4923C82.1157 53.7972 78.895 50.7454 75.6539 47.7444C72.4116 44.7436 69.282 41.6198 66.1157 38.5371C65.4682 37.9058 64.7558 37.2995 64.2704 36.5519C61.0665 31.6136 56.9914 27.2854 54.175 22.0739C53.4909 20.8095 52.5576 19.6786 51.6351 18.335C52.3939 18.0601 52.8967 17.8375 53.4224 17.6954C60.9733 15.6533 68.5253 13.6197 76.0824 11.596C76.8453 11.3928 77.635 11.1536 78.4117 11.1564C80.6043 11.1628 82.6685 10.5683 84.7471 10.0088C87.9195 9.14999 91.0917 8.28616 94.2729 7.46014C94.897 7.29667 95.5617 7.2893 96.1838 7.21177C96.3936 7.67156 96.5836 7.96344 96.6651 8.28184C98.0861 13.8849 99.6305 19.4612 100.876 25.1037C102.756 33.6196 103.664 42.3296 105.909 50.779C106.082 51.4371 106.144 52.1209 106.278 52.7882ZM101.643 67.6676C103.91 66.872 106.233 66.1075 109.096 66.5356C109.038 67.0146 109.088 67.5359 108.952 67.5911C106.811 68.445 104.681 69.4263 102.274 68.9625C101.626 68.8372 101.354 68.4206 101.643 67.6676ZM100.711 96.0097C100.499 94.9013 100.432 93.7681 100.236 92.6567C99.8402 90.4024 99.7409 88.125 100.279 85.9156C100.627 84.48 100.764 83.046 100.992 81.6101C101.516 78.2856 102.208 74.9689 103.343 71.7233C104.229 71.6502 104.977 71.5878 105.848 71.5153C106.215 73.2024 105.25 74.5256 105.209 75.9742C105.166 77.442 104.944 78.904 104.831 80.3717C104.717 81.8375 104.615 83.3074 104.553 84.7779C104.485 86.3605 104.362 87.9529 104.465 89.5285C104.561 90.9869 104.918 92.4253 105.166 93.8732C105.676 96.8652 105.678 96.8645 106.633 97.8793C107.996 94.5575 106.26 91.384 106.525 88.2118C106.789 85.0715 106.471 81.8721 107.391 78.3474C107.945 79.6066 108.244 80.4567 108.682 81.2295C109.001 81.7907 109.555 81.882 110.296 81.2968C110.178 80.5448 110.027 79.6789 109.914 78.8077C109.798 77.9172 109.735 77.0189 109.618 76.1286C109.486 75.1207 109.29 74.1185 109.175 73.1084C109.081 72.2849 108.539 71.4294 109.152 70.5383C109.447 70.7216 109.707 70.7864 109.753 70.9271C110.784 73.9204 111.797 76.9221 112.797 79.9259C113.013 80.57 113.021 81.3412 113.391 81.866C114.959 84.0912 115.126 86.7295 115.746 89.2402C116.993 94.2811 117.759 99.4545 119.877 104.261C120.007 104.556 119.684 105.051 119.476 105.788C118.708 105.053 118.132 104.559 117.624 104.003C116.634 102.921 115.739 101.746 114.695 100.72C113.945 99.9805 112.842 100.286 112.503 101.262C112.246 102.001 112.119 102.79 111.976 103.565C111.773 104.663 111.611 105.767 111.398 107.069C109.778 106.335 108.28 105.81 106.826 107.052C106.323 108.241 105.806 109.462 105.306 110.642C103.843 110.351 103.292 109.536 102.901 108.333C101.593 104.319 101.494 100.106 100.711 96.0097ZM46.1568 105.674C48.031 104.989 49.5732 104.597 50.9441 103.879C52.5689 103.027 54.2586 102.572 56.0237 102.135C59.7483 101.215 63.4158 100.063 67.0892 98.9469C68.4886 98.523 69.8166 97.8658 71.2135 97.4375C79.5452 94.8887 88.0968 93.2401 96.5713 91.2757C96.9827 91.1805 97.4297 91.2416 97.9281 91.2273C98.1007 92.9915 98.9609 94.5853 98.248 96.4462C92.6118 98.6432 86.8717 100.682 80.9448 102.179C75.68 103.508 70.4319 104.909 65.1674 106.239C63.5235 106.655 61.8671 107.117 60.1909 107.257C58.468 107.401 56.8392 107.77 55.2759 108.435C52.9401 109.426 50.4787 109.495 47.8266 109.783C47.2769 108.43 46.7782 107.202 46.1568 105.674ZM33.0967 127.026C32.713 125.866 32.4924 124.644 32.2858 123.433C32.0975 122.332 32.1411 121.178 31.8557 120.108C31.1844 117.594 30.3553 115.123 29.6287 112.622C28.8789 110.034 27.6542 107.549 27.9286 104.731C27.9703 104.305 27.7241 103.855 27.632 103.413C26.9789 100.314 26.3217 97.2199 25.6953 94.1183C25.6189 93.7396 25.7122 93.3241 25.7534 92.1329C26.384 93.3901 26.7093 93.9433 26.9492 94.5294C28.0165 97.1399 29.0474 99.764 30.1404 102.363C30.2321 102.583 30.7131 102.794 30.9656 102.748C31.2219 102.702 31.6075 102.332 31.6086 102.102C31.6178 101.11 31.5041 100.119 31.436 99.1289C34.2862 102.522 36.9465 105.97 38.5729 110.058C39.323 111.944 40.0731 113.792 41.6722 115.313C41.9182 114.915 42.2815 114.579 42.218 114.394C41.3109 111.847 40.6377 109.161 39.3364 106.825C36.5884 101.893 33.5792 97.0957 29.6809 92.9399C29.4859 92.7323 29.4986 92.3296 29.3696 91.8482C30.2544 91.5659 31.0687 91.3063 31.9237 91.0345C34.4368 94.1578 37.6043 96.4767 39.5051 99.911C39.766 100.383 40.2823 100.717 40.6869 101.107C41.8322 102.209 42.999 103.284 42.949 105.084C42.9422 105.363 43.1676 105.806 43.4029 105.906C44.382 106.332 44.5245 107.229 44.8484 108.073C45.8182 110.6 46.6562 113.203 47.8993 115.593C49.1296 117.954 49.584 120.503 50.3405 122.979C50.6764 124.078 50.1679 124.889 49.2379 125.692C48.5674 125.157 47.9612 124.675 47.3562 124.193C45.7521 122.921 44.7103 122.945 43.2355 124.306C42.8645 124.65 42.8258 125.396 41.9142 125.274C41.2787 124.462 40.6131 123.562 39.8889 122.71C39.3823 122.113 38.8363 121.532 38.2328 121.037C37.5796 120.502 36.5719 120.794 36.2576 121.589C36.0087 122.216 35.8062 122.875 35.6903 123.539C35.4952 124.652 35.4107 125.785 35.2297 126.899C35.1405 127.457 34.9083 128.15 34.2633 128.053C33.8214 127.983 33.2405 127.465 33.0967 127.026ZM31.4454 87.1688C31.3463 87.4691 31.2843 87.8422 31.0678 88.0321C29.2253 89.6558 26.8886 89.8801 24.6014 90.1766C24.457 90.1952 24.2266 89.5463 24.0301 89.1972C25.081 88.6067 25.9067 87.9912 26.835 87.6559C28.1903 87.1659 29.6199 86.8783 31.0537 86.4941C31.3468 86.9881 31.4678 87.1026 31.4454 87.1688ZM5.983 34.1256C5.75467 33.2828 5.62708 32.413 5.42214 31.4045C6.21075 31.1379 6.82407 30.892 7.4575 30.721C10.9572 29.7719 14.4642 28.8498 17.9651 27.9005C18.9481 27.6333 20.0004 27.4606 20.8716 26.9773C23.4923 25.5218 26.3777 24.9181 29.2178 24.1546C35.0177 22.5968 40.8226 21.0576 46.6257 19.5115C47.494 19.2801 48.3618 19.0463 49.5671 18.7233C49.4142 24.9704 48.8793 30.6958 48.2878 36.4213C47.9244 39.9286 47.4065 43.3657 46.2783 46.7226C45.4147 49.2956 44.8327 51.9639 44.0309 54.5617C43.3723 56.7005 43.1843 59.0209 41.5872 60.8249C41.2723 61.1817 41.4104 61.9081 41.2454 62.4357C40.4397 65.0232 39.811 67.6952 38.7166 70.1567C37.5246 72.8352 35.8994 75.326 34.4318 77.88C34.0617 78.5228 33.5771 79.0996 32.788 80.2075C32.8996 79.2887 32.8746 78.9752 32.9806 78.7146C35.1373 73.372 37.5653 68.1187 38.3424 62.3221C38.3707 62.0998 38.4529 61.8819 38.5279 61.6697C39.569 58.7517 39.957 55.7387 39.8856 52.6516C39.8717 52.0891 39.8385 51.4966 39.9837 50.9655C40.8405 47.8608 40.4226 44.6519 40.8025 41.5105C40.8679 40.9719 40.8279 40.326 39.8853 40.4631C39.7158 42.0327 39.5689 43.6025 39.3714 45.1659C39.1456 46.9565 38.8758 48.7426 38.6203 50.5298C38.509 51.3142 38.2877 52.0954 38.2853 52.8783C38.2616 57.8364 35.9935 62.3137 35.2572 67.1187C35.1736 67.6597 34.8104 68.155 34.5968 68.6793C34.2135 69.6244 33.8533 70.576 33.4696 71.52C32.2356 74.5613 31.0059 77.6052 29.7321 80.6296C29.6173 80.9039 29.521 81.5801 28.82 81.1942C29.4288 76.9393 30.055 72.7023 30.6367 68.4585C31.0366 65.5415 31.2404 62.6381 30.8904 59.6684C30.1918 53.711 29.3281 47.7653 29.2819 41.7449C29.2664 39.6724 28.4549 37.6651 27.1154 35.8243C27.2783 37.1165 27.4117 38.1015 27.5216 39.0878C27.6443 40.2113 27.7805 41.3336 27.8513 42.4597C28.107 46.5256 28.1951 50.6076 28.611 54.6569C29.1578 59.9732 29.5864 65.2508 28.3409 70.5313C28.0306 71.8474 27.8376 73.2124 27.7765 74.5634C27.6231 77.8801 26.6125 81.0198 25.9313 84.2268C25.6175 85.7033 24.7049 86.5003 23.3021 86.841C22.0336 83.1846 20.8536 79.6476 19.5806 76.143C17.4193 70.1808 15.804 64.0447 13.4442 58.1383C10.3272 50.343 8.17458 42.2203 5.983 34.1256Z" fill="#FDF0EA"/>
</svg>
