<svg width="111" height="71" viewBox="0 0 111 71" fill="none" xmlns="http://www.w3.org/2000/svg">
<path d="M32.4865 5.79648C32.1357 5.591 30.5931 6.45 30.4237 7.04739C28.6165 13.3861 24.3486 18.1883 20.2631 22.9864C15.049 29.1107 9.26453 34.7448 3.93113 40.7728C2.27529 42.6441 1.292 45.1099 0 47.3029C2.38755 47.6267 4.83123 48.4316 7.14961 48.1629C10.8853 47.7309 12.463 49.5592 13.2789 52.6574C14.2261 56.2558 14.9908 59.9022 15.9621 63.4926C17.4165 68.8681 18.939 70.2413 24.513 70.7445C31.5704 71.3819 38.4504 71.0752 44.6939 66.8995C46.2435 65.8631 48.4907 65.4902 50.4212 65.4792C55.951 65.4461 59.0292 62.2176 58.3667 56.5635C57.7763 51.5268 57.0406 46.5061 56.3319 41.2058C57.2912 41.4975 58.524 42.3254 59.4883 42.0828C62.5715 41.306 63.4595 42.4717 64.11 45.4015C65.0903 49.8158 66.6289 54.1368 68.2797 58.3607C69.5607 61.6383 75.271 64.6693 78.8523 64.0088C86.3307 62.6286 93.777 61.0569 101.201 59.4081C103.975 58.7927 105.174 56.4693 105.422 53.8923C105.815 49.8008 106.012 45.6812 106.077 41.5696C106.139 37.5653 104.23 33.1741 109.547 30.6543C111.246 29.8494 110.1 28.1133 108.875 27.1271C98.5731 18.8288 88.3464 10.4333 77.871 2.35949C75.9616 0.888068 73.0227 0.751747 70.559 0C70.4337 2.38555 70.3074 4.7721 70.1862 7.15764C70.1761 7.36412 70.1832 7.57361 70.2082 7.77908C70.4919 10.1175 69.4785 13.2809 72.4915 14.0477C73.2733 14.2471 74.9592 10.8923 76.57 8.71025C82.9959 13.7961 89.2595 18.7536 95.524 23.7111C95.4108 24.1762 95.2985 24.6403 95.1852 25.1054C89.7747 25.9854 84.3882 27.085 78.9465 27.6884C72.5988 28.393 66.1788 28.4882 61.111 33.2814C57.1559 37.0221 56.1355 37.406 51.7964 34.3499C47.6868 31.4561 43.5182 31.2507 38.9365 31.9683C31.2326 33.1751 23.217 32.0766 15.6183 35.1878C22.7489 29.3482 30.103 24.078 37.4731 18.8298C39.4547 17.4185 40.4831 18.9801 41.5265 20.2641C42.4507 21.4008 43.2215 22.812 44.9585 21.3596C46.2455 20.2831 46.2706 19.358 45.4978 17.6921C42.7875 11.8546 37.6485 8.82552 32.4865 5.79648ZM87.7901 32.8794C87.0433 40.5152 82.4116 45.9568 81.4463 52.6584C81.8623 52.8338 82.2783 53.0092 82.6942 53.1846C84.5044 49.2034 86.2314 45.182 88.1529 41.2549C89.5973 38.303 91.3002 35.4775 92.8699 32.5868C94.0125 30.4829 95.4258 30.6953 96.7068 32.3021C97.6991 33.546 98.528 34.9703 99.1675 36.4297C99.6527 37.5373 99.8291 38.8132 99.9604 40.0341C100.3 43.1974 100.539 46.3718 100.818 49.5412C96.5975 52.2635 93.6046 57.0566 87.742 57.0165C84.8833 56.9965 82.0106 57.6119 79.166 57.4786C77.2486 57.3884 75.6128 56.5284 76.7003 53.8191C79.151 47.7159 81.2569 41.4704 83.8509 35.4314C84.3641 34.2366 86.4369 33.7134 87.7901 32.8794ZM70.8888 36.6903C74.1193 35.687 77.3699 34.7508 81.6097 33.4919C79.9499 41.2278 76.9569 47.0413 74.3679 53.0152C73.8437 52.922 73.3184 52.8278 72.7942 52.7346C71.5423 48.4316 70.3515 44.1085 69.0094 39.8336C68.409 37.9201 69.3823 37.1584 70.8888 36.6903ZM40.7638 36.9038C43.4861 34.6696 47.5806 35.8985 49.1583 39.2182C51.7242 44.6167 51.8245 50.4723 50.0764 55.9761C49.4068 58.084 46.4881 59.9183 44.1797 60.9487C41.4714 62.1585 38.312 62.359 34.3278 63.2159C38.6298 54.5719 42.4226 46.9511 46.2154 39.3294C45.9177 39.4778 45.6351 39.6351 45.3645 39.8005C44.5876 40.9652 43.8108 42.1309 43.034 43.2967C43.8108 42.1309 44.5876 40.9662 45.3645 39.8005C41.3421 42.2663 40.1513 46.6324 38.0976 50.3561C36.1069 53.9635 34.4531 57.7603 32.7231 61.507C31.7448 63.6259 30.3225 64.1301 28.2497 63.1237C26.5868 62.3158 26.0205 61.4168 27.6102 59.9183C28.5022 59.0783 29.1618 57.9968 29.9947 57.0867C30.9128 56.0844 32.2901 55.1993 32.0525 53.9785C31.9613 53.5104 31.6405 52.9952 30.955 52.4028C33.5219 46.7858 35.8554 40.9311 40.7638 36.9038ZM19.9504 41.7861C24.6162 40.3087 29.4374 39.3204 35.4073 37.8119C31.3449 46.0891 27.8076 53.2949 24.087 60.8745C20.0125 57.1268 17.183 53.2708 16.2378 48.2141C15.496 44.2498 15.9461 43.0541 19.9504 41.7861Z" fill="#FDF0EA"/>
</svg>
