<svg width="43" height="47" viewBox="0 0 43 47" fill="none" xmlns="http://www.w3.org/2000/svg">
<path fill-rule="evenodd" clip-rule="evenodd" d="M14.8892 21.3387C15.4951 20.3772 15.9619 19.8894 16.1292 19.3145C16.639 17.5576 17.6557 16.0953 18.5962 14.5739C20.6275 11.2956 22.5556 7.94917 24.672 4.72497C25.5384 3.40784 26.7043 2.25294 27.8792 1.18722C28.9439 0.220662 30.2489 -0.337213 31.8505 0.223691C32.0749 0.813643 32.2993 1.4116 32.4335 1.76017C31.7915 3.28563 31.2546 4.57471 30.7107 5.85778C30.5635 6.20333 30.4353 6.57193 30.2169 6.87241C28.8577 8.75545 28.3349 10.942 27.781 13.1425C27.3964 14.688 26.7984 16.1834 26.2495 17.6828C25.7667 19.0009 25.2259 20.295 25.2399 21.9127C26.6311 21.4209 27.6167 20.5825 28.6023 19.7572C29.034 19.3966 29.4477 19.0009 29.8082 18.5693C31.8936 16.0652 34.5499 14.3144 37.3875 12.808C38.8889 12.0097 40.5025 12.2471 42.071 12.5346C42.9153 12.6868 43.31 14.0981 42.7141 14.9134C42.2253 15.5835 41.6173 16.2525 40.9101 16.6542C39.3526 17.5416 38.5424 18.9529 37.6058 20.3922C36.0684 22.758 34.8434 25.216 33.8688 27.8652C32.6338 31.2187 31.0242 34.4278 29.7221 37.7562C28.9729 39.6773 28.5552 41.7246 27.9102 43.6898C27.204 45.8342 25.968 46.5524 23.8246 45.8042C22.7298 45.4196 21.6752 45.2803 20.5574 45.1611C19.746 45.076 18.9737 44.6714 17.9801 44.3438C17.2039 44.7866 16.2914 45.4426 15.2798 45.8332C14.7229 46.0466 13.9957 45.8142 13.3177 45.7801C12.7608 44.9698 12.2379 44.2096 11.629 43.3232C9.5436 44.5622 7.26892 44.2437 5.03532 44.2607C4.10081 44.2677 3.13021 44.0874 2.39202 44.9418C1.42346 40.8392 1.35133 36.7406 1.5186 32.643C1.62277 30.0648 0.996802 27.6219 0.510017 25.1459C0.345752 24.3196 0.184502 23.4932 0.0322565 22.6648C-0.0598921 22.164 0.0241884 21.7284 0.564059 21.515C1.0849 21.3107 1.53869 21.497 1.78508 21.9237C3.18334 24.3646 5.22861 26.3999 6.24925 29.0732C6.34641 29.3286 6.4556 29.577 6.67896 30.1149C7.33201 27.8863 7.54234 25.0197 7.02651 23.5784C6.59982 22.3834 6.48164 21.1995 6.54875 19.9766C6.66794 17.8381 6.13608 15.8579 5.11944 14.0129C4.1038 12.1679 3.67412 10.1437 3.18633 8.13745C3.11722 7.857 3.33555 7.27304 3.54188 7.20694C3.93251 7.08073 4.6647 7.06675 4.81194 7.29411C6.22421 9.46061 8.52592 10.7707 10.0574 12.7709C11.4196 14.5498 12.4773 16.5701 13.6172 18.5152C14.0408 19.2304 14.3142 20.0406 14.8892 21.3387ZM21.9165 31.8036C21.3056 30.6297 21.1253 29.5049 21.3927 28.4131C22.3162 24.6671 23.2917 20.931 24.3384 17.2161C24.8993 15.2289 25.6766 13.3018 26.2996 11.3276C26.8415 9.61483 27.3993 7.93008 28.5362 6.48776C29.2894 5.53522 29.7832 4.44147 30.0116 2.80182C28.5101 3.94166 27.5256 5.00839 26.7263 6.26542C23.7034 11.0301 20.5193 15.7007 18.2476 20.9021C18.0232 21.4129 17.6376 21.8506 17.3582 22.3424C16.9415 23.0715 16.5509 23.8147 16.1192 24.612C17.7748 26.6753 18.1825 28.8478 17.0166 31.2016C15.6013 30.9041 15.2898 30.7128 15.1185 29.9206C14.9412 29.1022 14.9663 28.2088 14.6428 27.4576C14.0178 25.9963 13.0893 24.6581 12.5093 23.1827C11.7361 21.2155 10.2227 19.5348 10.1896 17.2662C10.1886 17.0699 9.73386 16.8805 9.33021 16.563C9.01971 18.0424 9.2421 19.2344 9.41738 20.4453C9.65978 22.117 9.91018 23.7977 9.97829 25.4804C10.0805 28.0215 10.0614 30.5706 10.0284 33.1137C10.0123 34.4308 9.8791 35.746 9.7549 37.0581C9.72085 37.4217 9.58666 37.8043 9.39635 38.1148C9.27115 38.3211 8.96666 38.5174 8.73128 38.5305C8.4979 38.5465 8.08121 38.3722 8.03313 38.2009C7.62247 36.7085 6.49164 35.6478 5.77449 34.3427C5.35581 33.5805 5.0233 32.8503 4.94417 31.9809C4.91212 31.6403 4.69975 31.3188 4.46537 30.7239C3.60098 32.074 4.02666 33.309 3.95955 34.4609C3.88443 35.776 3.88247 37.1022 3.92654 38.4183C3.96961 39.6042 3.59896 40.8071 3.91547 42.1193C4.9862 42.1563 5.91072 42.1834 6.83821 42.2234C8.18438 42.2825 9.3883 42.0922 10.5221 41.1637C11.6349 40.2543 12.8459 40.6399 13.6121 41.8789C13.7554 42.1112 13.7864 42.4107 13.9116 42.6611C14.1059 43.0538 14.3363 43.4293 14.6057 43.9091C15.0605 43.6337 15.4321 43.5055 15.6675 43.2521C16.7873 42.0401 18.2246 42.0702 19.6068 42.3857C20.5984 42.611 21.5048 43.0718 22.5866 43.0638C23.5621 43.0568 24.5397 43.3582 25.6606 43.5495C25.8799 42.57 26.0542 41.6525 26.2946 40.754C26.6852 39.3017 27.0047 37.8143 27.5576 36.4231C28.8387 33.1838 30.252 29.9967 31.5831 26.7785C31.9407 25.9131 32.2822 25.0237 32.4845 24.1122C32.74 22.9713 33.1897 21.9948 34.0391 21.1674C35.27 19.9645 35.7739 18.3529 36.6102 16.6782C34.7753 17.3693 34.7823 17.3763 33.8297 18.2818C32.2642 19.7752 30.7397 21.3207 29.1041 22.735C26.574 24.9195 24.4356 27.3133 23.9969 30.9122C23.3749 31.1776 22.7178 31.4601 21.9165 31.8036Z" fill="#FDF0EA"/>
</svg>
