<svg width="81" height="62" viewBox="0 0 81 62" fill="none" xmlns="http://www.w3.org/2000/svg">
<path d="M80.8656 13.5732C80.6504 11.861 79.7423 10.6267 78.3817 9.62158C75.3624 7.39223 71.827 5.69218 68.4006 4.19518C64.9591 2.69211 61.36 1.4244 57.6953 0.587005C54.0397 -0.24837 50.1961 -0.346352 46.7556 1.32036C43.2889 3.0002 40.2625 5.6144 37.1695 7.8781C33.8492 10.3095 30.5188 12.7257 27.1763 15.1258C22.7267 18.3208 18.2509 21.4774 13.774 24.6341C13.6982 24.5916 13.6053 24.5755 13.5205 24.6472C12.9912 25.0957 12.4467 25.524 11.9043 25.9553C10.2042 27.1553 8.50314 28.3523 6.80713 29.5584C6.29096 29.9251 5.77378 30.2918 5.2576 30.6595C4.81315 30.9413 4.37173 31.2292 3.92223 31.5039C3.17675 31.9585 2.41412 32.3817 1.65955 32.8222C0.996909 33.209 0.374673 33.6737 0.127192 34.4333C-0.120289 35.1949 0.0463678 36.0041 0.181725 36.7697C0.362537 37.794 0.555472 38.8152 0.756487 39.8355C1.56156 43.9164 2.54139 47.9579 3.67475 51.961C4.20103 53.8207 4.73537 55.6874 5.35761 57.5177C5.85459 58.9784 6.54855 60.4794 7.96273 61.2562C9.41529 62.0542 11.1578 61.9289 12.7214 61.5936C14.5296 61.2057 16.3054 60.6148 18.0468 59.9986C21.7671 58.6824 25.3632 57.05 28.9764 55.4712C36.3059 52.2681 43.8636 49.6973 51.4911 47.3064C59.1913 44.8932 66.948 42.6527 74.5907 40.0597C75.5078 39.7486 76.424 39.4334 77.3301 39.091C78.1069 38.7981 78.8635 38.4364 79.2635 37.6657C79.6312 36.9576 79.6373 36.0384 79.7342 35.2657C79.8645 34.2212 79.9837 33.1757 80.0918 32.1292C80.5252 27.9422 80.7999 23.7341 80.9039 19.5269C80.9555 17.5672 81.111 15.5227 80.8656 13.5732ZM34.3018 11.5196C35.5402 11.2731 36.7665 10.9721 38.015 10.763C39.4504 10.5226 40.8969 10.359 42.3494 10.2721C43.7505 10.1883 45.1546 10.1731 46.5566 10.2276C47.7971 10.2771 49.1688 10.262 50.3588 10.659C50.9466 10.8549 51.4901 11.2176 51.684 11.8368C51.9002 12.5267 51.6376 13.2883 51.4083 13.9409C51.0679 14.9076 50.6709 15.8429 50.8173 16.8925C51.1719 19.4259 54.3952 18.7572 56.1558 18.4167C57.6902 18.1198 59.2085 17.7248 60.7236 17.345C61.5035 17.15 62.2823 16.9511 63.0631 16.7591C63.548 16.6399 66.0905 15.7803 65.941 16.8783C65.9379 16.9046 65.9521 16.9218 65.9561 16.944C63.1358 18.0167 60.3115 19.0804 57.467 20.0855C54.47 21.1441 51.4608 22.1663 48.4516 23.1855C48.4031 22.6391 47.9617 22.0572 47.6172 21.7199C46.8879 21.0047 45.9 20.7067 44.897 20.6754C43.5868 20.636 42.308 21.0138 41.0019 21.0421C39.6292 21.0714 38.4888 20.5855 37.5756 19.5592C36.8342 18.7269 36.3554 17.6783 35.4533 16.9904C34.629 16.3611 33.5947 16.149 32.5785 16.0935C30.5855 15.9854 28.5875 16.2945 26.6874 16.8955C29.235 15.1157 31.7744 13.3257 34.3018 11.5196ZM21.7469 20.3077C22.7389 20.04 23.7652 19.8592 24.7743 19.7097C25.8763 19.5471 27.0107 19.4511 28.1218 19.5703C29.1592 19.6814 30.2734 20.0006 31.036 20.7501C31.7876 21.4885 32.0553 22.5643 32.6826 23.3926C34.0472 25.1957 36.8332 24.5947 38.7383 24.229C40.0322 23.9805 41.2706 23.4674 42.5717 23.2674C43.6313 23.1047 45.0485 23.2552 45.8455 24.0714C42.707 25.1311 39.5666 26.1866 36.4311 27.2554C33.6614 28.1998 30.8552 29.0887 28.0945 30.0807C28.2198 29.0847 27.2097 28.217 26.34 27.9241C24.8379 27.419 23.1651 27.8533 21.6217 27.4715C20.9014 27.2937 20.2075 27.0038 19.5984 26.5786C19.0004 26.1604 18.5458 25.5957 17.9994 25.1189C17.2357 24.4533 16.4488 24.3048 15.6185 24.4815C17.668 23.1007 19.7105 21.7087 21.7469 20.3077ZM1.3454 34.6121C1.69288 33.9464 2.62523 33.5818 3.23029 33.204C3.96061 32.7484 4.68285 32.2777 5.39802 31.7979C5.78288 31.6747 6.2132 31.6918 6.55362 31.9221C7.06474 32.2676 7.27988 32.9212 7.58695 33.4292C7.90615 33.9585 8.33144 34.3363 8.90923 34.5616C9.07994 34.6283 9.25368 34.6798 9.43045 34.7242C8.64962 34.8606 7.86779 34.999 7.08898 35.1465C6.09098 35.3354 5.07882 35.4758 4.17476 35.9657C3.97071 36.0768 4.06767 36.395 4.29091 36.396C5.24346 36.399 6.13542 36.099 7.04555 35.8475C8.03547 35.5737 9.02741 35.3101 10.0224 35.0566C10.181 35.0162 10.3618 34.9303 10.5214 34.9848C10.5547 34.996 10.584 35.0162 10.6194 35.0202C10.7224 35.0323 10.8527 34.9778 10.9507 34.9525C11.1214 34.9071 11.2931 34.8576 11.4568 34.7949C11.5719 34.7505 11.6598 34.6626 11.7749 34.6212C12.1295 34.4949 12.5376 34.4464 12.9083 34.3818C13.9285 34.203 14.9286 34.0575 15.9326 33.7949C16.0347 33.7686 16.0175 33.5959 15.9074 33.605C14.8972 33.6939 13.9406 33.8919 12.9507 34.105C12.3406 34.2363 11.7234 34.3394 11.1062 34.4394C10.8699 33.5616 10.28 32.8777 9.5163 32.3524C9.0678 32.0433 8.59911 31.7646 8.15364 31.4504C7.91525 31.2827 7.68495 31.106 7.47182 30.9059C7.35363 30.7948 7.24756 30.6746 7.13948 30.5554C8.05263 29.8817 8.95064 29.1897 9.82339 28.4665C10.0487 28.2796 10.2678 28.0877 10.4911 27.8998C11.2739 27.3857 12.0507 26.8614 12.8295 26.3412C12.7133 26.4392 12.7467 26.6422 12.9214 26.6442C13.5578 26.6533 14.076 26.426 14.7326 26.5907C15.368 26.7503 15.9478 27.0998 16.374 27.5978C16.7791 28.0705 17.0619 28.62 17.5569 29.013C17.9892 29.3554 18.5044 29.5766 19.0418 29.6928C21.3045 30.1807 24.948 28.315 26.5329 30.6665C25.8763 30.915 25.2177 31.1575 24.5692 31.4252C24.2571 31.5544 24.3652 32.0191 24.7116 31.9433C28.3632 31.1433 31.9462 29.9423 35.5038 28.7968C38.9898 27.6746 42.4585 26.4917 45.9071 25.2593C52.8911 22.7653 59.8226 20.1006 66.739 17.4268C67.5622 17.1086 68.3885 16.7935 69.2118 16.4743C69.3087 16.4753 69.4027 16.4409 69.4683 16.3753C70.5128 15.9702 71.5532 15.5591 72.5846 15.1247C74.521 14.3076 76.4261 13.4287 78.3716 12.6328C78.5584 12.556 78.4786 12.2489 78.2867 12.3257C75.3664 13.4863 72.3997 14.5318 69.4521 15.6258C69.1814 14.8167 68.4218 14.3025 67.5481 14.1682C66.0642 13.9389 64.4197 14.3025 62.9348 14.4348C61.3964 14.5722 59.8489 14.6783 58.3044 14.5975C57.5084 14.556 56.7145 14.4631 55.9346 14.2954C55.5033 14.2025 55.0164 14.1843 55.2043 13.6015C55.3195 13.2439 55.7417 12.7994 55.97 12.5216C56.8458 11.457 60.6711 8.34377 57.8387 7.34172C57.3003 7.15081 56.7023 7.14475 56.1397 7.10333C55.3538 7.04676 54.5669 7.0003 53.78 6.96595C52.1194 6.89322 50.4537 6.86494 48.792 6.90231C45.7738 6.96999 42.6828 7.14171 39.6847 7.65587C40.1999 7.28313 40.7181 6.91545 41.2312 6.5417C44.0454 4.49518 46.8536 2.42341 50.2204 1.385C53.8417 0.267805 58.0074 1.53652 61.4984 2.58907C64.9985 3.64466 68.3935 5.06489 71.627 6.76797C73.2624 7.62961 74.8594 8.56498 76.4089 9.5741C77.6796 10.4014 78.9898 11.2812 79.4989 12.7479C79.215 12.6651 78.8645 12.759 78.81 13.0954C78.416 15.5237 76.1543 16.9187 74.1805 18.0268C73.133 18.6157 72.0694 19.1915 71.1128 19.9228C70.1633 20.6481 69.4017 21.5562 68.6552 22.4805C67.2279 24.2482 65.2086 26.7755 62.6096 26.0998C61.5459 25.823 60.6338 25.1502 59.5155 25.0513C58.5953 24.9694 57.7488 25.3795 57.1589 26.0735C55.7205 27.7655 55.6165 30.3251 55.2225 32.407C54.7983 34.6505 54.2588 37.3132 52.2739 38.7304C51.383 39.3668 50.287 39.5769 49.3587 38.888C48.4425 38.2071 47.8951 37.0404 47.5425 35.9869C47.1698 34.8727 46.9688 33.709 46.7516 32.5575C46.5586 31.5353 46.4395 30.3797 45.9122 29.4615C45.4566 28.6675 44.6414 28.214 43.7303 28.4917C42.7181 28.7998 41.9757 29.7201 41.4414 30.5827C40.8474 31.5423 40.4272 32.6383 39.6504 33.4747C38.9706 34.206 37.613 34.797 36.8069 33.8979C36.3321 33.3676 36.0947 32.3201 35.226 32.2807C34.4785 32.2474 33.9078 33.8161 33.6805 34.3788C32.9229 36.2475 32.4219 39.2455 30.0633 39.7637C27.9188 40.2345 26.645 37.6566 25.741 36.1717C25.2783 35.4121 24.5783 34.7141 23.6157 35.0293C22.6197 35.3545 22.051 36.4384 21.659 37.3324C20.6954 39.5314 20.5711 41.9284 20.2408 44.274C20.0853 45.3851 19.9418 46.6377 19.462 47.6629C18.8408 48.9923 17.4327 48.073 16.6862 47.367C15.1387 45.9033 14.374 43.8164 13.8487 41.8002C13.577 40.7557 13.4164 39.6839 13.1406 38.6415C12.9295 37.8415 12.5457 36.9808 11.7174 36.6697C9.83552 35.9626 7.96575 38.1556 6.55056 39.0334C5.7465 39.5324 4.80105 39.8476 3.91113 39.3587C3.13434 38.9324 2.69188 38.0799 2.31813 37.3132C1.95651 36.5707 1.62723 35.8212 1.20298 35.1141C1.22823 34.9333 1.26661 34.7616 1.3454 34.6121ZM34.1634 41.3749C38.3776 40.1274 42.5505 38.7455 46.6778 37.2344C47.1607 38.4284 47.895 39.5708 48.9496 40.2011C44.3283 41.5325 39.6322 42.5588 34.9775 43.7679C32.5381 44.4012 30.1188 45.1124 27.7036 45.8346C25.3955 46.5245 23.0964 47.3649 20.759 47.9549C21.1903 46.8892 21.3196 45.5609 21.4318 44.6608C21.4328 44.6497 21.4338 44.6386 21.4358 44.6265C25.7339 43.8406 29.9794 42.6133 34.1634 41.3749ZM21.4893 44.1608C21.7348 41.9183 21.7984 39.5799 22.7035 37.4869C22.9247 36.9758 23.1843 36.3818 23.6267 36.0222C24.3833 35.4081 24.8288 36.2556 25.148 36.8334C25.6339 37.7132 26.1339 38.595 26.7935 39.3587C28.2541 41.0486 30.529 41.3658 32.1532 39.6951C33.9331 37.8657 33.9866 35.1555 35.2796 33.0494C35.5988 33.2494 35.7462 33.6909 35.923 34.0111C36.1321 34.3909 36.3947 34.7222 36.7756 34.9424C37.6008 35.4192 38.6867 35.3182 39.507 34.8869C40.505 34.3616 41.1191 33.3525 41.6252 32.3848C42.1727 31.3373 42.7696 29.8514 43.9899 29.4302C45.2889 28.9817 45.4445 31.4161 45.5647 32.1969C45.7556 33.4363 45.9031 34.6848 46.2263 35.898C46.29 36.1364 46.3657 36.3818 46.4485 36.6283C42.3404 38.1314 38.1898 39.5183 33.9967 40.7688C29.8542 42.0072 25.651 43.0012 21.4893 44.1608ZM79.1877 28.5453C79.1625 28.5544 79.1393 28.5523 79.113 28.5655C74.4493 30.8635 69.5703 32.7888 64.7399 34.703C61.361 36.0424 57.9508 37.3091 54.5053 38.4657C54.9104 37.9182 55.2498 37.3273 55.4902 36.7465C55.869 35.8333 56.1215 34.8879 56.3175 33.9293C60.3125 32.8535 64.2369 31.512 68.1148 30.0766C70.1219 29.3342 72.1189 28.5625 74.0967 27.7453C75.0745 27.3412 76.0493 26.9281 77.02 26.5079C77.8069 26.1674 78.7211 25.8695 79.4615 25.3957C79.3918 26.4483 79.2827 27.4958 79.1877 28.5453ZM3.61818 47.067C3.52121 46.6639 3.42019 46.2619 3.32524 45.8588C2.88785 44.0043 2.47372 42.1426 2.09088 40.2759C1.91916 39.4375 1.7555 38.5971 1.59691 37.7556C1.95046 38.5577 2.37673 39.3112 3.04746 39.8658C4.55659 41.1133 6.32935 40.3941 7.69201 39.3375C8.48193 38.7253 9.23045 38.0122 10.1416 37.5788C11.6638 36.8546 12.1073 38.2283 12.2891 39.4314C12.6073 41.5406 13.0033 43.6972 13.9296 45.6356L13.9316 45.6396C13.8053 45.6679 13.679 45.6982 13.5517 45.7235C13.1224 45.8083 12.6922 45.8902 12.2618 45.9689C11.2941 46.1467 10.3214 46.2993 9.34762 46.4427C7.44959 46.7225 5.53237 46.9094 3.61818 47.067ZM9.31429 47.1306C10.2891 46.9983 11.2588 46.8336 12.2255 46.6488C12.7265 46.5528 13.2255 46.4498 13.7235 46.3387C13.8972 46.2993 14.071 46.2679 14.2387 46.2255C14.7922 47.2255 15.5801 48.2872 16.5468 48.967C15.0962 49.3034 13.6417 49.6246 12.182 49.9034C10.7416 50.1781 9.29205 50.4074 7.83545 50.5711C6.75461 50.6923 5.67074 50.7772 4.59092 50.9024C4.3 49.8024 4.01616 48.7003 3.74747 47.5953C5.61216 47.5437 7.46374 47.3811 9.31429 47.1306ZM78.2029 36.7627C77.9433 37.6031 77.02 37.7799 76.2776 38.0384C75.3553 38.3597 74.4341 38.6859 73.5118 39.0062C71.6653 39.6466 69.8128 40.2678 67.9551 40.8749C64.3197 42.0638 60.6661 43.1921 57.0145 44.3285C49.7163 46.5993 42.4373 48.9246 35.3079 51.6883C28.342 54.3884 21.6328 57.8581 14.4134 59.8632C12.8295 60.3026 11.0315 60.8521 9.37995 60.4845C7.67385 60.1057 6.90916 58.6642 6.40713 57.1228C6.05459 56.0419 5.72733 54.953 5.41217 53.859C6.71119 54.7076 8.68496 54.2358 9.99408 53.554C11.2487 52.9004 12.5224 52.0459 14.0013 52.1681C15.4235 52.2853 16.7094 52.9065 18.1589 52.5974C20.5832 52.0792 22.2459 49.8064 24.8298 49.8004C26.2309 49.7973 27.6481 50.1792 29.0077 49.661C30.1391 49.2286 30.9583 48.3438 31.9462 47.6841C33.2896 46.7872 34.7614 46.9397 36.3008 46.9427C37.6453 46.9457 38.8554 46.6629 40.0817 46.1195C41.3565 45.5558 42.5454 44.7891 43.9121 44.4538C45.3657 44.0972 46.8758 44.3295 48.3466 44.1174C49.6395 43.9315 50.6537 43.3315 51.6608 42.5305C52.1891 42.1103 52.7103 41.6719 53.3083 41.3537C54.079 40.9446 54.9154 40.8153 55.7781 40.786C57.1569 40.7405 58.5337 40.8224 59.8549 40.3466C61.0338 39.9223 62.0944 39.2294 63.155 38.5738C63.8066 38.1718 64.4763 37.8001 65.2116 37.5738C66.0076 37.3283 66.8268 37.2859 67.6511 37.2152C69.1542 37.0849 70.3229 36.7334 71.5199 35.802C72.1381 35.3212 72.7421 34.8475 73.5391 34.7161C74.3513 34.5828 75.1745 34.6535 75.9867 34.4737C76.9897 34.2505 77.914 33.7777 78.719 33.1474C78.6968 33.3303 78.6776 33.5131 78.6544 33.6959C78.5251 34.6929 78.4989 35.8051 78.2029 36.7627ZM79.7898 15.8429C79.7878 16.8955 79.7746 17.9491 79.7504 19.0016C79.7069 20.9087 79.6221 22.8148 79.5059 24.7199C78.5342 24.9048 77.5645 25.5088 76.6655 25.9018C75.6725 26.3361 74.6765 26.7614 73.6765 27.1786C71.6987 28.0028 69.7128 28.8079 67.7107 29.5726C63.9722 31.0009 60.1782 32.2686 56.3892 33.5565C56.6821 32.012 56.8508 30.4362 57.164 28.8988C57.3559 27.9554 57.665 26.7786 58.5377 26.2321C59.6448 25.5391 60.9135 26.4907 61.959 26.8755C64.3369 27.7513 66.6814 26.3614 68.2228 24.5937C69.1855 23.4886 69.9905 22.2471 71.0461 21.2229C72.128 20.1744 73.4674 19.5279 74.7947 18.8521C76.9786 17.7389 79.1362 16.2702 79.7352 13.8085C79.811 14.4813 79.7918 15.1692 79.7898 15.8429Z" fill="#FDF0EA"/>
</svg>
