<svg width="14" height="6" viewBox="0 0 14 6" fill="none" xmlns="http://www.w3.org/2000/svg">
<path d="M13.0125 0.571201C11.8653 -0.0399582 10.3374 0.090714 9.03794 0.150389C8.31566 0.0896851 7.59338 0.041324 6.86904 0.0279485C5.41626 0.00119739 3.81736 -0.0944854 2.41087 0.335589C1.31716 0.669978 0.408666 1.40769 0.0886817 2.53741C-0.217927 3.61671 0.293434 4.64868 1.26882 5.17033C2.56213 5.86174 4.25363 5.59629 5.656 5.5253C7.31765 5.4399 8.97417 5.28145 10.6235 5.06744C11.2655 4.9841 12.0073 4.97073 12.6174 4.74643C13.1833 4.5386 13.5167 4.06428 13.7348 3.52514C14.1711 2.44275 14.1587 1.18236 13.0125 0.571201ZM12.5074 3.69491C12.1215 4.15893 11.0381 4.11984 10.499 4.18878C8.06771 4.50053 5.52637 4.82462 3.07144 4.75774C1.99729 4.72893 0.507443 4.19186 0.838745 2.8327C1.10728 1.73282 2.2514 1.23072 3.26383 1.0589C3.49635 1.0198 3.733 0.997167 3.96861 0.972474C4.50569 0.950867 5.04278 0.912795 5.57986 0.878842C6.1797 0.868553 6.77852 0.872665 7.36807 0.870607C7.99981 0.867521 8.63051 0.877811 9.26122 0.896331C9.7129 0.922053 10.1646 0.947776 10.6152 0.980701C11.4692 1.0414 13.0331 1.07948 12.9786 2.27813C12.9611 2.68351 12.7759 3.37389 12.5074 3.69491Z" fill="#FDF0EA"/>
</svg>
