<svg width="20" height="32" viewBox="0 0 20 32" fill="none" xmlns="http://www.w3.org/2000/svg">
<path d="M12.7965 2.3359C12.5393 2.17554 12.2993 2.26228 12.147 2.43676C11.7748 2.57292 11.4037 2.70808 11.0375 2.83113C10.039 3.168 9.03349 3.4383 8.02287 3.66927C8.03195 3.47965 7.73238 3.36366 7.63757 3.56034C7.60328 3.63195 7.57605 3.70659 7.54277 3.7792C7.101 3.87401 6.65824 3.96176 6.21345 4.04144C6.58562 4.04245 6.95677 4.04548 7.32894 4.03438C7.36323 4.03337 7.39854 4.03236 7.43384 4.03135C5.8806 7.50899 5.3985 11.3285 5.55282 15.1209C5.71621 19.1381 6.39195 23.3863 7.94922 27.111C8.25785 27.8483 8.61187 28.5947 9.03649 29.2936C9.02035 29.2815 9.00221 29.2684 8.98708 29.2573C8.19534 28.6986 7.44796 28.0823 6.74699 27.4136C3.88459 24.6803 1.63947 20.9768 1.05751 17.02C0.326278 12.0467 3.30666 7.64818 6.07626 3.81854C6.14485 3.72373 6.15798 3.63195 6.14487 3.54824C7.71122 3.15791 9.25638 2.67076 10.739 2.12208C11.3976 1.878 12.0371 1.61073 12.6654 1.32529C12.7118 0.992457 12.727 0.653568 12.6947 0.317706C12.6846 0.211804 12.6543 0.105903 12.6402 0C11.9402 0.316699 11.2322 0.615243 10.508 0.875461C8.57759 1.57038 6.5967 2.04039 4.57648 2.34196C4.51798 2.75346 4.4494 3.21943 4.6249 3.56437C4.68844 3.69045 4.7782 3.77517 4.87603 3.84375C4.93352 3.83165 4.99103 3.81552 5.04852 3.80341C2.41508 7.30425 -0.187091 11.3104 0.0105933 15.8602C0.201218 20.2496 2.57443 24.6359 5.54777 27.7767C6.26993 28.5392 7.05056 29.2432 7.87962 29.8877C8.66935 30.5019 9.60534 31.3048 10.6069 31.5095C10.7491 31.5388 10.8873 31.5519 11.0224 31.5549C11.206 31.6901 11.3946 31.8192 11.5963 31.9331C11.8828 32.0945 12.2781 31.9533 12.3608 31.6225C12.4082 31.4329 12.4476 31.2422 12.4929 31.0516C13.6377 30.2326 14.4658 28.5997 15.0669 27.58C16.3004 25.4862 17.3473 23.2743 18.1582 20.9838C18.9782 18.6681 19.6883 16.1829 19.6278 13.7048C19.5128 9.04004 16.6978 4.76561 12.7965 2.3359ZM7.1948 21.3025C6.41314 17.6111 6.03896 13.7885 6.47366 10.0264C6.70967 7.97799 7.19681 5.94869 7.92401 4.01723C8.64919 3.99303 9.37943 3.95066 10.0875 3.80845C10.1399 3.79736 10.1923 3.78021 10.2448 3.7671C10.2559 3.80744 10.266 3.84779 10.2932 3.89015C11.5065 5.73891 12.1016 7.86301 12.4546 10.0264C12.8339 12.3452 12.9862 14.7043 13.0134 17.0523C13.0648 21.4901 12.5605 25.8624 11.6165 30.1842C11.6114 30.1873 11.6064 30.1913 11.6013 30.1943C11.448 30.276 11.2927 30.3073 11.1364 30.3174C10.1157 29.3864 9.42785 28.0894 8.87514 26.8428C8.09146 25.0767 7.59421 23.1906 7.1948 21.3025ZM17.7316 18.896C17.1113 21 16.2923 23.0404 15.2837 24.9879C14.7865 25.9471 14.2267 26.877 13.6347 27.7797C13.4279 28.0954 13.2131 28.4515 12.9771 28.7984C13.7325 24.8568 14.0412 20.8073 13.9181 16.8133C13.8445 14.436 13.6437 12.0426 13.2575 9.69462C12.8984 7.51303 12.2741 5.36169 11.0638 3.49276C11.4138 3.32937 11.7375 3.11454 11.9987 2.8281C11.9967 2.99653 12.0623 3.16699 12.2448 3.28297C15.4159 5.29916 17.8264 8.59525 18.4336 12.3392C18.7916 14.553 18.3579 16.7709 17.7316 18.896Z" fill="#FDF0EA"/>
</svg>
