<svg width="20" height="23" viewBox="0 0 20 23" fill="none" xmlns="http://www.w3.org/2000/svg">
<path fill-rule="evenodd" clip-rule="evenodd" d="M3.41219 23.0001C1.9795 22.6528 2.67813 21.127 3.72809 20.7615C2.26807 17.0851 0.872838 13.3247 0.274451 9.39921C-1.77788 0.403156 8.33091 -4.41634 9.02447 5.52033C10.9685 4.20306 13.2648 2.97794 15.6766 3.07818C19.7387 3.6229 20.5052 8.54871 18.222 11.4161C14.6843 16.6264 8.76223 20.0639 3.41219 23.0001ZM4.8388 18.3274C4.98561 18.7152 5.13648 19.102 5.29038 19.4878C5.3167 19.5546 5.34403 19.6214 5.37036 19.6882C24.3294 9.2362 17.8059 -0.657946 8.23168 8.9041C7.53812 9.84572 6.02646 8.8312 6.63598 7.82781C7.36802 6.19364 7.28399 3.95703 6.23099 2.4808C4.92486 1.27796 3.23601 2.52333 2.62851 3.84869C0.896123 8.62971 3.35144 13.7752 4.8388 18.3274Z" fill="#FDF0EA"/>
</svg>
