<svg width="4" height="2" viewBox="0 0 4 2" fill="none" xmlns="http://www.w3.org/2000/svg">
<path d="M3.60538 0.171143C3.40786 0.0607985 3.17613 0.0453425 2.95765 0.0166529C2.62661 -0.0263816 2.29115 0.0221747 1.96122 0.069623C1.67101 0.110451 1.39293 0.191006 1.11817 0.293626C0.773897 0.421626 0.552133 0.525347 0.23765 0.666589C0.0147538 0.767003 -0.0492537 1.07597 0.0368153 1.28011C0.126195 1.49086 0.384395 1.64645 0.616119 1.56479C0.75405 1.51624 0.891994 1.4699 1.03655 1.44232C1.10827 1.42797 1.18109 1.41693 1.25392 1.40479C1.26605 1.40259 1.26496 1.40369 1.27378 1.40149C1.30799 1.39707 1.34217 1.39376 1.37528 1.39045C1.66217 1.36176 1.95571 1.34962 2.24371 1.34631C2.53613 1.343 2.82852 1.36397 3.12093 1.36066C3.33611 1.35845 3.53693 1.32755 3.72011 1.20617C3.9088 1.08038 4.02579 0.915967 3.99489 0.68314C3.9673 0.475692 3.78634 0.271557 3.60538 0.171143Z" fill="#FDF0EA"/>
</svg>
