<svg width="18" height="18" viewBox="0 0 18 18" fill="none" xmlns="http://www.w3.org/2000/svg">
<path fill-rule="evenodd" clip-rule="evenodd" d="M3.40397 17.5037C3.2976 17.3222 3.25275 17.1095 3.27361 16.9009C1.57678 12.5707 -0.784386 7.76495 0.255402 3.03115C1.67377 -1.468 5.86213 1.90271 6.9186 4.77491C16.0754 -6.71596 23.3018 5.20459 12.7621 12.6062C10.2653 14.6002 7.40668 16.078 4.76289 17.8593C4.31444 18.1576 3.66679 17.9543 3.40397 17.5037ZM4.80356 15.47C8.95855 12.5373 17.6617 8.87565 15.6343 2.59938C15.6509 2.61919 15.6687 2.63901 15.6854 2.65778C15.6875 2.66091 15.6895 2.66404 15.7177 2.69428C13.5432 0.577161 10.5626 3.73512 9.01904 5.30679C8.02409 6.08481 8.04286 7.87028 6.81952 8.24886C6.02169 8.37297 5.6598 7.59495 5.57011 6.92749C4.90473 4.06676 1.65917 0.300787 1.94597 5.80843C2.36836 9.15098 3.51556 12.3726 4.80356 15.47Z" fill="#FDF0EA"/>
</svg>
