<svg width="55" height="54" viewBox="0 0 55 54" fill="none" xmlns="http://www.w3.org/2000/svg">
<path d="M32.2833 37.2004C35.0854 34.3054 38.2232 31.7163 41.0546 28.8533C42.0998 27.7964 43.6123 26.3449 43.5246 25.2074C43.4419 24.1132 42.2279 24.0168 41.0602 24.1372C41.038 24.1402 41.0197 24.1584 40.9981 24.1648C38.3447 23.5544 36.2711 22.2944 34.4619 20.7565C34.9137 20.28 35.3388 19.7959 35.7776 19.3146C39.4939 18.2617 43.4509 15.5554 46.2994 12.282C47.8155 10.5397 48.9947 8.67619 50.1568 6.84564C51.3807 4.91791 52.7871 2.55179 54.6749 0.868291C55.2137 0.388145 55.0442 -0.160029 54.4468 0.0436709C53.1278 0.493006 51.7914 1.05474 50.4678 1.50928C49.2606 1.92325 48.0502 2.33605 46.8329 2.8444C44.4808 3.82821 42.0085 5.20158 40.0158 7.17059C38.1281 9.03488 36.9853 11.1593 36.1421 13.1989C35.2488 15.3601 34.5258 17.5816 34.2702 19.5974C34.0997 19.7814 33.9337 19.9682 33.7619 20.1534C31.942 18.4726 30.3785 16.5285 28.7558 14.7005C28.0233 13.8755 27.0464 13.2113 25.3156 13.8681C23.5161 14.5502 21.7508 16.1551 20.2425 17.5132C19.3701 18.2984 18.508 19.1012 17.5828 19.8268C16.6268 20.5771 15.6539 21.1241 14.6422 21.7157C13.0628 22.639 11.5659 23.7076 10.6047 25.2412C9.77296 26.5688 9.79957 27.8254 10.9627 28.0824C11.3748 28.1729 11.8383 28.1327 12.3224 28.0132C10.5351 29.3263 8.74729 30.6414 6.94189 31.9225C5.41097 33.0094 3.86383 34.0558 2.31928 35.1133C1.28631 35.8206 0.216947 36.6604 0.0370747 37.7025C-0.152111 38.7947 0.430949 39.7648 0.758979 40.5799C1.16221 41.5849 1.66888 42.5259 2.22605 43.4203C3.35667 45.2308 4.72643 46.8691 6.15848 48.4322C7.61724 50.0241 9.23125 51.5017 11.1384 52.6663C12.7182 53.6304 14.493 54.5322 17.3169 52.3488C22.9715 47.9736 27.4221 42.2224 32.2833 37.2004ZM31.3482 36.5695C30.8288 37.1098 30.3127 37.6539 29.8011 38.2007C29.7313 38.1608 29.6425 38.1357 29.5163 38.1489C27.0666 38.4062 24.5506 38.9308 22.2971 38.7526C19.8913 38.5621 18.3836 37.5687 17.3283 35.9003C16.353 34.3583 15.2901 33.0131 13.3839 32.352C11.9914 31.8695 10.333 31.7826 8.52377 32.0386C9.44948 31.3561 10.3785 30.6722 11.3029 29.9617C13.6805 29.5794 15.9255 29.58 17.875 30.0025C20.0648 30.4776 21.565 31.5869 22.9907 32.9033C24.2893 34.1042 25.9079 34.7899 28.2205 34.6896C29.2918 34.6442 30.4178 34.4771 31.5689 34.2282C32.4584 34.0371 33.5276 33.8324 34.5151 33.4434C33.438 34.4654 32.3784 35.5002 31.3482 36.5695ZM39.3957 14.9325C40.034 14.0037 40.8437 12.8176 40.8786 11.9418C40.8872 11.7154 40.576 11.7361 40.3648 11.9678C39.5738 12.8385 39.073 13.8792 38.3916 14.7943C37.6538 15.7862 36.831 16.7656 35.992 17.7179C35.9159 17.8035 35.8339 17.8874 35.7578 17.973C36.0568 15.8703 38.1586 13.0894 39.944 11.1362C41.8908 9.00672 44.2149 7.19782 46.6631 5.80126C45.3785 7.71046 44.6864 9.69202 43.3266 11.6055C41.8624 13.6668 39.9153 15.5379 37.7653 17.0607C38.3427 16.363 38.8966 15.6589 39.3957 14.9325ZM22.7102 16.7879C23.4362 16.2099 24.263 15.5941 25.0672 15.2811C25.9278 14.9469 26.4682 15.1677 26.8924 15.5436C27.7135 16.2738 28.3648 17.1808 29.1098 17.9807C30.2176 19.169 31.3627 20.3348 32.6403 21.37C32.0054 22.061 31.3882 22.7594 30.7944 23.4696C30.5531 23.3149 30.3203 23.1491 30.1 22.9635C28.4738 21.6018 27.1446 19.7641 26.6951 17.5139C26.6765 17.4202 26.4637 17.5225 26.4686 17.6266C26.6071 20.2511 27.3248 22.4272 29.0699 23.9693C30.6907 25.4016 33.0094 26.6348 35.9796 26.2771C36.3595 26.2312 36.7406 25.618 36.4298 25.5249C34.6721 24.994 32.8879 24.6018 31.388 23.8117C32.054 23.1894 32.7071 22.5518 33.3503 21.9C33.559 22.0559 33.7597 22.2185 33.9769 22.3659C35.971 23.7208 38.3573 24.6962 41.1198 25.1006C41.3463 25.1952 41.559 25.3054 41.7088 25.4663C42.0689 25.8517 41.7721 26.2879 41.242 26.8953C40.3151 27.9563 39.287 28.9592 38.244 29.9417C38.3553 29.6797 38.2921 29.4191 37.9568 29.4431C35.5616 29.6106 33.2653 29.7036 31.1352 29.3734C28.9606 29.0359 26.968 28.3898 25.2935 27.4123C24.3549 26.8649 23.5787 26.1665 23.0563 25.2441C22.5618 24.3706 22.2507 23.3682 21.7752 22.4799C21.1549 21.3223 20.2088 20.4234 18.657 20.3056C20.0417 19.171 21.3086 17.9025 22.7102 16.7879ZM11.0835 26.9253C10.3946 25.9551 12.3036 24.3526 13.5165 23.6025C15.0011 22.6842 16.4661 21.9554 17.8943 20.9015C20.1121 21.0188 20.9156 22.9242 21.5861 24.537C22.374 26.4293 23.5663 27.773 25.4553 28.7035C28.6748 30.2905 32.9634 31.0853 37.6078 30.4423C37.6686 30.4344 37.7235 30.4116 37.7778 30.3906C37.0194 31.0978 36.2648 31.8016 35.5103 32.5081C35.4804 32.4648 35.434 32.434 35.3562 32.4379C34.3235 32.4863 33.0304 32.9849 31.9225 33.2158C30.6884 33.4731 29.4729 33.6486 28.3468 33.648C27.239 33.6478 26.2036 33.523 25.348 33.1454C24.2705 32.6707 23.6061 31.7933 22.7607 31.085C20.3237 29.0451 16.5974 28.364 12.2399 29.242C13.6873 28.107 15.11 26.9376 16.4603 25.7305C16.8588 25.3745 16.6697 24.8588 16.1882 25.2019C15.8443 25.4471 15.5056 25.701 15.1629 25.9476C13.6831 26.7892 11.7738 27.8943 11.0835 26.9253ZM1.60162 37.1231C1.87061 36.6088 2.83238 36.0885 3.30793 35.7623C4.68743 34.8129 6.05983 33.8445 7.42246 32.8566C9.69378 32.596 11.7509 32.8533 13.3325 33.668C15.1848 34.6217 15.8651 36.4665 17.1196 37.9476C19.2642 40.4794 24.1308 40.3965 28.6297 39.4622C27.0018 41.2213 25.387 42.9931 23.7265 44.7296C23.686 44.7084 23.6344 44.6954 23.5652 44.696C22.3946 44.7014 21.2087 44.8215 20.1164 44.6748C19.0019 44.5258 17.9642 44.2841 17.0552 43.8567C15.0564 42.9162 14.0513 41.0997 12.7199 39.5412C10.4783 36.9161 6.54026 35.8176 1.53499 37.3103C1.55155 37.2447 1.57071 37.1823 1.60162 37.1231ZM5.59818 45.4878C3.94118 43.5581 2.4816 41.4204 1.80905 38.8377C1.76385 38.6674 1.66729 38.4232 1.59431 38.159C3.834 37.776 6.00464 37.7181 7.77553 38.1955C9.9369 38.7779 11.2428 40.1574 12.4219 41.7275C13.5795 43.2669 14.8337 44.6731 16.8398 45.383C18.4241 45.9432 20.5315 46.2386 22.7409 45.7294C21.8799 46.6106 20.9967 47.4761 20.0979 48.3312C17.0287 49.1436 14.9273 47.8214 13.0721 46.7315C12.0024 46.1038 10.9339 45.4749 9.64366 45.1051C8.77002 44.8551 7.1802 44.3682 5.90597 45.1043C5.73179 45.2043 5.63064 45.3533 5.59818 45.4878ZM14.9368 52.3002C13.8403 52.4542 13.0214 51.87 12.3168 51.4768C10.605 50.5189 9.16004 49.2941 7.85408 47.941C7.18905 47.2516 6.51757 46.5439 5.87099 45.8072C6.36918 45.9515 7.13236 45.808 7.67982 45.8776C8.3808 45.9663 9.0141 46.1585 9.58904 46.4174C10.8655 46.9941 11.8705 47.859 13.042 48.5484C14.5534 49.4371 16.5097 49.966 18.8582 49.4908C18.7946 49.5487 18.7336 49.6096 18.6687 49.6685C17.6508 50.5769 16.138 52.1316 14.9368 52.3002Z" fill="#FDF0EA"/>
</svg>
