<svg width="4" height="2" viewBox="0 0 4 2" fill="none" xmlns="http://www.w3.org/2000/svg">
<path d="M3.74392 0.125656C3.5603 0.043914 3.38497 -0.00228246 3.18239 8.68834e-05C3.02483 0.00127155 2.86965 0.0427328 2.71446 0.0699802C2.46094 0.114998 2.20977 0.167127 1.95625 0.212144C1.84015 0.232283 1.72288 0.250049 1.6056 0.269004C1.53334 0.278481 1.52743 0.279664 1.58785 0.272556C1.55823 0.27611 1.5286 0.280851 1.49898 0.284405C1.39829 0.296252 1.29758 0.306911 1.19689 0.322312C1.13884 0.331789 1.08198 0.342453 1.02393 0.353115C1.02393 0.353115 0.863996 0.374439 0.931522 0.368516C0.7941 0.380363 0.651952 0.376813 0.51453 0.376813C0.24561 0.377998 -0.0114525 0.61256 0.000394219 0.890958C0.0134256 1.17765 0.226655 1.39444 0.51453 1.4051C1.04289 1.42287 1.56296 1.46434 2.09251 1.43946C2.38868 1.42524 2.68248 1.40155 2.97628 1.35298C3.29851 1.29848 3.62664 1.22385 3.85173 0.964404C4.05194 0.733393 4.08037 0.274925 3.74392 0.125656Z" fill="#FDF0EA"/>
</svg>
