<svg width="94" height="87" viewBox="0 0 94 87" fill="none" xmlns="http://www.w3.org/2000/svg">
<path fill-rule="evenodd" clip-rule="evenodd" d="M2.20797 18.338C1.38898 17.3996 0.680461 16.5886 5.37991e-05 15.807C0.627267 14.5694 1.15209 14.28 1.78882 14.8124C2.62056 15.5085 3.18069 16.5429 4.72442 16.6726C6.63566 15.425 8.94543 14.8834 11.3346 15.1493C11.7959 13.4634 11.7959 13.4634 11.2317 11.8822C11.709 11.3451 12.1551 10.7901 12.6527 10.2852C13.6345 9.28771 14.6539 8.39526 16.1609 8.23019C17.0174 8.136 17.7894 7.99105 18.5511 8.47967C19.1329 8.85237 19.8454 9.04373 20.6855 9.39553C21.1317 7.85472 22.0499 6.63228 23.2585 5.84601C23.5421 4.05116 23.7778 2.43894 24.0747 0.835243C24.1183 0.590382 24.4456 0.378797 24.7744 -8.96134e-05C26.1764 1.60307 24.2649 3.7318 25.7642 5.34705C26.3179 5.48666 27.1516 5.75121 27.6184 6.62617C28.6404 8.54965 30.3818 10.0404 30.9155 12.2735C30.9923 12.5993 31.3584 12.9234 31.6868 13.0847C33.9053 14.1697 34.8602 16.0235 34.9159 18.4123C34.9509 19.923 35.042 21.4492 34.8462 22.9517C34.7221 23.9108 34.1203 24.8385 33.7104 25.8369C36.0337 25.4924 39.5385 22.9347 42.7337 19.2777C41.9379 17.7755 41.1258 16.3155 39.5594 15.2199C37.4826 13.7666 36.23 11.6442 35.7965 9.03802C38.7815 7.04238 41.6194 5.11862 44.4835 3.23761C46.5172 1.90453 47.27 1.9544 49.2386 3.37759C49.3963 3.4927 49.5829 3.57165 49.9199 3.7585C50.9289 3.202 52.0277 2.59401 53.1148 1.99379C54.8117 2.44646 56.1928 3.1549 57.0853 4.62145C57.7728 5.7526 57.9118 6.86 57.1406 8.06251C56.4634 9.11902 55.7932 10.195 54.4483 10.606C54.3647 10.6306 54.3579 10.9593 54.2957 11.2322C54.5853 11.2291 54.9553 11.3409 55.1399 11.2042C56.6062 10.1275 58.0391 9.00804 59.4753 7.89359C60.7439 6.90689 61.9649 5.85439 63.2806 4.93988C64.1662 4.3213 64.9012 4.40954 65.4825 5.19599C66.9007 7.1209 68.2618 9.09008 69.5751 11.0924C70.2461 12.1141 70.0516 13.2275 69.2302 14.2322C68.7743 14.7924 68.2315 15.2927 67.6263 15.9287C68.3299 16.6008 69.0105 17.1629 69.5763 17.8199C70.1613 18.4966 70.5406 19.3577 71.1769 19.976C72.3857 21.1515 73.7198 22.2024 74.9877 23.3202C75.6559 23.9087 76.2728 24.5556 76.9474 25.1411C77.8462 25.9213 78.8041 26.6403 79.6902 27.4374C81.173 28.7721 82.5084 30.2667 84.3253 31.2357C84.662 31.4167 84.9392 31.7701 85.1253 32.1097C85.7812 33.309 86.8597 34.0064 88.0811 34.5661C89.2169 35.0879 90.066 35.8929 90.7248 36.936C91.7898 38.621 92.9296 40.2573 93.9936 41.8489C94.0884 43.8006 93.0788 45.0323 91.457 45.9719C90.4333 46.5623 89.4884 47.2869 88.4713 47.8873C88.1312 48.087 87.5526 48.2761 87.2901 48.1358C86.1659 47.5376 84.7632 47.298 83.963 46.2831C82.6602 44.6282 80.8587 43.5018 79.391 42.0257C78.694 41.3275 77.9398 40.6591 77.3806 39.8604C76.2923 38.3066 75.3477 36.67 73.7013 35.5665C73.2199 35.2448 72.891 34.6898 72.5641 34.1937C71.0169 31.8416 69.0046 29.9149 66.9068 28.0442C65.8023 27.0592 64.8946 25.8692 63.7348 24.5922C63.5875 25.0173 63.4371 25.3312 63.3691 25.655C62.8911 27.9703 62.6983 30.3335 61.3821 32.4909C61.0136 33.0988 60.9746 33.8805 60.7902 34.5835C59.813 38.2918 58.8275 41.9985 57.8678 45.7096C57.4885 47.1756 56.5974 48.5016 56.7582 50.1392C56.8319 50.8877 55.9478 51.7897 55.4915 52.6286C51.8671 54.2358 48.2328 53.9696 44.6406 53.5716C42.5779 53.3453 40.57 52.9017 38.4296 53.1612C37.7262 53.2446 36.8849 53.1527 36.3096 52.8275C34.1426 51.596 31.4271 51.8929 29.2501 50.744C27.2539 50.9866 25.7022 50.0392 23.9883 49.3917C22.64 48.8819 20.9846 49.0341 19.6073 48.9064C18.9713 49.5594 19.213 50.0148 19.4615 50.4441C20.3571 51.9821 21.6101 53.3498 21.5941 55.314C23.6649 57.7933 24.1949 61.1062 25.9812 63.742C28.05 66.795 30.0999 69.8631 32.1793 72.9139C32.8586 73.912 33.4451 74.9263 33.6407 76.1634C33.7334 76.7437 34.022 77.2871 34.2525 77.832C34.3715 78.1055 34.5882 78.3307 34.7161 78.5995C35.8415 80.9696 35.3599 82.5944 33.0336 84.1135C32.0441 84.7569 31.0215 85.3635 29.9693 85.8933C29.0116 86.3733 28.2448 86.281 27.7295 85.5408C26.4862 83.7496 25.0225 82.101 24.3922 79.9144C24.0639 78.7745 23.5054 77.6848 22.8956 76.6717C21.7143 74.7064 20.4369 72.7994 19.1715 70.8868C18.0141 69.1394 16.8679 67.405 16.3095 65.3223C16.0813 64.4709 15.5213 63.7161 15.0499 62.9551C14.207 61.5988 13.2133 60.3324 12.4785 58.9196C11.7553 57.5278 11.2726 56.0018 10.6164 54.3641C10.0647 54.516 9.49146 54.7004 8.91145 54.8351C7.21084 55.226 5.78833 54.9369 4.84224 53.4857C3.64612 51.6461 2.42224 49.8263 1.24722 47.975C0.804502 47.2767 0.948293 46.5237 1.67686 46.0921C2.58424 45.5494 3.5486 45.0288 4.54716 44.7288C6.06456 44.2675 7.16162 43.6281 7.80197 42.0261C8.36894 40.6155 9.79316 39.8851 11.3294 39.5619C11.8144 39.4618 12.2902 39.3172 12.7777 39.1901C12.6625 38.8285 12.6652 38.5495 12.5437 38.4922C11.6336 38.0629 10.7142 37.6376 9.7648 37.2865C7.63279 36.4931 5.81814 35.3093 4.59392 33.4366C3.56681 31.866 2.3625 30.3657 2.11356 28.2484C2.68159 27.8687 3.26296 27.48 4.01422 26.9777C2.85826 25.2487 1.70564 23.5246 0.536315 21.7755C1.10138 20.6144 1.59912 19.5887 2.20797 18.338ZM12.0625 42.8487C14.1904 44.5787 14.1969 44.6262 15.8829 44.9524C17.2929 45.2246 18.8166 45.1857 20.1377 45.6438C22.5209 46.4705 25.3491 46.0717 27.4098 47.7406C27.5477 47.8533 27.8123 47.8921 28.0048 47.8574C29.445 47.6141 30.6173 48.2211 31.8941 48.6076C33.8441 49.2008 35.9976 49.235 37.8076 50.2496C37.9689 50.3395 38.2159 50.3358 38.4204 50.3172C41.6633 50.0665 44.8093 50.4134 47.9773 50.8383C49.7565 51.0769 51.7287 50.9804 53.5054 49.9083C53.9869 48.1535 54.2241 46.3704 54.9759 44.7892C55.9433 42.7517 56.3432 40.6441 56.9207 38.5479C57.7202 35.6537 57.932 32.6355 59.4798 29.9014C59.6242 29.6434 59.614 29.3091 59.6642 29.0092C59.8291 28.0048 60.0039 27.0009 60.1485 25.9968C60.3344 24.6831 60.7477 23.3221 60.6038 22.0613C60.3739 20.0301 60.408 18.026 60.6587 15.982C60.719 15.4898 60.772 14.8084 60.4946 14.525C59.6821 13.6991 59.3934 12.4327 58.2552 11.727C55.2951 13.7059 52.4358 15.5994 49.5971 17.5201C46.7484 19.4475 43.8693 21.3278 41.4367 23.8001C40.6225 24.63 39.596 25.2777 38.623 25.9439C33.4739 29.4634 28.3215 32.9779 23.1456 36.4574C21.9008 37.2921 20.6231 38.1571 19.2509 38.7058C16.7303 39.7196 14.5554 41.2652 12.0625 42.8487ZM4.99104 28.9941C6.75861 33.3091 10.4058 34.896 14.3714 36.0398C16.7875 36.7372 19.1006 36.1826 21.2678 34.7048C22.7736 33.6764 24.2557 32.5964 25.8348 31.6938C27.9875 30.4631 29.3554 28.6387 30.5306 26.6057C32.1703 23.7765 32.6579 20.8016 32.2602 17.7461C32.0169 15.8769 30.3338 14.9979 28.6242 15.7685C26.0096 16.9464 23.4198 18.1777 20.7993 19.3379C17.9517 20.5981 15.2333 22.0732 12.6639 23.8524C10.2036 25.5551 7.69542 27.1861 4.99104 28.9941ZM90.8885 42.7655C90.1992 41.7344 89.5562 40.8555 89.0012 39.9226C88.1192 38.4393 87.0093 37.2495 85.3755 36.4678C84.5008 36.0499 83.8361 35.236 83.1075 34.5698C82.5956 34.1034 82.1606 33.5554 81.6437 33.0959C80.6723 32.2378 79.6423 31.4452 78.6812 30.5789C77.0643 29.1194 75.3342 27.8007 73.7992 26.2203C71.8106 24.1741 69.3238 22.6068 67.7018 20.1625C67.1734 19.3649 66.2207 18.8412 65.4407 18.219C64.895 17.7848 64.3082 17.8517 63.7359 18.326C63.1771 18.7863 62.9281 19.3962 63.2086 19.9727C63.5878 20.7581 64.0809 21.5082 64.6365 22.1841C65.3244 23.0185 66.1295 23.7613 66.8822 24.5428C67.3633 25.0443 67.7803 25.6212 68.3313 26.0362C70.7492 27.8592 72.6803 30.1221 74.7193 32.3141C76.7492 34.4941 78.9681 36.4936 80.5652 39.0377C80.7618 39.3533 81.2105 39.5017 81.5113 39.7622C82.9397 40.9958 84.4303 42.1745 85.7639 43.504C87.4511 45.1841 87.8005 45.2723 89.9354 43.7571C90.183 43.5795 90.3683 43.3122 90.8885 42.7655ZM16.1415 51.2898C14.8746 52.1367 13.921 52.7743 13.0106 53.3829C13.1846 55.2997 13.884 56.7893 14.8556 58.2065C16.2038 60.171 17.6516 62.1111 18.6308 64.2681C19.4175 66.0018 20.256 67.6671 21.329 69.2251C22.5695 71.0266 23.7648 72.8595 25.0081 74.6616C25.9719 76.0564 26.8362 77.4827 27.2239 79.1855C27.5642 80.668 28.3838 81.8724 29.6448 82.731C30.0564 82.5246 30.3688 82.4206 30.6192 82.2327C32.0255 81.1744 32.1032 80.8525 31.4644 79.4103C31.1462 78.6891 30.7518 77.9694 30.6224 77.1954C30.4367 76.065 29.9417 75.1245 29.3295 74.2105C27.1732 70.987 25.0194 67.7582 22.8914 64.5157C22.4036 63.7716 21.7747 63.0183 21.6341 62.1735C21.3709 60.6116 20.4935 59.4363 19.7354 58.1582C19.2356 57.315 18.629 56.4274 18.526 55.4803C18.334 53.7275 17.2486 52.6538 16.1415 51.2898ZM45.8685 17.4519C46.9363 16.7381 47.7874 16.0968 48.7059 15.5743C50.3672 14.6288 51.571 13.4262 51.7027 11.4907C51.3235 10.9235 50.9327 10.3641 50.5657 9.78635C49.7206 8.45562 48.9369 7.07783 48.0302 5.78468C47.3028 4.74528 46.5302 4.63152 45.3557 5.33356C44.0746 6.09964 42.8283 6.93042 41.6004 7.78146C40.6612 8.43345 39.5453 8.89507 38.8106 9.97555C39.2422 11.0392 39.7057 12.1598 40.6389 12.6363C42.1662 13.4156 43.012 14.6917 43.979 15.9361C44.3912 16.468 45.046 16.8075 45.8685 17.4519ZM6.11986 25.6423C8.1546 24.282 9.84873 23.1783 11.5064 22.0219C11.9014 21.7458 12.1785 21.3003 12.4468 21.004C11.8297 20.027 11.3604 19.1753 10.7778 18.4103C10.5067 18.0552 10.0537 17.7327 9.61199 17.629C8.82705 17.4464 7.97607 17.3452 7.21021 17.9464C6.97625 18.5969 6.7437 19.2441 6.49923 19.9258C6.05434 19.9111 5.73569 19.9626 5.46772 19.8827C4.8217 19.6915 4.23458 19.7056 3.8008 20.3294C3.34372 20.9833 3.23181 21.6775 3.6889 22.318C4.42465 23.3518 5.18567 24.3676 6.11986 25.6423ZM14.1523 48.6173C12.8245 48.0589 11.8645 47.4485 10.7975 47.2604C9.4754 47.0259 8.93094 45.8871 8.03462 45.3161C6.71824 45.8708 5.58767 46.3482 4.25991 46.9093C5.17031 48.2711 5.98604 49.4949 6.80874 50.72C7.3071 51.4655 7.99912 51.5668 8.93786 51.4297C10.9037 51.1362 12.4869 50.2164 14.1523 48.6173ZM63.5873 7.04629C62.8722 7.6063 62.2391 8.10314 61.7297 8.50393C61.996 10.2867 62.1925 11.8569 62.4871 13.4062C62.5864 13.9279 62.933 14.3904 63.2303 15.0136C64.2284 14.3957 65.0472 13.9169 65.8371 13.3949C66.2591 13.114 66.6363 12.7606 67.1898 12.3123C66.1536 10.4163 65.1246 8.66984 63.5873 7.04629ZM14.9654 19.6986C16.4996 18.7199 18.0892 18.4297 19.2745 17.1238C18.7133 16.2843 18.2774 15.5115 17.7219 14.832C17.0576 14.0204 16.452 14.1637 15.5978 15.1844C15.3506 15.4798 15.0169 15.7125 14.7087 15.9583C14.2421 16.3256 13.7644 16.68 13.2397 17.0778C13.4763 17.5704 13.6085 17.9448 13.8209 18.2643C14.0898 18.6702 14.4251 19.0294 14.9654 19.6986ZM24.0499 9.083C25.0945 10.2526 26.0654 11.3425 27.0352 12.4308C27.1652 12.5801 27.2735 12.7475 27.4098 12.8902C27.8052 13.2959 28.3122 13.4053 28.7534 12.9765C29.0085 12.7289 29.2775 12.167 29.1639 11.9501C28.5304 10.7286 27.8012 9.55304 27.0664 8.39083C26.6515 7.73421 26.2619 6.89553 25.204 7.24369C24.2566 7.5553 24.1582 8.42126 24.0499 9.083ZM21.8339 15.9551C23.1514 15.4491 24.5407 15.3711 25.7991 14.2503C25.1294 13.171 24.8104 11.8971 23.4134 11.3668C22.4933 11.8832 21.6047 12.3856 20.7509 12.8661C20.6243 14.016 20.8103 14.9667 21.8339 15.9551ZM51.121 6.00575C51.8067 7.2586 52.2315 8.46542 53.7842 8.8916C54.2794 8.02428 54.7748 7.15916 55.225 6.37248C53.7007 4.27265 53.3914 4.23721 51.121 6.00575ZM19.1517 11.9901C19.6217 11.2022 19.2023 10.6632 18.7054 10.4374C17.9075 10.0766 17.0035 9.80964 16.1089 9.75689C14.5675 9.66664 13.9994 10.4357 14.0381 12.179C15.77 12.1142 17.4821 12.0506 19.1517 11.9901ZM22.639 9.39355L22.9021 9.3996L22.8404 9.17935L22.639 9.39355Z" fill="#FDF0EA"/>
</svg>
