<svg width="4" height="2" viewBox="0 0 4 2" fill="none" xmlns="http://www.w3.org/2000/svg">
<path d="M3.97357 0.600699C3.66085 -0.169422 2.76609 -0.0503409 2.11839 0.148867C1.5063 0.336946 0.907539 0.555077 0.306577 0.774317C0.109595 0.846655 -0.0283995 1.01915 0.00498725 1.23728C0.0339225 1.42647 0.207544 1.62456 0.418994 1.6023C1.02775 1.53998 1.63538 1.48211 2.24079 1.38863C2.37656 1.36748 2.51233 1.34745 2.64811 1.32519C2.69151 1.31852 2.78836 1.2829 2.82954 1.29514C2.80283 1.29848 2.77609 1.30182 2.74938 1.30516C2.77943 1.30182 2.81059 1.29848 2.84064 1.29626C2.94525 1.28847 3.04987 1.30182 3.15337 1.29403C3.2246 1.29848 3.21014 1.29626 3.11221 1.28513C3.18121 1.29626 3.25018 1.30516 3.31918 1.31072C3.40932 1.3174 3.49279 1.30405 3.58293 1.28958C3.85893 1.24729 4.07818 0.860003 3.97357 0.600699Z" fill="#FDF0EA"/>
</svg>
