<svg width="3" height="2" viewBox="0 0 3 2" fill="none" xmlns="http://www.w3.org/2000/svg">
<path d="M2.74884 0.0385114C2.51266 -0.00173548 2.2722 -0.0197366 2.03708 0.0311015C1.85809 0.0702893 1.67804 0.108412 1.49905 0.145481C1.40902 0.163486 1.31899 0.177262 1.22896 0.192089C1.17813 0.200562 1.12731 0.211147 1.07647 0.21962C1.07117 0.220679 1.06163 0.222803 1.0521 0.223862C0.862513 0.260931 0.66024 0.245042 0.470656 0.228096C0.23553 0.206914 0.0321674 0.425093 0.00357096 0.641155C-0.0239664 0.849803 0.109474 1.13154 0.344601 1.16331C0.774606 1.22156 1.21308 1.27664 1.64521 1.22262C1.88351 1.19296 2.09959 1.15377 2.32306 1.06587C2.43639 1.02138 2.53384 0.979021 2.63022 0.899586C2.66623 0.86993 2.70116 0.838152 2.73611 0.805319C2.81978 0.725884 2.89286 0.640094 2.95535 0.542654C3.06444 0.368957 2.9649 0.0745217 2.74884 0.0385114Z" fill="#FDF0EA"/>
</svg>
