<svg width="21" height="29" viewBox="0 0 21 29" fill="none" xmlns="http://www.w3.org/2000/svg">
<path fill-rule="evenodd" clip-rule="evenodd" d="M9.97613 28.9466C9.02061 28.428 8.91626 27.1585 8.51443 26.2432C7.42152 23.2052 6.26663 20.1382 4.48368 17.4287C3.47857 15.3059 -0.308365 13.7047 0.0201271 11.3092C0.256683 10.4704 1.17294 10.2401 1.85782 9.87439C5.31215 8.22367 8.36877 5.24555 8.55781 1.2365C8.24481 0.194204 9.75817 -0.490665 10.3284 0.435931C10.8934 1.90691 11.3882 3.49153 12.5338 4.68671C14.6907 7.4417 18.5138 8.07079 20.8763 10.3888C21.7326 12.272 15.6493 13.2544 14.0802 17.4958C12.947 20.0411 12.4759 22.8168 12.0121 25.547C11.7012 26.737 11.8386 29.4104 9.97613 28.9466ZM4.11799 13.9299C7.12814 16.9339 8.6797 20.9987 10.13 24.9158C10.8562 19.3542 12.6795 13.2843 18.2194 10.7969C15.0553 9.27216 11.757 7.49644 9.8976 4.39332C8.72205 7.96748 5.39065 10.3723 2.12019 11.9332C2.77408 12.6118 3.46411 13.2523 4.11799 13.9299Z" fill="#FDF0EA"/>
</svg>
