<svg width="64" height="56" viewBox="0 0 64 56" fill="none" xmlns="http://www.w3.org/2000/svg">
<path d="M20.6533 54.5532C22.7926 53.3093 24.4438 51.4371 25.8088 49.4024C27.2488 47.2517 28.4788 44.9515 29.7553 42.7049C30.0937 42.1153 30.4301 41.5214 30.7665 40.9274C31.1751 41.1673 31.6444 41.2602 32.1443 41.0963C33.0162 40.8175 33.5967 39.9853 34.1535 39.3097C34.9401 38.3649 35.8021 37.4549 36.5243 36.4647C36.6967 36.6373 36.9056 36.7497 37.1475 36.5988C37.3429 36.475 37.51 36.1758 37.62 35.9734C37.7322 35.7754 37.7169 35.6047 37.6085 35.4076C37.6064 35.4031 37.5979 35.3964 37.5958 35.3919C38.4376 35.0949 39.2584 34.7646 40.1242 34.5534C40.9791 34.3419 41.8473 34.2049 42.7266 34.1491C43.4702 34.1028 44.4154 34.2801 45.0687 33.845C45.3374 33.6707 45.5456 33.3901 45.6039 33.0772C45.6343 32.912 45.6303 32.7307 45.5597 32.5913C45.915 32.6136 46.2683 32.6314 46.6216 32.6493C47.4001 32.6891 48.1833 32.7159 48.9626 32.723C50.493 32.7342 52.0225 32.6974 53.5486 32.619C54.327 32.578 55.1057 32.5261 55.8871 32.4567C56.4517 32.408 57.2189 32.3777 57.357 31.6825C57.3693 31.6282 57.3707 31.5737 57.3721 31.5191C58.3775 31.6521 59.4375 31.6141 60.4471 31.5834C61.5617 31.5467 62.6691 31.4488 63.7753 31.3136C63.9637 31.2901 64.0798 31.0202 63.9349 30.8832C62.7621 29.7938 61.5511 28.7493 60.4119 27.6281C59.2981 26.538 58.2202 25.4096 57.196 24.2346C55.1174 21.8662 53.1819 19.3661 51.3953 16.7695C50.5621 15.5535 49.6943 14.3214 49.0187 13.0047C48.9645 12.7391 48.9123 12.4779 48.858 12.2122C48.6389 11.1454 48.4306 10.0788 48.0665 9.04742C47.6798 7.95655 47.1585 6.92334 46.7232 5.85523C46.2797 4.76944 45.9508 3.64076 45.6284 2.51443C45.4762 1.98207 45.3328 1.44557 45.1807 0.913206C45.0723 0.543563 44.9862 -0.00892465 44.4946 0.000190722C43.9987 0.0113754 43.6974 0.599693 43.4569 0.94939C43.1346 1.42362 42.8403 1.91167 42.5696 2.41562C42.0514 3.36953 41.6639 4.33774 41.3295 5.36191C41.0253 4.96536 40.5818 4.46695 40.0819 4.63088C39.8461 4.71431 39.7231 4.91201 39.6517 5.13944C39.5442 5.49694 39.3845 5.84655 39.2185 6.18289C38.5943 7.43976 37.759 8.5798 36.9244 9.69802C36.0944 10.8033 35.2426 11.9079 34.5413 13.1039C34.3859 13.3706 34.2347 13.6462 34.0943 13.922C33.931 14.241 33.7457 14.5703 33.7166 14.9342C33.7093 15.0454 33.7198 15.1482 33.7411 15.2514C33.6279 15.2398 33.5035 15.2387 33.3717 15.2681C32.6668 15.4201 32.2373 16.0685 31.826 16.6059C31.3155 17.2652 30.8111 17.9378 30.3047 18.606C30.038 18.9572 29.7712 19.3084 29.5089 19.6575C29.2466 20.0066 28.9494 20.3505 28.7408 20.7338C28.5536 20.5412 28.2385 20.3168 28.0046 20.4964C27.7394 20.7013 27.4673 21.0065 27.4583 21.3557C27.4551 21.3949 27.4584 21.4365 27.4661 21.476C25.4633 21.9984 23.3017 21.8246 21.3564 22.5734C20.9969 22.7148 20.6179 22.9299 20.4491 23.2945C20.3637 23.4692 20.346 23.65 20.3653 23.8295C17.818 23.8793 15.264 24.0185 12.7188 24.1535C11.8004 24.2062 10.8837 24.2742 9.97446 24.3926C9.534 24.4532 9.09767 24.5227 8.66313 24.6075C8.40193 24.6597 8.12193 24.7639 7.85509 24.781C7.7283 24.7864 7.6239 24.7706 7.49861 24.8023C7.31379 24.8565 7.13725 24.9283 6.96663 25.0244C6.80485 25.1163 6.60498 25.1613 6.4243 25.2243C6.03847 25.3672 5.66093 25.5277 5.28931 25.7125C3.13033 26.7877 1.61335 28.7049 0.61858 30.8627C0.155899 31.8661 -0.129485 32.9374 0.0581387 34.0406C0.266828 35.2579 0.879686 36.383 1.40582 37.484C3.69714 42.2642 6.27316 46.9272 9.34478 51.256C10.0799 52.2969 10.8157 53.3968 11.7785 54.2449C12.5324 54.8998 13.4659 55.3629 14.4336 55.5997C16.5537 56.111 18.7889 55.636 20.6533 54.5532ZM33.7073 39.0012C33.1261 39.6936 32.2276 40.998 31.1567 40.5292C30.7292 40.3413 30.423 39.9403 30.153 39.5708C29.8223 39.1059 29.5071 38.6283 29.1831 38.1548C28.4615 37.0968 27.7599 36.0239 26.9738 35.0123C27.1223 34.9266 27.2685 34.8474 27.4085 34.7549C28.933 33.8096 30.3985 32.7033 31.6587 31.4236C31.6767 31.4044 31.6838 31.385 31.6973 31.3678C31.8613 31.442 32.0345 31.501 32.2168 31.545C32.5728 31.6263 32.9606 31.6604 33.3394 31.6178C33.9725 32.6364 34.6124 33.6465 35.2699 34.6483C35.5744 35.1147 35.8834 35.5791 36.2012 36.0393C36.1791 36.0497 36.157 36.06 36.139 36.0792C35.2702 36.9978 34.5142 38.0307 33.7073 39.0012ZM20.968 37.4138C20.5536 37.0581 20.7029 36.3523 21.157 36.102C21.3297 36.0104 21.5184 35.976 21.708 35.9896C21.4181 36.2223 21.2241 36.5448 21.4723 36.9137C21.6448 37.1671 21.9323 37.1942 22.2327 37.1452C22.2283 37.1473 22.2215 37.1558 22.2192 37.1623C22.165 37.2308 22.1132 37.2928 22.0504 37.3545C21.9429 37.4587 21.8139 37.5514 21.6665 37.5934C21.4245 37.6636 21.1581 37.5781 20.968 37.4138ZM20.0636 38.1066L19.9928 38.1397C19.9863 38.1373 19.9775 38.1415 19.9731 38.1436C19.9731 38.1436 19.9445 38.1515 19.9401 38.1536C19.9203 38.1575 19.8961 38.1634 19.872 38.1693C19.8611 38.169 19.8457 38.1708 19.8348 38.1705C19.8086 38.1721 19.7868 38.1715 19.7629 38.1665C19.7499 38.1618 19.7434 38.1594 19.726 38.1568C19.7216 38.1589 19.7151 38.1565 19.713 38.1521C19.6375 38.1174 19.5776 38.07 19.525 37.9922C19.4683 37.9056 19.423 37.7974 19.3884 37.7004C19.3722 37.6542 19.3639 37.6365 19.352 37.5881C19.3443 37.5486 19.3452 37.5159 19.3502 37.492C19.3554 37.4572 19.3775 37.4469 19.4129 37.4303C19.4748 37.4014 19.5452 37.3792 19.6092 37.3546C19.878 37.2611 20.1445 37.1741 20.4153 37.0851C20.4436 37.2605 20.5178 37.4305 20.632 37.571C20.6574 37.6023 20.6896 37.6249 20.7174 37.6497C20.6841 37.6706 20.6573 37.694 20.6284 37.7129C20.5683 37.7572 20.5147 37.8038 20.459 37.8461C20.3744 37.9072 20.274 37.9919 20.1985 38.038C20.1564 38.0631 20.1078 38.0859 20.0636 38.1066ZM18.906 34.8275C18.9722 34.969 19.067 35.1024 19.1842 35.2146C19.1927 35.2214 19.1992 35.2238 19.2078 35.2305C19.1786 35.2603 19.1495 35.2902 19.1203 35.32C19.0708 35.3755 19.0149 35.4286 18.9633 35.4797C18.8649 35.5688 18.7645 35.6536 18.6513 35.7227C18.4628 35.8379 18.2449 35.9022 18.0328 35.829C17.9461 35.8049 17.8664 35.7614 17.8045 35.7095C17.7767 35.6848 17.7428 35.6468 17.7218 35.6135C17.7262 35.6114 17.7073 35.5826 17.7052 35.5781C17.699 35.5649 17.6786 35.5098 17.6804 35.5251C17.6668 35.4614 17.6519 35.3606 17.7099 35.3119C17.7479 35.2779 17.8113 35.2752 17.8573 35.2698C17.9319 35.2565 18.0044 35.2387 18.0814 35.2188C18.3782 35.1392 18.6526 35 18.906 34.8275ZM19.5124 35.0179C19.3309 34.8603 19.2101 34.6367 19.1856 34.4002C19.1627 34.19 19.2577 33.9785 19.4011 33.8359C19.5333 33.7039 19.704 33.6079 19.89 33.5909C19.8579 33.649 19.8323 33.7095 19.8112 33.7679C19.761 33.9369 19.7416 34.2639 19.9089 34.3796C20.1211 34.5336 20.5556 34.4488 20.7885 34.3936C20.8018 34.3874 20.8106 34.3833 20.8215 34.3836C20.603 34.6421 20.425 34.941 20.1976 35.2037C20.0245 35.398 19.6642 35.1463 19.5124 35.0179ZM22.4687 33.0899C21.7776 33.4672 20.9905 34.0997 20.1598 34.052C20.1264 33.7389 20.5047 33.4648 20.7333 33.3201C21.1441 33.0578 21.5846 32.8246 22.0187 32.5891C22.9246 32.095 23.8576 31.6475 24.8072 31.2354C26.5891 30.4714 28.4258 29.8704 30.2988 29.3817C30.3466 29.645 30.4185 29.9023 30.5152 30.1319C28.662 30.4443 26.8225 31.0736 25.098 31.8106C24.1994 32.1935 23.3215 32.6206 22.4687 33.0899ZM30.855 27.634C31.145 27.2288 31.5117 26.8955 32.0282 26.7669C32.2787 26.7035 32.5341 26.7079 32.7863 26.7516C32.9963 26.8203 33.1969 26.9151 33.3816 27.0334C33.6159 27.177 33.8164 27.3634 33.9968 27.5646C34.2516 27.925 34.4285 28.3488 34.538 28.7556C34.6956 29.3339 34.7116 29.9785 34.3578 30.489C33.5777 31.6087 31.5592 31.0498 31.0102 29.9919C30.9144 29.8103 30.8209 29.5415 30.7522 29.245C30.6229 28.6695 30.5924 27.994 30.855 27.634ZM30.3364 30.5444C29.9422 31.0953 29.3571 31.5147 28.8141 31.909C28.1306 32.4175 27.4237 32.8993 26.6959 33.3477C26.5627 33.4316 26.4254 33.5067 26.2946 33.5841C26.2473 33.4715 26.1693 33.3625 26.1129 33.265C26.0272 33.1164 25.9327 32.9721 25.8381 32.8277C25.6807 32.5834 25.5076 32.3518 25.3302 32.1223C26.955 31.4373 28.6267 30.9674 30.3364 30.5444ZM29.3154 31.9438C29.8522 31.5363 30.3441 31.0904 30.7253 30.5348C30.8934 30.7902 31.1063 31.0032 31.353 31.1733C29.2405 33.2345 26.8366 34.9148 24.0912 36.0382C23.7755 36.1698 23.4622 36.2948 23.1448 36.4111C22.8141 36.5335 22.4693 36.6949 22.1182 36.7623C21.9141 36.7985 21.656 36.7307 21.7834 36.4501C21.8552 36.2926 22.019 36.2051 22.1628 36.1324C22.5212 35.9539 22.9026 35.8131 23.263 35.639C24.6181 34.9993 25.9232 34.2645 27.1846 33.4477C27.913 32.9775 28.6269 32.4762 29.3154 31.9438ZM37.1635 35.8961C37.1332 35.9695 37.0417 36.1309 36.9839 36.1687C36.8596 36.2485 36.8563 36.2069 36.7716 36.1065C36.7081 36.0284 36.6537 35.9353 36.597 35.8487C36.4413 35.6197 36.2857 35.3908 36.128 35.1574C35.8376 34.7329 35.5452 34.3039 35.2593 33.8772C34.7465 33.1041 34.2316 32.3265 33.7277 31.5492C33.9915 31.4796 34.2432 31.3726 34.4571 31.2078C34.4816 31.191 34.5019 31.1653 34.5263 31.1485C34.8584 31.9846 35.2748 32.7706 35.7684 33.5257C36.0499 33.9545 36.3538 34.3619 36.6577 34.7694C36.8074 34.9741 36.9527 35.181 37.0936 35.3899C37.2218 35.5832 37.2673 35.6804 37.1635 35.8961ZM47.6704 31.862C47.5979 31.8798 47.5303 31.8737 47.461 31.8522C47.4109 31.8487 47.372 31.8346 47.3312 31.8052C47.2858 31.7887 47.2472 31.7637 47.2197 31.728C47.179 31.6986 47.1471 31.665 47.1264 31.6208C47.0821 31.5607 47.051 31.4944 47.0442 31.4222C47.0432 31.3741 47.0423 31.326 47.0369 31.2801C47.049 31.2367 47.0589 31.1889 47.071 31.1456C47.0733 31.1391 47.0713 31.1346 47.0736 31.1282L47.078 31.1261C47.0942 31.0916 47.1148 31.055 47.131 31.0205C47.131 31.0205 47.131 31.0205 47.1354 31.0184C47.1422 31.0098 47.136 30.9966 47.1428 30.988C47.2016 30.9066 47.2753 30.8451 47.3637 30.8038C47.4324 30.7662 47.5025 30.7549 47.5745 30.759C47.6446 30.7477 47.7142 30.7582 47.7856 30.7841C47.8765 30.817 47.9494 30.8691 48.0152 30.9407C48.0403 30.9829 48.0654 31.025 48.095 31.0651C48.1384 31.1579 48.1512 31.2543 48.1422 31.3501C48.1332 31.446 48.1047 31.5348 48.0502 31.6142C48.0458 31.6162 48.0458 31.6162 48.0434 31.6227C48.0119 31.659 47.976 31.6974 47.9445 31.7337C47.9401 31.7358 47.9401 31.7358 47.9401 31.7358C47.9044 31.7632 47.8069 31.8197 47.8069 31.8197C47.7647 31.8448 47.7187 31.8501 47.6704 31.862ZM50.9281 31.6144L50.9237 31.6165C50.9037 31.6312 50.8751 31.6392 50.8488 31.6407C50.8288 31.6555 50.8002 31.6635 50.774 31.665C50.6796 31.6822 50.5838 31.6732 50.4929 31.6403C50.4021 31.6073 50.3227 31.5529 50.2613 31.4792C50.1978 31.4012 50.1543 31.3083 50.1351 31.2096C50.1179 31.1152 50.1269 31.0194 50.1598 30.9285C50.1692 30.9026 50.1807 30.881 50.1942 30.8639C50.2036 30.8379 50.2151 30.8164 50.2287 30.7993C50.2266 30.7949 50.231 30.7928 50.231 30.7928C50.2669 30.7544 50.3029 30.7161 50.3388 30.6777C50.3411 30.6712 50.3411 30.6712 50.3456 30.6691C50.3901 30.6375 50.4322 30.6124 50.4723 30.5829L50.4767 30.5808C50.4988 30.5705 50.5737 30.5462 50.6241 30.5388C50.6329 30.5346 50.6438 30.5349 50.6482 30.5328C50.7007 30.5298 50.7532 30.5268 50.8033 30.5303C50.8078 30.5282 50.8078 30.5282 50.8122 30.5262C50.8187 30.5285 50.8296 30.5288 50.8361 30.5311C50.8839 30.5411 50.9405 30.5469 50.988 30.5678C50.9945 30.5702 50.9989 30.5681 51.001 30.5725C51.0225 30.584 51.044 30.5955 51.0635 30.6025C51.085 30.614 51.1066 30.6255 51.1281 30.637C51.1346 30.6393 51.1432 30.6461 51.1452 30.6505C51.2054 30.687 51.25 30.7362 51.2834 30.796C51.3256 30.8517 51.3502 30.9157 51.3615 30.9858C51.3603 31.0295 51.3657 31.0755 51.3646 31.1191L51.3373 31.245C51.3138 31.3099 51.2796 31.3636 51.2325 31.4126C51.2054 31.4469 51.1718 31.4788 51.1321 31.4974C51.1209 31.508 51.099 31.5075 51.0858 31.5137C51.0454 31.5541 51.0009 31.5857 50.9479 31.6105C50.9414 31.6082 50.937 31.6103 50.9281 31.6144ZM50.6254 16.3107C51.5187 17.6549 52.4452 18.9781 53.4318 20.257C55.3729 22.7921 57.4902 25.1855 59.697 27.4938C60.8026 28.647 61.9321 29.8051 63.1296 30.8667C62.2375 30.9987 61.3311 31.0888 60.4283 31.1288C59.3854 31.1804 58.3482 31.0946 57.3085 31.107C57.2097 30.7922 57.0077 30.4987 56.831 30.2365C56.3646 29.5278 55.905 28.8107 55.443 28.1C54.9476 27.3294 54.4434 26.5631 53.9457 25.799C53.8369 25.6128 53.7258 25.4331 53.6192 25.2513C53.6407 25.2627 53.6717 25.2482 53.6593 25.2217C53.1494 24.167 52.7058 23.0812 52.2225 22.014C51.7436 20.9448 51.2912 19.8631 50.863 18.7755C50.4262 17.6812 49.9673 16.5972 49.6166 15.4679C49.4855 15.0496 49.3806 14.6299 49.2781 14.2036C49.6894 14.9326 50.1694 15.6242 50.6254 16.3107ZM42.7773 3.07825C43.0221 2.64569 43.2929 2.22253 43.5658 1.8038C43.8137 1.42372 44.0697 0.98053 44.3925 0.656982C44.6031 0.450626 44.6791 0.889308 44.7338 1.05231C44.8232 1.31228 44.9102 1.57874 44.9951 1.84078C45.167 2.36929 45.3213 2.90607 45.4888 3.43665C45.8051 4.45801 46.1413 5.47552 46.5635 6.45813C46.9878 7.44516 47.4627 8.41386 47.8054 9.43371C48.0868 10.2882 48.278 11.1688 48.4385 12.0529C48.4161 12.0742 48.4002 12.0978 48.4059 12.1329C48.4399 12.2516 48.4805 12.3728 48.5145 12.4916L48.5207 12.5048C48.6947 13.5444 48.8752 14.5862 49.1677 15.6026C49.4622 16.6234 49.8538 17.6096 50.2542 18.5916C50.7225 19.7305 51.2637 20.8406 51.8028 21.9464C52.2754 22.9215 52.8061 23.848 53.3385 24.7898C52.7503 23.8094 52.1577 22.8312 51.543 21.8632C49.8267 19.1636 47.9483 16.5668 46.212 13.8819C45.324 12.5029 44.4782 11.0988 43.7187 9.64894C43.0071 8.28981 42.4334 6.83381 41.509 5.59583C41.8719 4.73616 42.3153 3.88731 42.7773 3.07825ZM37.9607 11.9237C37.8906 11.935 37.823 11.9289 37.7514 11.9139C37.7753 11.9189 37.7947 11.9259 37.8121 11.9286C37.8012 11.9283 37.7947 11.9259 37.7838 11.9257C37.7773 11.9233 37.7729 11.9254 37.7664 11.923C37.7186 11.9131 37.6773 11.9054 37.6296 11.8955C37.6275 11.891 37.6275 11.891 37.6231 11.8931C37.5647 11.872 37.511 11.8378 37.4684 11.793C37.4298 11.768 37.4023 11.7324 37.3837 11.6926C37.3435 11.6413 37.3166 11.5839 37.3098 11.5116C37.3065 11.47 37.3032 11.4285 37.3064 11.3893C37.3046 11.3739 37.3049 11.363 37.3075 11.3456C37.3078 11.3347 37.3037 11.3259 37.3039 11.3149C37.308 11.243 37.3294 11.1737 37.3704 11.1114C37.3983 11.0444 37.4413 10.9866 37.4993 10.9379C37.5818 10.8723 37.6702 10.8309 37.7734 10.8096C37.8238 10.8022 37.8719 10.8012 37.922 10.8047C37.9984 10.8067 38.0633 10.8302 38.1255 10.8711C38.171 10.8876 38.2096 10.9126 38.2436 10.9506C38.3014 10.9936 38.3457 11.0537 38.3788 11.1244C38.3907 11.1728 38.4069 11.219 38.4232 11.2653L38.4253 11.2697C38.4253 11.2697 38.4253 11.2697 38.4209 11.2718L38.4302 11.4183C38.4167 11.5162 38.3882 11.605 38.3293 11.6865C38.2905 11.7532 38.2369 11.7998 38.1682 11.8374C38.1102 11.8861 38.0418 11.9127 37.9607 11.9237ZM39.3707 10.768C38.8477 10.1343 38.8214 9.04182 37.9518 8.72672C37.9518 8.72672 37.9473 8.72879 37.9453 8.72437C38.1269 8.45612 38.3129 8.18581 38.4904 7.90872C38.8451 7.36546 39.1718 6.80837 39.4878 6.24008C39.6367 5.97099 39.7815 5.69306 39.9348 5.42189C40.0013 5.29915 40.0783 5.10681 40.2414 5.13287C40.3697 5.15366 40.4884 5.2921 40.569 5.38372C41.5773 6.50159 42.171 7.94283 42.8463 9.27044C43.5279 10.6113 44.2889 11.915 45.0945 13.187C46.7009 15.744 48.4851 18.1856 50.2026 20.6691C50.2888 20.7957 50.3686 20.9201 50.4548 21.0468C51.4566 22.6689 52.4607 24.2845 53.4825 25.8919C54.3114 27.1907 55.1359 28.4916 55.9583 29.7881C56.1556 30.0945 56.353 30.401 56.5414 30.7115C56.6691 30.9267 56.8156 31.1706 56.8309 31.4221C56.8567 31.7766 56.5233 31.8356 56.2364 31.8675C55.8619 31.908 55.4857 31.9332 55.1071 31.9649C54.4246 32.0149 53.7423 32.0541 53.0624 32.0867C52.9717 31.7088 52.8368 31.3515 52.6336 31.0209C52.5181 30.8433 52.3914 30.6762 52.2447 30.5239C52.0787 30.3537 51.8445 30.2101 51.7652 29.9831C51.6897 29.7759 51.7024 29.5382 51.6577 29.3274C51.6091 29.0969 51.5363 28.8723 51.439 28.6645C51.2655 28.2823 51.0124 27.9373 50.7007 27.6628C50.5407 27.5167 50.358 27.4028 50.1889 27.2718C49.9127 27.0616 49.8614 26.8485 49.8372 26.5203C49.8113 26.0851 49.6629 25.745 49.3721 25.423C49.0836 25.0946 48.6911 24.8202 48.5008 24.4135C48.2894 23.9735 48.2632 23.4684 48.0433 23.0216C47.8503 22.6323 47.5777 22.2803 47.251 21.9967C46.9157 21.7063 46.3635 21.5283 46.1955 21.1003C46.1053 20.8731 46.1141 20.6157 46.057 20.3784C46.006 20.1543 45.9223 19.9294 45.8162 19.7258C45.581 19.2808 45.2247 18.9571 44.8778 18.6075C44.1501 17.8703 43.5802 16.9406 43.0063 16.0829C42.3987 15.1763 41.7558 14.2863 41.2457 13.3232C40.9919 12.8384 40.8023 12.3182 40.4818 11.8754C40.1697 11.4502 39.7073 11.1763 39.3707 10.768ZM47.0423 28.7931C47.1123 28.8735 47.1558 28.9664 47.1727 29.0716C47.1846 29.2008 47.1877 29.2532 47.1474 29.3745C47.1186 29.4742 47.06 29.5447 46.9861 29.617C46.9861 29.617 46.9837 29.6235 46.9749 29.6277C46.946 29.6466 46.8682 29.6992 46.8373 29.7136C46.8329 29.7157 46.8329 29.7157 46.8284 29.7178C46.6654 29.7725 46.707 29.7692 46.5345 29.7691C46.4387 29.7601 46.3499 29.7316 46.2684 29.6727C46.2062 29.6318 46.1551 29.5803 46.1241 29.5139C46.0753 29.4559 46.0487 29.3875 46.0398 29.3109C46.0303 29.256 46.0293 29.208 46.0328 29.1578C46.0345 29.0924 46.0448 29.0337 46.0639 28.9709C46.0897 28.8995 46.1262 28.8393 46.1822 28.7861C46.2275 28.7218 46.2876 28.6775 46.3604 28.6488C46.4577 28.6033 46.5565 28.584 46.6588 28.5954C46.7066 28.6054 46.7543 28.6153 46.8021 28.6253C46.8951 28.6627 46.9789 28.715 47.0423 28.7931ZM48.1655 28.0033C48.2123 27.9652 48.2609 27.9425 48.3202 27.9309C48.4018 27.8981 48.4829 27.8871 48.5699 27.9003C48.6242 27.9126 48.6764 27.9205 48.7307 27.9328C48.8625 27.9843 48.9157 28.0402 49.0181 28.1324L49.0202 28.1368C49.0946 28.2152 49.1502 28.3454 49.1671 28.4507C49.1902 28.5692 49.1723 28.6692 49.1389 28.7819C49.0968 28.8878 49.0356 28.9757 48.9507 29.0478C48.888 29.1095 48.8105 29.1511 48.7271 29.1686C48.6985 29.1766 48.6699 29.1846 48.6457 29.1905L48.6413 29.1926C48.6369 29.1947 48.6369 29.1947 48.6369 29.1947C48.6369 29.1947 48.6304 29.1923 48.626 29.1944C48.5755 29.2018 48.5296 29.2072 48.4818 29.1972C48.46 29.1966 48.434 29.1872 48.4101 29.1822C48.4057 29.1843 48.3992 29.182 48.3927 29.1796C48.3883 29.1817 48.3797 29.1749 48.3753 29.177C48.3429 29.1652 48.306 29.1555 48.2759 29.1373C48.2629 29.1326 48.252 29.1323 48.239 29.1276C48.1399 29.077 48.1419 29.0814 48.0463 28.9807C48.0377 28.9739 48.0292 28.9671 48.0206 28.9604C47.9613 28.8911 47.9217 28.8181 47.9021 28.7302C47.8714 28.653 47.8583 28.5675 47.8715 28.4805C47.8838 28.4262 47.8917 28.374 47.904 28.3197C47.9293 28.2702 47.9567 28.225 47.982 28.1755C48.0276 28.1002 48.0924 28.0429 48.1655 28.0033ZM44.8589 29.8852C44.8633 29.8831 44.8654 29.8875 44.8698 29.8854C44.9291 29.8739 44.986 29.8688 45.0426 29.8746C45.0904 29.8846 45.1382 29.8946 45.1859 29.9045C45.2833 29.9398 45.3647 29.9987 45.4326 30.0747C45.4578 30.1168 45.4894 30.1613 45.5145 30.2035C45.5541 30.2765 45.5674 30.3511 45.5654 30.4275C45.5744 30.5042 45.5659 30.5782 45.5336 30.6472C45.5142 30.721 45.4733 30.7832 45.4173 30.8364C45.3699 30.8963 45.3119 30.945 45.2346 30.9758C45.1884 30.992 45.1377 31.0104 45.0849 31.0243C45.0805 31.0264 45.0784 31.0219 45.074 31.024C45.0215 31.027 44.9734 31.028 44.921 31.031C44.921 31.031 44.921 31.031 44.9165 31.033L44.9145 31.0286C44.8667 31.0186 44.8189 31.0087 44.7711 30.9987C44.7691 30.9943 44.7646 30.9963 44.7646 30.9963C44.7646 30.9963 44.7646 30.9963 44.7626 30.9919C44.7151 30.971 44.672 30.9481 44.631 30.9296C44.5386 30.8704 44.5241 30.8395 44.4781 30.764C44.442 30.7216 44.4213 30.6774 44.4118 30.6226C44.4015 30.6005 44.3935 30.5719 44.3876 30.5477C44.3742 30.4731 44.3783 30.4011 44.3976 30.3274C44.4011 30.2773 44.422 30.2298 44.447 30.1911C44.4794 30.1221 44.5224 30.0642 44.5804 30.0155C44.627 29.9883 44.667 29.9588 44.7136 29.9316C44.7557 29.9065 44.8064 29.8882 44.8589 29.8852ZM44.2466 26.3778C44.2619 26.376 44.2749 26.3807 44.2902 26.3789C44.3164 26.3774 44.3365 26.3627 44.3604 26.3676C44.3955 26.362 44.4326 26.3608 44.4651 26.3725C44.4999 26.3778 44.5323 26.3896 44.5624 26.4078C44.5969 26.424 44.627 26.4422 44.6503 26.469C44.6931 26.5029 44.7247 26.5474 44.7475 26.596C44.7576 26.629 44.7697 26.6665 44.7798 26.6995C44.781 26.7366 44.7822 26.7738 44.7814 26.8065L44.7761 26.8413C44.7752 26.874 44.7788 26.9047 44.7715 26.9351C44.7641 26.9655 44.7639 26.9764 44.7545 27.0023C44.7521 27.0088 44.7498 27.0153 44.7474 27.0218C44.7221 27.0714 44.6968 27.1209 44.6715 27.1705C44.6579 27.1876 44.6444 27.2047 44.6244 27.2195C44.6129 27.241 44.5994 27.2582 44.5793 27.2729C44.5301 27.3175 44.4727 27.3444 44.4046 27.3601C44.3869 27.3684 44.3627 27.3743 44.3385 27.3802C44.2967 27.3945 44.2442 27.3975 44.1985 27.3919C44.1767 27.3913 44.1572 27.3843 44.1333 27.3793C44.1138 27.3723 44.092 27.3717 44.0725 27.3646C44.0705 27.3602 44.0661 27.3623 44.0661 27.3623C44.025 27.3437 43.9885 27.3231 43.9519 27.3026C43.8855 27.2528 43.8323 27.1968 43.7971 27.1217C43.764 27.0509 43.753 26.9699 43.7594 26.8914C43.7618 26.8849 43.7597 26.8805 43.7577 26.8761C43.7621 26.874 43.7621 26.874 43.76 26.8696C43.7697 26.8327 43.7773 26.7914 43.7894 26.7481C43.7964 26.7286 43.8035 26.7091 43.817 26.692C43.8285 26.6705 43.8423 26.6425 43.8538 26.6209C43.8653 26.5994 43.8788 26.5823 43.9009 26.5719C43.9124 26.5504 43.9259 26.5333 43.946 26.5185C43.9837 26.4955 44.0214 26.4724 44.0547 26.4514C44.0591 26.4494 44.0591 26.4494 44.0635 26.4473L44.121 26.4204C44.1587 26.3974 44.172 26.3912 44.2466 26.3778ZM46.5674 26.3047C46.5724 26.2808 46.5815 26.2657 46.5906 26.2507C46.593 26.2442 46.5953 26.2377 46.5977 26.2312L46.5998 26.2356C46.6065 26.2271 46.6092 26.2097 46.6159 26.2011L46.6204 26.199C46.63 26.1622 46.6377 26.1209 46.6603 26.0887C46.6806 26.063 46.7075 26.0397 46.7322 26.012C46.7725 25.9715 46.8212 25.9488 46.8739 25.9348C46.9049 25.9203 46.94 25.9147 46.9792 25.9179C47.0296 25.9105 47.0818 25.9184 47.1337 25.9372L47.2264 25.9854C47.2736 26.0172 47.3075 26.0552 47.3347 26.1018C47.3663 26.1463 47.3911 26.1993 47.3962 26.2562C47.4004 26.2651 47.4001 26.276 47.3998 26.2869C47.4031 26.3285 47.404 26.3765 47.4029 26.4202C47.4038 26.4682 47.385 26.5202 47.3751 26.5679C47.3727 26.5744 47.3748 26.5788 47.3724 26.5853C47.3701 26.5918 47.3701 26.5918 47.3656 26.5939C47.3398 26.6653 47.3033 26.7255 47.2453 26.7742C47.212 26.7952 47.1831 26.8141 47.1498 26.8351C47.1498 26.8351 47.0681 26.8679 47.0375 26.8714C46.9455 26.8822 46.8845 26.8784 46.8022 26.8523C46.7352 26.8243 46.6794 26.7858 46.6328 26.7321C46.6139 26.7033 46.595 26.6744 46.574 26.6411C46.5554 26.6013 46.5456 26.5574 46.5423 26.5158C46.5402 26.5114 46.5446 26.5093 46.5449 26.4984C46.5449 26.4984 46.5408 26.4896 46.5387 26.4852C46.5411 26.4787 46.5455 26.4766 46.5434 26.4722C46.5416 26.4568 46.5398 26.4415 46.5425 26.4241C46.5425 26.4241 46.5425 26.4241 46.5404 26.4197C46.5436 26.3805 46.5489 26.3457 46.5674 26.3047ZM44.1315 28.1239C44.1819 28.1164 44.23 28.1155 44.2801 28.119C44.3609 28.1189 44.4393 28.1253 44.5172 28.1535L44.5216 28.1514C44.6211 28.1911 44.7069 28.2479 44.7769 28.3283C44.8342 28.3931 44.8738 28.4662 44.8913 28.5497C44.92 28.6225 44.931 28.7035 44.9202 28.784C44.9108 28.8908 44.8756 28.9882 44.8143 29.0761C44.7731 29.1493 44.7127 29.2045 44.6376 29.2397C44.5952 29.2757 44.5466 29.2984 44.4917 29.3079C44.4166 29.3431 44.3355 29.3541 44.2529 29.3389C44.2051 29.3289 44.1509 29.3166 44.1031 29.3066C44.0966 29.3043 44.0966 29.3043 44.0922 29.3063C44.0447 29.2854 43.9975 29.2537 43.95 29.2328C43.9479 29.2284 43.9414 29.226 43.9393 29.2216C43.8965 29.1877 43.8582 29.1518 43.8198 29.1159L43.8177 29.1114C43.7861 29.0669 43.7545 29.0225 43.7273 28.9759C43.7253 28.9715 43.7253 28.9715 43.7232 28.9671C43.6741 28.8391 43.6646 28.7843 43.6703 28.6469C43.6683 28.6425 43.6706 28.636 43.6685 28.6316C43.6785 28.5838 43.6885 28.536 43.7029 28.4862L43.7052 28.4797C43.7382 28.3888 43.7926 28.3094 43.8663 28.248C43.9443 28.1845 44.0327 28.1431 44.1315 28.1239ZM44.6158 24.3457C44.6216 24.2891 44.6313 24.2522 44.6477 24.2068C44.6524 24.1938 44.6551 24.1764 44.6642 24.1614C44.7015 24.0684 44.7401 24.0127 44.8161 23.9448C44.8205 23.9427 44.8185 23.9383 44.8229 23.9362C44.8273 23.9341 44.8317 23.9321 44.8341 23.9256C44.8541 23.9108 44.8741 23.896 44.8962 23.8857C44.9407 23.8541 44.9852 23.8225 45.0318 23.7953C45.0872 23.764 45.1464 23.7524 45.2075 23.7562C45.247 23.7485 45.2818 23.7537 45.3207 23.7678C45.3599 23.771 45.3968 23.7807 45.429 23.8034C45.4635 23.8196 45.4957 23.8422 45.5255 23.8714C45.5704 23.9097 45.6064 23.9521 45.6288 24.0116C45.641 24.0491 45.6531 24.0865 45.6673 24.1284C45.6685 24.1655 45.6698 24.2027 45.6731 24.2442C45.6704 24.2616 45.6613 24.2767 45.6587 24.2941C45.6581 24.3159 45.6555 24.3333 45.6593 24.3531C45.6579 24.4076 45.6544 24.4578 45.6288 24.5182C45.6262 24.5356 45.6171 24.5507 45.6124 24.5637C45.5654 24.6935 45.4688 24.798 45.345 24.8559C45.2521 24.8993 45.1776 24.9127 45.0773 24.9057C44.9988 24.8993 44.9036 24.8685 44.8372 24.8187C44.8265 24.8075 44.7454 24.7377 44.7347 24.7266C44.7029 24.693 44.6777 24.6508 44.6591 24.611C44.6198 24.5271 44.6047 24.4371 44.6158 24.3457ZM43.5365 25.1257L43.5321 25.1278C43.4923 25.1464 43.444 25.1582 43.4089 25.1639C43.3343 25.1772 43.2559 25.1709 43.1801 25.1471C43.1066 25.1168 43.0444 25.0758 42.9936 25.0134C42.9809 24.9978 42.9682 24.9822 42.9599 24.9645C42.9221 24.9067 42.8946 24.8711 42.8901 24.7924C42.8868 24.7508 42.8812 24.7157 42.8847 24.6656C42.8937 24.5697 42.919 24.5202 42.967 24.4384C42.967 24.4384 42.9714 24.4364 42.9693 24.4319C42.9737 24.4299 42.9761 24.4234 42.9784 24.4169C42.9852 24.4083 42.992 24.3998 42.9967 24.3868C43.0058 24.3717 43.0173 24.3502 43.0329 24.3375C43.0806 24.2667 43.143 24.2159 43.2182 24.1807C43.2556 24.1686 43.2931 24.1565 43.3305 24.1443C43.4116 24.1333 43.49 24.1397 43.5658 24.1635C43.6003 24.1797 43.6369 24.2003 43.6714 24.2165C43.7207 24.2527 43.7632 24.2974 43.7925 24.3484C43.8262 24.3973 43.8531 24.4548 43.8602 24.5161C43.8738 24.5798 43.868 24.6364 43.8513 24.6928C43.8457 24.7385 43.8251 24.7751 43.8045 24.8117C43.7954 24.8267 43.7972 24.842 43.786 24.8527C43.7725 24.8698 43.7654 24.8893 43.7563 24.9043C43.7448 24.9258 43.7377 24.9453 43.7263 24.9668C43.6918 25.0315 43.5984 25.0967 43.5365 25.1257ZM44.3237 21.6262C44.3762 21.6232 44.4307 21.6246 44.4832 21.6216C44.5661 21.6259 44.6419 21.6497 44.7106 21.693C44.7841 21.7232 44.8484 21.7686 44.9013 21.8355C44.9585 21.9003 44.9981 21.9733 45.0156 22.0568C45.0464 22.134 45.0553 22.2106 45.0466 22.2956C45.0463 22.3065 45.046 22.3174 45.0413 22.3304C45.0363 22.3543 45.029 22.3846 45.024 22.4085C45.019 22.4324 45.0117 22.4628 45.0067 22.4867C45.0088 22.4911 45.0043 22.4932 45.0043 22.4932C45.0064 22.4976 45.0041 22.5041 44.9996 22.5062C44.9996 22.5062 45.0017 22.5106 44.9973 22.5127C44.972 22.5622 44.9511 22.6097 44.9237 22.6549C44.9258 22.6593 44.9214 22.6614 44.917 22.6634C44.919 22.6679 44.9146 22.6699 44.9146 22.6699C44.9146 22.6699 44.9146 22.6699 44.9123 22.6764C44.9078 22.6785 44.8133 22.7874 44.8045 22.7915L44.8065 22.796C44.8021 22.798 44.6645 22.884 44.6645 22.884C44.587 22.9257 44.508 22.9411 44.4251 22.9368C44.3703 22.9462 44.3202 22.9428 44.2682 22.924C44.216 22.9161 44.1662 22.9017 44.119 22.8699C44.0715 22.849 44.0263 22.8216 43.9903 22.7792C43.9239 22.7294 43.8775 22.6649 43.8424 22.5898C43.8264 22.5326 43.808 22.4819 43.7941 22.4291C43.7911 22.3766 43.7881 22.3242 43.7851 22.2717C43.7974 22.2174 43.8118 22.1675 43.8197 22.1153C43.8197 22.1153 43.8221 22.1089 43.8265 22.1068C43.8438 22.0286 43.8676 21.9528 43.9173 21.8864C43.9533 21.848 43.9871 21.8052 44.0231 21.7669C44.1123 21.6928 44.2096 21.6472 44.3237 21.6262ZM41.9176 23.2212C41.9205 23.1929 41.9255 23.169 41.9349 23.1431C41.9434 23.069 41.9737 22.9956 42.019 22.9313C42.0687 22.8649 42.1203 22.8138 42.1869 22.7718L42.1913 22.7698C42.2158 22.7529 42.2379 22.7426 42.2644 22.7302C42.3616 22.6846 42.4648 22.6633 42.5716 22.6726C42.6739 22.684 42.7713 22.7193 42.8592 22.7805C42.9471 22.8417 43.0171 22.9221 43.0626 23.0194L43.0647 23.0238C43.0895 23.0769 43.1079 23.1276 43.1194 23.1868C43.1364 23.2921 43.1273 23.3879 43.0921 23.4853C43.0568 23.5826 43.0044 23.6664 42.9219 23.732C42.8415 23.8019 42.7487 23.8454 42.639 23.8644C42.5818 23.8804 42.5078 23.8719 42.4618 23.8773C42.3595 23.8659 42.2621 23.8306 42.1742 23.7694C42.0862 23.7082 42.0163 23.6277 41.9707 23.5305C41.9252 23.4332 41.9083 23.328 41.9176 23.2212ZM40.7708 21.1281C40.843 21.1212 40.9106 21.1273 40.9775 21.1553C41.0489 21.1811 41.1091 21.2176 41.1602 21.2692C41.218 21.3122 41.2623 21.3723 41.2934 21.4386C41.3324 21.5335 41.3496 21.6278 41.3426 21.7281C41.3306 21.7714 41.3206 21.8192 41.3086 21.8626C41.2757 21.9534 41.2256 22.0307 41.1496 22.0987C41.1075 22.1238 41.0654 22.1489 41.0253 22.1784C40.959 22.2094 40.8865 22.2272 40.8145 22.2232C40.7423 22.23 40.6727 22.2195 40.6013 22.1936C40.532 22.1722 40.4718 22.1357 40.4251 22.0821C40.3673 22.0391 40.323 21.979 40.2899 21.9083C40.2485 21.8199 40.2313 21.7255 40.2427 21.6232C40.2503 21.5819 40.2603 21.5341 40.2702 21.4863C40.3031 21.3955 40.3597 21.3205 40.4313 21.2547C40.4734 21.2296 40.5155 21.2045 40.5556 21.1749C40.6263 21.1418 40.6944 21.1261 40.7708 21.1281ZM41.9433 20.4553C41.9203 20.4176 41.8972 20.3799 41.8698 20.3442C41.8677 20.3398 41.8721 20.3377 41.87 20.3333C41.8538 20.287 41.8375 20.2408 41.8236 20.188C41.8177 20.1638 41.8179 20.1529 41.8167 20.1158C41.8099 20.0435 41.818 19.9804 41.846 19.9135C41.8551 19.8984 41.8598 19.8854 41.8689 19.8704C41.8669 19.866 41.8713 19.8639 41.8713 19.8639C41.9042 19.773 41.9542 19.6957 42.0279 19.6343C42.07 19.6092 42.1077 19.5861 42.1478 19.5566C42.2362 19.5152 42.3261 19.5001 42.4264 19.507C42.4698 19.5191 42.5175 19.5291 42.5609 19.5411C42.6302 19.5625 42.6839 19.5967 42.735 19.6482C42.7928 19.6912 42.8351 19.7469 42.8617 19.8153C42.8992 19.8839 42.9149 19.952 42.9109 20.024C42.9177 20.0962 42.9096 20.1593 42.8816 20.2263C42.8607 20.2738 42.8378 20.3169 42.8104 20.362C42.8125 20.3664 42.8101 20.3729 42.8057 20.375C42.7989 20.3836 42.7966 20.3901 42.7877 20.3942C42.718 20.4754 42.677 20.5376 42.5733 20.5808C42.5294 20.5906 42.4831 20.6068 42.4368 20.6231C42.3908 20.6285 42.3516 20.6253 42.3035 20.6262C42.3035 20.6262 42.3035 20.6262 42.2991 20.6283C42.2971 20.6239 42.2926 20.6259 42.2926 20.6259C42.2643 20.623 42.236 20.6201 42.2101 20.6107C42.1708 20.6075 42.1319 20.5934 42.0932 20.5684C42.0348 20.5472 41.9835 20.5066 41.9433 20.4553ZM37.9762 18.1625C38.0162 18.133 38.0584 18.1079 38.1005 18.0828C38.1889 18.0414 38.2832 18.0242 38.3791 18.0332C38.4269 18.0432 38.4747 18.0532 38.518 18.0652C38.5873 18.0866 38.6475 18.1231 38.6986 18.1747C38.7564 18.2177 38.8007 18.2778 38.8274 18.3461C38.8649 18.4148 38.8806 18.4829 38.8765 18.5549C38.8834 18.6271 38.8729 18.6967 38.847 18.7681C38.8305 18.8135 38.7964 18.8672 38.7779 18.9082C38.7735 18.9103 38.7711 18.9168 38.7667 18.9189C38.7372 18.9596 38.7057 18.9959 38.6677 19.0298C38.6633 19.0319 38.6633 19.0319 38.6589 19.034C38.5475 19.1184 38.5254 19.1288 38.3869 19.1667C38.3385 19.1785 38.2884 19.1751 38.2383 19.1716C38.1424 19.1625 38.0516 19.1296 37.9766 19.0731C37.9379 19.0481 37.9016 19.0166 37.8677 18.9786C37.8337 18.9406 37.811 18.8919 37.7859 18.8498L37.7797 18.8365C37.7776 18.8321 37.743 18.7351 37.7332 18.6912C37.7181 18.6013 37.7268 18.5164 37.7574 18.432C37.778 18.3954 37.7986 18.3588 37.8171 18.3178C37.8398 18.2857 37.8731 18.2647 37.8999 18.2414L37.9246 18.2136C37.929 18.2115 37.929 18.2115 37.929 18.2115C37.9426 18.1944 37.9561 18.1773 37.9762 18.1625ZM40.651 17.9937C40.6631 17.9504 40.6943 17.925 40.7149 17.8884C40.7337 17.8365 40.759 17.7869 40.7908 17.7397L40.8965 17.6202C40.9814 17.5481 41.083 17.5005 41.1927 17.4815L41.3566 17.4749C41.4351 17.4813 41.5109 17.505 41.5796 17.5483C41.6531 17.5786 41.7174 17.6239 41.7703 17.6908C41.8276 17.7556 41.8651 17.8243 41.8826 17.9077C41.9134 17.9849 41.9244 18.066 41.9135 18.1465C41.9133 18.1574 41.9109 18.1639 41.9106 18.1748C41.9048 18.2315 41.888 18.2878 41.8713 18.3441C41.8734 18.3486 41.871 18.355 41.8687 18.3615C41.8687 18.3615 41.8642 18.3636 41.8663 18.368C41.8548 18.3896 41.8389 18.4132 41.8295 18.4391C41.8181 18.4607 41.8022 18.4843 41.7928 18.5102C41.7928 18.5102 41.7883 18.5123 41.7904 18.5167C41.7586 18.5639 41.7138 18.6064 41.6735 18.6469C41.6691 18.649 41.6647 18.651 41.6623 18.6575C41.6066 18.6998 41.5512 18.7311 41.4914 18.7645C41.3897 18.812 41.2845 18.829 41.1733 18.8217C41.1235 18.8073 41.0713 18.7994 41.0214 18.7851C40.9176 18.7474 40.8317 18.6906 40.7596 18.6058C40.728 18.5613 40.7009 18.5147 40.6672 18.4658C40.632 18.3907 40.6122 18.3137 40.6165 18.2309C40.6055 18.1498 40.6163 18.0693 40.651 17.9937ZM39.8688 19.3623C39.9122 19.3743 39.9491 19.384 39.9903 19.3916C40.0532 19.4107 40.1048 19.4404 40.1494 19.4896C40.2007 19.5302 40.2388 19.5771 40.2634 19.641C40.2968 19.7009 40.3083 19.7601 40.3066 19.8256C40.3099 19.8672 40.3067 19.9064 40.2971 19.9432C40.2921 19.9671 40.2871 19.991 40.2821 20.0149C40.2818 20.0258 40.2815 20.0367 40.2813 20.0476C40.2789 20.0541 40.281 20.0586 40.2786 20.065C40.2825 20.0848 40.2775 20.1087 40.266 20.1302C40.2634 20.1476 40.2498 20.1648 40.2472 20.1822C40.2425 20.1951 40.2399 20.2125 40.2375 20.219C40.2372 20.2299 40.2305 20.2385 40.2302 20.2494C40.2278 20.2559 40.2275 20.2668 40.2208 20.2754C40.2184 20.2818 40.2161 20.2883 40.2137 20.2948C40.2022 20.3164 40.1908 20.3379 40.1678 20.381C40.1472 20.4176 40.1201 20.4518 40.0845 20.4793C40.0512 20.5002 40.0179 20.5212 39.989 20.5401C39.9336 20.5714 39.8788 20.5809 39.8177 20.5772C39.7629 20.5867 39.7063 20.5808 39.6523 20.5576C39.5679 20.527 39.4927 20.4814 39.4333 20.4122C39.3994 20.3742 39.366 20.3144 39.3429 20.2767L39.3285 20.2457C39.3264 20.2413 39.3243 20.2369 39.3243 20.2369C39.314 20.2148 39.3081 20.1906 39.3042 20.1708C39.2796 20.1069 39.2704 20.0411 39.2765 19.9736C39.2865 19.9258 39.2986 19.8825 39.3085 19.8347C39.3208 19.7804 39.3461 19.7309 39.3714 19.6813C39.3997 19.6034 39.4474 19.5326 39.5122 19.4753C39.5455 19.4543 39.5832 19.4313 39.6209 19.4082C39.7005 19.371 39.7839 19.3535 39.8688 19.3623ZM36.3052 16.4117L36.2919 16.418C36.281 16.4177 36.2766 16.4197 36.2657 16.4195C36.2613 16.4215 36.2613 16.4215 36.2613 16.4215C36.2241 16.4227 36.1651 16.4234 36.128 16.4246C36.1236 16.4267 36.1171 16.4243 36.1171 16.4243C36.0952 16.4238 36.0649 16.4164 36.0454 16.4094C36.0345 16.4091 35.9997 16.4038 35.9781 16.3924C35.9348 16.3803 35.8938 16.3618 35.8575 16.3303C35.851 16.3279 35.7677 16.2537 35.7657 16.2493L35.7007 16.145L35.6622 16.0283C35.6601 16.0238 35.6601 16.0238 35.6601 16.0238C35.6581 16.0194 35.6569 15.9823 35.6577 15.9495C35.6559 15.9342 35.6453 15.923 35.6479 15.9056C35.6387 15.8399 35.6492 15.7703 35.6748 15.7098C35.6913 15.6644 35.7163 15.6257 35.7393 15.5826C35.7531 15.5546 35.7619 15.5505 35.7911 15.5207C35.8562 15.4525 35.852 15.4436 35.9625 15.3919L35.9649 15.3854C35.9693 15.3833 35.9737 15.3813 35.9802 15.3836C36.0244 15.3629 36.1102 15.3389 36.1255 15.3372C36.13 15.3351 36.13 15.3351 36.1344 15.333C36.255 15.3143 36.3092 15.3266 36.4263 15.358C36.5128 15.393 36.5901 15.4431 36.6494 15.5123C36.6982 15.5703 36.7336 15.6346 36.7493 15.7027C36.7759 15.771 36.7872 15.8412 36.7767 15.9108C36.7677 16.0067 36.7371 16.091 36.6826 16.1704C36.6826 16.1704 36.6803 16.1769 36.6759 16.179C36.6508 16.2176 36.6081 16.2646 36.5813 16.2879C36.5433 16.3218 36.5012 16.3469 36.4526 16.3697C36.4328 16.3736 36.4131 16.3774 36.391 16.3878C36.4107 16.3839 36.4284 16.3756 36.4461 16.3674C36.3998 16.3836 36.3535 16.3999 36.3052 16.4117ZM38.7691 15.8728C38.8169 15.8828 38.8646 15.8928 38.908 15.9048C38.9817 15.9242 39.0396 15.9672 39.0907 16.0187C39.1506 16.0661 39.1972 16.1197 39.2259 16.1925C39.2634 16.2612 39.2768 16.3358 39.2727 16.4078C39.2766 16.4275 39.2695 16.447 39.2669 16.4644C39.2687 16.4797 39.2661 16.4971 39.2679 16.5124C39.2699 16.5169 39.272 16.5213 39.2696 16.5278L39.2652 16.5298C39.2717 16.5322 39.2738 16.5366 39.2694 16.5387L39.267 16.5452C39.2649 16.5407 39.2629 16.5363 39.2652 16.5298C39.2605 16.5428 39.2579 16.5602 39.2532 16.5732C39.2526 16.595 39.2585 16.6192 39.2515 16.6387C39.241 16.7083 39.2174 16.7732 39.1744 16.831C39.1429 16.8673 39.1114 16.9036 39.0779 16.9355C39.0378 16.965 38.9956 16.9901 38.9535 17.0153C38.8848 17.0528 38.8168 17.0685 38.7404 17.0665C38.6944 17.0719 38.6487 17.0663 38.6032 17.0499C38.5292 17.0414 38.4687 17.0158 38.4109 16.9728C38.3746 16.9413 38.3383 16.9098 38.302 16.8783C38.2302 16.7825 38.1779 16.6938 38.1592 16.5733C38.1518 16.5229 38.1488 16.4704 38.1523 16.4202C38.1546 16.4137 38.1525 16.4093 38.1549 16.4028C38.1604 16.3571 38.1728 16.3029 38.1872 16.253C38.1895 16.2465 38.1895 16.2465 38.1919 16.24C38.2248 16.1492 38.2792 16.0698 38.3552 16.0019C38.3974 15.9768 38.4395 15.9517 38.4796 15.9221C38.5724 15.8787 38.6688 15.8659 38.7691 15.8728ZM40.4559 16.2528C40.3845 16.2269 40.3243 16.1904 40.2712 16.1344C40.2068 16.0891 40.1625 16.029 40.1318 15.9518C40.1052 15.8834 40.0886 15.848 40.0835 15.7911C40.0815 15.7867 40.0815 15.7867 40.0794 15.7823C40.0645 15.6815 40.0715 15.5812 40.1068 15.4838C40.142 15.3865 40.2009 15.305 40.2813 15.2351C40.3617 15.1651 40.459 15.1196 40.5643 15.1026C40.6695 15.0857 40.7653 15.0948 40.8627 15.13C40.9645 15.1632 41.0459 15.2221 41.1138 15.2981C41.1814 15.385 41.2249 15.4778 41.2483 15.5854C41.2632 15.6863 41.2562 15.7865 41.2165 15.886C41.1812 15.9833 41.1289 16.0671 41.0464 16.1327C41.0484 16.1371 41.044 16.1392 41.044 16.1392C41.0396 16.1412 41.0396 16.1412 41.0352 16.1433C41.0352 16.1433 41.0352 16.1433 41.0372 16.1477C41.0328 16.1498 41.0328 16.1498 41.0328 16.1498C41.0284 16.1518 40.9041 16.2316 40.8996 16.2337C40.8068 16.2771 40.706 16.292 40.6013 16.2871C40.5535 16.2771 40.5037 16.2627 40.4559 16.2528ZM35.8963 13.9032C35.6314 13.3373 36.5067 12.9276 36.7716 13.4935C37.0364 14.0593 36.159 14.4646 35.8963 13.9032ZM37.9929 13.4661L37.9973 13.4641C37.9973 13.4641 38.1249 13.4259 38.1294 13.4238C38.1338 13.4217 38.2606 13.4163 38.2671 13.4186L38.393 13.4459C38.393 13.4459 38.5116 13.5036 38.5137 13.508L38.6096 13.5978C38.6161 13.6002 38.6852 13.7133 38.6873 13.7177C38.6914 13.7266 38.7036 13.764 38.7074 13.7838C38.7178 13.8059 38.7216 13.8256 38.7275 13.8498L38.7296 13.8542C38.7296 13.8542 38.7371 13.9854 38.7327 13.9875C38.7327 13.9875 38.7327 13.9875 38.7348 13.9919C38.7342 14.0137 38.7227 14.0353 38.7222 14.0571C38.7166 14.1028 38.7025 14.1417 38.6775 14.1804C38.661 14.2258 38.6339 14.2601 38.6004 14.2919C38.5397 14.3581 38.5394 14.369 38.4378 14.4166C38.2698 14.4952 38.0672 14.4768 37.917 14.3747C37.842 14.3182 37.7826 14.2489 37.7433 14.165C37.704 14.081 37.6889 13.991 37.6935 13.8973C37.6941 13.8754 37.699 13.8516 37.7105 13.83C37.7108 13.8191 37.722 13.8085 37.7223 13.7976C37.727 13.7846 37.7252 13.7693 37.7299 13.7563C37.7605 13.6719 37.8082 13.6011 37.8774 13.5417L37.9929 13.4661ZM30.3484 19.367C30.7717 18.7862 31.2016 18.2078 31.6249 17.627C32.0277 17.0828 32.389 16.4502 32.875 15.9802C33.1057 15.759 33.4139 15.577 33.7386 15.6029C33.7887 15.6064 33.8318 15.6293 33.8752 15.6414C34.0578 16.0086 34.3704 16.3311 34.6312 16.6348C36.7036 19.0707 38.5935 21.646 40.2476 24.3855C41.0621 25.7342 41.8342 27.1189 42.5025 28.5468C42.8419 29.2718 43.1635 30.0051 43.4831 30.7339C43.7241 31.2948 43.9065 32.1795 44.5307 32.4424C44.7056 32.5168 44.897 32.5457 45.0867 32.5594C45.0652 32.6287 45.0724 32.69 45.081 32.7776C45.0983 32.9527 45.0599 33.0893 44.9536 33.2307C44.7272 33.5414 44.3174 33.5985 43.9612 33.6089C43.2181 33.6334 42.4824 33.6274 41.7442 33.7197C40.27 33.8977 38.6684 34.2755 37.3819 35.0501C37.1441 34.7034 36.8666 34.3752 36.6153 34.0455C35.8847 33.0833 35.2607 32.0496 34.6942 30.989C35.6581 29.9397 35.091 28.0602 34.271 27.0913C33.7393 26.4618 32.9156 26.1413 32.1014 26.3015C32.0816 26.3054 32.0595 26.3157 32.0398 26.3196C31.6093 25.3193 30.9698 24.3791 30.4176 23.4411C30.1437 22.9711 29.8589 22.5008 29.5806 22.0329C29.3921 21.7223 29.2198 21.3772 29.0095 21.0661C29.0272 21.0578 29.0493 21.0475 29.0717 21.0262C29.5603 20.5388 29.9388 19.9198 30.3484 19.367ZM28.0852 20.9221C28.1995 20.8093 28.2358 20.8408 28.3574 20.951C28.4171 21.0093 28.472 21.0806 28.5204 21.1495C28.6956 21.3855 28.8371 21.6534 28.9854 21.9127C29.2974 22.4295 29.6026 22.9549 29.9122 23.4783C30.2263 23.9995 30.5359 24.5229 30.85 25.0441C31.1218 25.5097 31.3889 25.9883 31.7073 26.4267C31.6964 26.4264 31.6919 26.4285 31.681 26.4282C31.3907 26.5102 31.147 26.6458 30.9502 26.8242C30.7766 26.3611 30.4429 25.9245 30.1959 25.512C29.886 24.9995 29.5784 24.4806 29.2665 23.9638C28.961 23.4493 28.649 22.9324 28.3414 22.4135C28.1928 22.1651 28.0245 21.9206 27.8935 21.6639C27.7381 21.3433 27.8608 21.1565 28.0852 20.9221ZM21.7122 22.9997C22.6307 22.6937 23.6013 22.5682 24.5606 22.4533C25.5858 22.3291 26.605 22.1808 27.5871 21.8612C27.716 22.1135 27.8932 22.3539 28.0187 22.5646C28.3053 23.0502 28.5854 23.5335 28.872 24.0191C29.173 24.5356 29.4806 25.0546 29.7837 25.5755C29.9448 25.8505 30.1078 26.1298 30.2689 26.4047C30.4027 26.6331 30.5336 26.8898 30.7143 27.0801C30.3142 27.6069 30.1859 28.346 30.2548 29.0574C28.3333 29.4772 26.4548 30.0924 24.6443 30.8643C24.6387 30.8293 24.6265 30.7918 24.6035 30.7541C23.4249 28.9615 22.2065 27.1875 21.345 25.2087C21.1573 24.7846 20.8713 24.2771 20.8377 23.8024C20.8085 23.3257 21.3379 23.121 21.7122 22.9997ZM17.4934 47.0538C14.7503 43.7839 12.492 40.2602 10.6659 36.4048C9.80067 34.5678 8.86146 32.7224 8.28304 30.7728C7.86743 29.3668 7.21132 27.8038 7.75282 26.3701C7.76928 26.3247 7.84095 26.3397 7.83098 26.3875C7.65386 27.241 7.99771 28.298 8.27846 29.0936C8.60153 30.0256 8.95967 30.9519 9.36438 31.8511C10.9685 35.4278 12.7951 38.9273 14.7955 42.2915C16.7646 45.6004 19.1266 49.0002 22.1963 51.3789C22.299 51.4602 22.1945 51.6169 22.0761 51.5483C20.2393 50.4679 18.8449 48.6632 17.4934 47.0538ZM12.0662 51.8199C12.0025 51.8335 11.9371 51.8318 11.8787 51.8106C11.8155 51.8025 11.7571 51.7813 11.7058 51.7407C11.6757 51.7224 11.6435 51.6997 11.6134 51.6815C11.5984 51.6724 11.5833 51.6633 11.5683 51.6541C11.5597 51.6474 11.5447 51.6382 11.534 51.627C11.5234 51.6159 11.5128 51.6047 11.5042 51.5979C11.485 51.5799 11.4658 51.562 11.4402 51.5416C11.4467 51.544 11.4508 51.5528 11.4529 51.5572C11.4443 51.5505 11.4358 51.5437 11.4272 51.5369C11.3457 51.4781 11.3097 51.4356 11.2639 51.3493C11.2556 51.3316 11.245 51.3204 11.2388 51.3072C11.2078 51.2408 11.1965 51.1707 11.2005 51.0987C11.2102 51.0619 11.2175 51.0315 11.2228 50.9967C11.2416 50.9448 11.269 50.8996 11.307 50.8657C11.3409 50.8229 11.3789 50.7889 11.434 50.7685C11.4847 50.7502 11.5374 50.7362 11.5881 50.7179C11.6804 50.6963 11.7801 50.725 11.8648 50.7447C11.9016 50.7544 11.932 50.7617 11.9689 50.7714C11.9774 50.7782 11.9839 50.7805 11.9948 50.7808C11.9948 50.7808 11.9969 50.7852 12.0013 50.7832L12.109 50.8406C12.1155 50.8429 12.1176 50.8473 12.122 50.8453C12.137 50.8544 12.1521 50.8635 12.1671 50.8726C12.1993 50.8953 12.2294 50.9135 12.2639 50.9297C12.3368 50.9818 12.3897 51.0487 12.4269 51.1283C12.4411 51.1701 12.4553 51.212 12.4695 51.2538C12.4826 51.3393 12.4739 51.4243 12.4456 51.5022C12.4271 51.5432 12.4065 51.5797 12.3859 51.6163C12.3518 51.67 12.3026 51.7146 12.2472 51.7459C12.1959 51.7861 12.132 51.8107 12.0662 51.8199ZM18.7892 53.0922C18.3138 53.2393 17.8156 53.3377 17.3247 53.4058C16.687 53.4941 16.0365 53.486 15.3989 53.4019C15.0812 53.3565 14.7683 53.2982 14.4627 53.2095C14.1571 53.1208 13.8297 53.0315 13.6893 52.72C13.6089 52.5367 13.696 52.3774 13.8448 52.2808C14.1 52.1236 14.4011 52.2144 14.6775 52.2521C14.9473 52.2875 15.2192 52.3273 15.4938 52.3496C16.0231 52.3983 16.5648 52.3927 17.0926 52.3342C17.5481 52.2827 18.0065 52.2029 18.4484 52.0877C18.8198 51.9946 19.2269 51.8742 19.5197 51.6132C19.913 51.2674 20.3821 51.7861 20.1555 52.1886C19.8762 52.6858 19.313 52.9332 18.7892 53.0922ZM19.8794 46.4867C18.5953 44.7219 17.511 42.8313 16.6568 40.8221C15.0229 36.963 14.1267 32.7801 11.8919 29.1914C11.1079 27.9309 10.126 26.639 8.92355 25.682C7.98788 25.8937 7.12143 26.2992 6.27811 26.8233C5.13099 27.5273 4.06391 28.3447 3.3183 29.4805C2.62067 30.5346 2.2954 31.797 2.2302 33.0509C2.16151 34.3549 2.4843 35.5511 2.71133 36.8191C2.74782 37.0122 2.48192 37.0773 2.39653 36.9179C1.04855 34.4986 1.2495 31.2896 2.86815 29.0715C3.69897 27.9335 4.88589 26.9576 6.10496 26.2576C6.78095 25.8712 7.59228 25.486 8.42008 25.3087C8.38142 25.2837 8.34511 25.2522 8.30853 25.2316C9.25539 25.0094 10.2286 24.8664 11.1874 24.7733C13.7201 24.531 16.2747 24.4508 18.816 24.296C19.3562 24.2641 19.8987 24.2258 20.4392 24.183C20.4756 24.2953 20.5164 24.4055 20.5572 24.5158C20.9828 25.6207 21.5254 26.6763 22.108 27.7024C22.7619 28.846 23.4756 29.9563 24.2137 31.0497C23.1557 31.518 22.1269 32.0373 21.1229 32.6096C20.7949 32.7954 20.3944 32.9991 20.1117 33.2931C19.4852 33.1175 18.8362 33.6422 18.7957 34.2809C18.7937 34.3573 18.8005 34.4295 18.8095 34.5062C18.8006 34.5103 18.7877 34.5056 18.7809 34.5142C18.4942 34.7077 18.1747 34.8195 17.8392 34.8741C17.6614 34.9088 17.4769 34.9521 17.3721 35.1197C17.2923 35.2486 17.2707 35.4097 17.2974 35.5588C17.3493 35.831 17.5625 36.033 17.8061 36.1507C18.0802 36.2757 18.3863 36.2617 18.6601 36.1444C18.841 36.0704 19.0057 35.9502 19.1445 35.8206C19.2161 35.7548 19.2791 35.6822 19.3397 35.6161C19.396 35.552 19.4434 35.4921 19.4802 35.421C19.5253 35.4484 19.5705 35.4757 19.6224 35.4945C19.7737 35.5531 19.9713 35.5953 20.1335 35.5733C20.3856 35.5361 20.5209 35.2842 20.6611 35.1C20.8192 34.8967 20.9903 34.698 21.1292 34.4767C21.1813 34.4038 21.1591 34.3334 21.1057 34.2883C21.7011 34.0635 22.2443 33.6583 22.7871 33.3558C23.4829 32.9654 24.2017 32.6128 24.9305 32.2932C24.9305 32.2932 24.9305 32.2932 24.9326 32.2977C25.1004 32.564 25.2572 32.8301 25.4162 33.1006C25.5001 33.2338 25.5731 33.3667 25.6526 33.502C25.7152 33.6128 25.7752 33.741 25.8532 33.85C24.665 34.5354 23.4352 35.1434 22.1762 35.7004C22.1276 35.7231 22.0789 35.7459 22.028 35.7752C21.3852 35.5533 20.6213 35.8785 20.4398 36.5616C20.4178 36.6528 20.4023 36.7463 20.3977 36.84C20.2261 36.888 20.0546 36.936 19.883 36.9839C19.6896 37.0313 19.4942 37.0743 19.307 37.135C19.1351 37.1939 19.02 37.3394 19.0152 37.5248C19.0113 37.6776 19.0663 37.8297 19.1192 37.9773C19.244 38.3016 19.4767 38.5914 19.8595 38.5686C20.1744 38.5505 20.4424 38.3173 20.6766 38.1268C20.7568 38.0678 20.9167 37.9605 20.9918 37.8446C21.1815 37.939 21.39 37.9815 21.5958 37.9606C21.8125 37.94 22.0118 37.836 22.1705 37.6917C22.2577 37.6131 22.3343 37.5234 22.4023 37.4269C22.4679 37.3369 22.5669 37.2259 22.5612 37.11C22.5638 37.0926 22.5576 37.0794 22.5514 37.0661C22.7606 36.9951 22.9549 36.9149 23.107 36.8599C24.3213 36.4263 25.5019 35.8629 26.6235 35.2194C27.1801 36.1552 27.8012 37.0447 28.4047 37.9425C28.9514 38.7537 29.4504 39.6356 30.0953 40.3685C30.1632 40.4445 30.2355 40.5185 30.3058 40.588C29.0451 42.811 27.8101 45.0543 26.5323 47.2637C25.8148 48.4942 25.0496 49.7146 24.1648 50.8294C22.4252 49.7035 21.0921 48.1449 19.8794 46.4867Z" fill="#FDF0EA"/>
</svg>
