<svg width="88" height="62" viewBox="0 0 88 62" fill="none" xmlns="http://www.w3.org/2000/svg">
<path d="M0.452393 32.0359C0.746581 33.2857 1.85428 34.4915 1.76622 35.6563C1.49805 39.2095 3.21413 42.0383 4.49495 45.0853C6.141 49.0008 8.78669 51.8556 12.5311 53.8168C15.467 55.3558 18.2437 57.21 21.2296 58.6359C25.3312 60.5952 29.655 61.9801 34.268 60.8173C38.3286 59.7927 42.3992 58.716 46.3227 57.274C49.5427 56.0903 52.9839 54.8605 55.5766 52.7352C63.0553 46.6062 70.9854 41.549 80.4064 38.9604C85.2875 37.6195 88.0533 34.0052 87.9992 29.0801C87.9522 24.8193 87.0627 20.5216 86.1371 16.3309C85.2175 12.1673 81.5591 9.8578 79.0155 6.75582C74.0594 0.711962 67.238 -0.298684 60.5677 0.0655481C53.126 0.471807 45.7353 2.46308 38.4206 4.18017C35.7539 4.80657 32.9401 5.86225 31.0149 8.19374C31.0759 8.20774 31.138 8.22075 31.199 8.23476C31.6493 8.00962 32.1006 7.78447 32.5509 7.55833C32.1006 7.78347 31.6493 8.00862 31.199 8.23476C34.7913 9.05929 38.4326 9.72071 41.9559 10.7744C46.2546 12.0602 49.0264 15.0731 50.3992 19.2408C46.9801 20.5246 43.666 21.8244 40.3008 22.9772C39.7285 23.1733 38.946 22.679 38.2495 22.6039C33.7106 22.1116 29.2808 22.3137 25.3383 24.9914C24.3967 25.6309 23.1909 26.2963 22.7867 27.2399C21.1586 31.0413 17.4752 31.6197 14.3132 33.0206C11.8286 34.1213 9.29102 35.1029 6.79543 36.1796C5.69673 36.6539 4.98328 36.5728 4.34288 35.3771C1.90132 30.8142 0.842656 26.3713 3.70648 21.4392C5.43859 18.4573 7.9922 17.5027 10.9621 16.6031C17.0059 14.7719 22.9717 12.6866 28.9746 10.7203C30.0072 10.3821 30.8888 9.98288 30.5596 8.63402C29.7121 8.81213 28.8455 8.9292 28.019 9.17836C21.9481 11.0085 15.8542 12.7707 9.83735 14.7629C7.67797 15.4784 5.07632 16.2679 3.77849 17.8999C0.561437 21.9455 -0.779393 26.7956 0.452393 32.0359ZM80.9698 36.5548C79.3748 37.2333 77.7337 37.8467 76.0606 38.2919C69.6185 40.008 63.8398 43.1771 59.0037 47.5609C53.083 52.9293 45.9824 55.3628 38.6958 57.8694C31.6003 60.311 25.3753 59.1473 19.3634 55.0416C17.7004 53.9059 15.7361 53.2195 13.999 52.1778C12.1818 51.0881 10.4728 49.8203 8.71664 48.6295C8.92777 48.2943 9.1389 47.9581 9.35004 47.6229C10.4467 48.2013 11.5475 48.7716 12.6392 49.361C19.3965 53.0073 26.47 54.074 33.9268 51.9607C34.7613 51.7245 35.6939 51.5514 36.3633 51.0541C42.3541 46.6042 49.7178 44.3438 55.2063 39.0554C57.1446 37.1882 59.4 35.3941 61.8465 34.3714C65.3828 32.8935 69.1662 31.7798 72.9506 31.1814C78.0018 30.3829 80.9868 29.7345 85.1664 27.2449C86.3462 31.5026 84.8462 34.9078 80.9698 36.5548ZM49.8619 14.2776C47.1212 10.0389 42.5753 7.90055 37.3559 6.62673C40.2208 5.82422 43.0526 4.86261 45.9584 4.25822C49.6408 3.49273 53.3681 2.67421 57.1035 2.5071C61.4063 2.31598 66.1223 1.78865 69.9778 3.23057C77.0573 5.87825 82.835 10.9365 84.6491 18.6384C86.005 24.3961 84.0507 26.4834 79.2667 27.7972C75.3812 28.8639 71.3707 29.5153 67.3851 30.1638C63.7428 30.7561 60.3946 31.8869 57.0645 35.188C56.7143 32.085 56.9114 29.6324 56.1079 27.5681C54.3338 23.0082 52.4996 18.3562 49.8619 14.2776ZM23.6502 29.3122C25.1341 28.1825 25.6745 25.0445 28.6834 26.7686C28.6944 26.7756 28.7134 26.7716 28.7275 26.7746C28.8395 26.3273 28.9516 25.879 29.0637 25.4317C28.9516 25.88 28.8395 26.3273 28.7275 26.7746C29.0346 26.8506 29.8781 26.1642 30.3324 25.7209C32.868 23.2453 35.7199 24.5242 38.4366 25.1025C39.7294 25.3777 39.7695 26.4544 38.8919 27.419C38.6047 27.7352 38.2695 28.0984 37.8853 28.2215C33.6666 29.5764 29.4339 30.8872 25.2382 32.2001C24.4547 31.8418 23.5431 31.7087 23.331 31.2514C23.0939 30.7401 23.2479 29.6184 23.6502 29.3122ZM9.45411 36.799C12.6411 35.189 16.2104 34.3324 19.6236 33.1797C20.1219 33.0116 20.8644 32.7994 21.1976 33.0326C24.4907 35.329 27.6197 33.5559 30.7687 32.7234C32.711 32.2091 34.6062 31.5246 36.5314 30.9453C39.4002 30.0817 42.0259 29.0911 42.099 25.3317C42.113 24.5982 43.0916 23.4214 43.815 23.2503C46.1835 22.691 48.6341 22.4188 51.0677 22.2357C51.569 22.1977 52.3265 22.9141 52.6407 23.4665C54.803 27.2659 54.7861 31.5877 54.7971 35.7043C54.8011 37.1462 52.5536 38.9133 50.9566 39.953C49.1855 41.1077 46.894 41.477 45.9434 43.7274C45.8944 43.8445 45.7393 43.9395 45.6122 43.9986C40.8271 46.221 36.0661 48.4985 31.234 50.6128C30.0823 51.1171 28.6924 51.0771 27.6017 51.2572C22.2463 50.4097 16.8939 50.3366 12.5541 46.8914C10.878 45.5606 9.1249 44.1957 7.8591 42.5076C5.25143 39.0334 5.6827 38.7052 9.45411 36.799Z" fill="#FDF0EA"/>
</svg>
