<svg width="78" height="89" viewBox="0 0 78 89" fill="none" xmlns="http://www.w3.org/2000/svg">
<path d="M77.648 32.839C77.3359 32.4967 76.896 32.39 76.448 32.4222C75.694 32.4756 74.9349 32.6347 74.1859 32.7424C73.2013 32.8833 72.2177 33.0263 71.2331 33.1692C66.6052 33.5427 61.9843 34.1065 57.3775 34.625C55.8191 34.8001 54.2627 34.9944 52.7043 35.1736C52.4868 34.327 53.7241 33.9434 54.3926 33.9031C55.1708 33.8558 55.95 33.9434 56.7161 33.7441C57.7752 33.4682 58.5705 32.4967 58.4285 31.4578C59.1081 31.3944 59.7725 31.2383 60.3041 30.9454C61.1407 30.4833 61.8192 29.4866 61.6662 28.504C61.6168 28.1869 61.487 27.9242 61.3108 27.7027C61.6551 27.6302 61.9984 27.5577 62.3417 27.4792C63.0082 27.3262 63.7904 27.1752 64.0642 26.4564C64.331 25.7567 64.1991 24.8134 64.2223 24.0754C64.2535 23.0747 64.2847 22.073 64.3159 21.0724C64.4246 17.585 64.7005 13.9195 63.3625 10.6104C62.1705 7.66271 59.8873 5.72173 56.8399 4.86802C55.1154 4.38479 53.3083 4.13713 51.4881 4.0123C51.4428 3.66095 51.5697 3.29551 51.5777 2.94214C51.5848 2.60288 51.5133 2.26361 51.3623 1.95857C51.0643 1.35654 50.5146 0.92365 49.9076 0.662906C48.4206 0.0256458 46.5632 -0.00958984 44.9706 0.00148419C44.1088 0.00752458 43.247 0.0608811 42.3913 0.156521C41.6705 0.237059 40.9406 0.347799 40.3527 0.804855C39.3459 1.58708 39.2352 2.9059 39.4053 4.10089C38.6513 4.13915 37.8983 4.1925 37.1452 4.23982C37.118 4.07774 37.0999 3.91565 37.0768 3.75256C37.0174 3.33376 36.8764 2.94315 36.5865 2.62502C35.9553 1.93441 34.9757 1.85286 34.1009 1.94749C33.0962 2.05622 32.1025 2.25656 31.127 2.51932C30.6941 2.6361 30.2884 2.87268 30.1595 3.33074C30.0317 3.78578 30.077 4.33043 30.1958 4.78044C27.9014 4.99185 25.6091 5.2244 23.3228 5.47307C16.47 6.21905 9.22457 6.8241 2.98284 10.0074C1.37912 10.8248 0.285805 11.9987 0.0794255 13.838C-0.140042 15.8001 0.145872 17.8931 0.327083 19.8502C0.519369 21.9271 0.785131 23.9949 1.13648 26.0506C1.40528 27.6282 1.71033 29.2017 2.16638 30.7329C2.1694 32.4766 3.69963 33.7189 5.2349 34.333C6.12082 34.6874 7.04299 34.9632 7.8524 35.4837C8.81383 36.1018 9.03127 37.0119 9.08664 38.0992C9.33933 43.0563 9.54973 48.0215 9.54167 52.9857C9.52557 62.7571 8.81684 72.9532 4.82213 82.0037C4.13957 83.5501 2.54189 85.7951 3.42983 87.5538C3.9342 88.5525 4.98624 88.6411 5.98189 88.7257C7.20608 88.8294 8.43127 88.9049 9.65747 88.9693C9.20142 87.6223 9.14705 86.0941 9.20544 84.7289C9.27088 83.1846 9.53062 81.6554 9.887 80.1503C8.87121 80.0064 7.85541 79.8282 6.83157 79.7768C9.55981 71.7673 10.6773 63.348 10.8273 54.8935C10.9108 50.2182 10.7618 45.544 10.5635 40.8737C10.5152 39.7482 10.5081 38.6086 10.3964 37.4871C10.3954 37.4791 10.3934 37.471 10.3924 37.4619C12.1753 36.123 14.1898 35.085 16.3734 34.5968C17.5361 34.337 18.715 34.2404 19.904 34.332C20.4738 34.3763 21.0436 34.4669 21.5862 34.6491C22.1661 34.8434 22.5819 35.2371 23.1154 35.4938C22.9503 36.0888 22.8396 36.7099 22.7802 37.3411C22.5507 39.7764 22.6685 42.2842 22.8708 44.7164C23.2946 49.8175 24.3839 54.8764 26.1618 59.6785C27.7424 63.946 29.784 68.3917 33.4485 71.272C35.3824 72.7921 37.6708 73.7918 40.0507 74.3747C42.2333 74.9093 44.6816 75.2536 46.9468 74.9667C49.2783 75.4258 51.6905 75.5435 54.0382 75.4157C58.3832 75.1781 62.8763 74.3254 66.5458 71.9606C68.0297 71.7894 69.5791 72.2394 70.6714 73.2945C70.764 73.3841 70.8445 73.4868 70.9301 73.5844C70.016 74.0284 69.0848 74.4281 68.1475 74.8076C69.2257 76.1284 70.0784 77.6214 70.6331 79.2392C70.8486 79.8674 70.9945 80.5138 71.1083 81.1671C72.0929 80.9507 73.0775 80.6849 73.4631 79.6278C74.1476 77.7553 73.5073 75.1952 72.408 73.6086C71.3378 72.0643 69.6767 71.1119 67.8133 71.0596C68.0992 70.833 68.3801 70.5985 68.6529 70.3498C72.6899 66.6632 74.7134 61.3919 75.4151 56.0683C76.149 50.4991 75.1825 44.7899 76.2869 39.262C76.5577 37.9089 77.0248 36.6475 77.5916 35.3941C77.9319 34.6501 78.2812 33.5337 77.648 32.839ZM55.9942 32.8461C55.2271 32.9407 54.4358 32.8793 53.6858 33.0907C52.6821 33.3736 51.8385 34.2535 51.9049 35.2673C50.9133 35.382 49.9216 35.5008 48.93 35.6166C48.324 34.2092 46.5229 34.3924 45.2706 34.3622C44.5588 34.3451 43.3316 34.1357 43.3104 33.1904C43.2843 31.9652 45.0551 32.1242 45.8394 32.1323C49.7223 32.1726 53.6526 31.9742 57.5174 31.5756C57.7329 32.3085 56.5862 32.7726 55.9942 32.8461ZM51.3049 38.1979C50.9334 38.2482 50.5619 38.3005 50.1935 38.3771C50.1804 38.1646 50.1492 37.9532 50.1099 37.769C50.0294 37.3925 49.9015 37.029 49.7576 36.6727C50.2972 36.6042 50.8368 36.5378 51.3764 36.4693C51.323 36.8126 51.2858 37.1579 51.2757 37.5032C51.2677 37.7348 51.2777 37.9673 51.3049 38.1979ZM59.7474 29.992C58.7678 30.5336 57.5778 30.2759 56.5691 30.6876C54.5989 30.8588 52.6318 31.0712 50.6586 31.2121C49.5069 31.2947 48.3542 31.3611 47.1994 31.3994C46.1585 31.4346 45.0531 31.3249 44.0323 31.5665L44.0283 31.5675C43.3084 31.6179 42.5886 31.6702 41.8678 31.7065C41.3 31.7346 40.7322 31.7679 40.1644 31.8001C39.8755 31.8172 39.4909 31.9038 39.3631 31.5947C39.2785 31.3883 39.3933 30.9373 39.4074 30.7329C39.4215 30.5256 39.362 30.1329 39.4617 29.9598C39.6298 29.6688 40.108 29.7081 40.399 29.6739C41.0201 29.6014 41.6413 29.542 42.2635 29.4765C43.5068 29.3457 44.7491 29.2158 45.9924 29.0849C48.3954 28.8332 50.7985 28.5836 53.2016 28.3359C54.4449 28.2071 55.6872 28.0792 56.9305 27.9503C57.5275 27.8889 58.1889 27.7711 58.8332 27.746C58.9208 27.9443 59.1252 28.0973 59.4121 28.054C59.6588 28.0168 59.9024 27.9675 60.147 27.9242C61.1306 28.3631 60.5467 29.55 59.7474 29.992ZM63.1572 17.4834C48.3683 18.625 33.5965 20.0384 18.8459 21.5938C14.9317 22.0066 11.0075 22.3781 7.11545 22.969C7.0631 22.6197 7.00875 22.2714 6.95741 21.922C6.93728 21.7831 6.91915 21.6432 6.90002 21.5042C9.45812 19.3176 12.5971 17.9303 15.9012 17.3072C17.6821 16.9719 19.5133 16.8542 21.3224 16.9599C23.4597 17.0847 25.5739 17.4602 27.7112 17.573C31.724 17.7864 35.5868 16.9125 39.2443 15.2947C40.9839 14.5256 42.6621 13.6205 44.4823 13.0457C46.4253 12.4316 48.4478 12.3329 50.428 12.8413C54.6291 13.9215 58.6238 16.685 63.1098 15.7085C63.1421 16.3045 63.1592 16.8985 63.1572 17.4834ZM49.4153 1.64749C49.9307 1.86293 50.4472 2.24649 50.576 2.82234C50.6666 3.22604 50.6143 3.59551 50.6837 3.968C50.0274 3.93579 49.372 3.91666 48.7196 3.90659C48.7247 3.8472 48.7287 3.7878 48.7347 3.73142C48.7679 3.39618 48.8294 3.06497 48.8596 2.72972C48.9018 2.27166 48.8636 1.8136 48.6814 1.40487C48.9341 1.47232 49.1807 1.54883 49.4153 1.64749ZM47.9787 1.26191C47.9837 1.28507 47.9736 1.30721 47.9847 1.32936C48.2263 1.79648 48.0924 2.36227 47.9525 2.83946C47.8528 3.17671 47.728 3.51095 47.6857 3.8623C47.6837 3.87538 47.6847 3.88948 47.6837 3.90257C47.3807 3.90156 47.0746 3.89753 46.7736 3.89854C46.7605 3.72135 46.7082 3.53712 46.6719 3.38108C46.6115 3.12436 46.5501 2.86664 46.4887 2.60992C46.3679 2.10152 46.233 1.59615 46.0991 1.09077C46.7172 1.11292 47.3565 1.15922 47.9787 1.26191ZM43.4655 1.09983C44.146 1.06459 44.8286 1.0515 45.5101 1.06963C45.5192 1.06963 45.5283 1.07063 45.5373 1.07063C45.5373 1.07869 45.5303 1.08171 45.5303 1.08976C45.5726 1.63339 45.6108 2.17804 45.6662 2.72066C45.6924 2.98241 45.7196 3.24416 45.7457 3.50591C45.7578 3.62169 45.7689 3.76162 45.79 3.90156C45.1336 3.9076 44.4773 3.91968 43.8219 3.93478C43.8078 3.89753 43.7947 3.85928 43.7766 3.82303C43.7675 3.8029 43.7564 3.78276 43.7454 3.76263C43.7433 3.7576 43.7444 3.7586 43.7413 3.75055C43.7293 3.70323 43.7141 3.65692 43.7021 3.60961C43.698 3.59249 43.6719 3.44954 43.683 3.53511C43.6447 3.24416 43.6386 2.94718 43.6024 2.65523C43.538 2.13374 43.4423 1.61829 43.3296 1.10587C43.3739 1.10385 43.4202 1.10184 43.4655 1.09983ZM41.4923 1.32433C41.891 1.20352 42.3198 1.16224 42.7457 1.13708C42.795 1.74917 42.8182 2.36327 42.8 2.97738C42.791 3.2794 42.7618 3.59551 42.8433 3.89149C42.8494 3.91465 42.8675 3.93579 42.8756 3.95894C42.0863 3.9821 41.298 4.00928 40.5097 4.04351C40.3436 2.97436 40.2228 1.70789 41.4923 1.32433ZM31.0263 4.20962C31.0545 4.02337 31.0334 3.81498 31.0877 3.63478C31.1763 3.34182 31.6676 3.29752 31.9213 3.23309C32.7086 3.03376 33.519 2.86865 34.3294 2.80322C34.9153 2.7559 35.8224 2.78207 36.0932 3.43746C36.2019 3.70122 36.1667 4.01532 36.1848 4.29821C34.421 4.41801 32.6582 4.55593 30.8965 4.715C30.9528 4.54889 30.9991 4.3858 31.0263 4.20962ZM6.37149 9.87449C7.8081 9.31777 9.291 8.87481 10.787 8.51138C13.9582 7.74022 17.1959 7.31538 20.4345 6.95296C27.4655 6.1667 34.5177 5.48817 41.59 5.22239C45.0924 5.09051 48.6079 5.03816 52.1022 5.35226C55.0368 5.61602 58.3409 6.05093 60.4792 8.29594C62.1464 10.0456 62.7987 12.351 63.0333 14.7078C58.8936 15.7075 54.9664 13.2048 51.0784 12.2031C49.228 11.7259 47.3756 11.5648 45.49 11.9322C43.6205 12.2967 41.8577 13.0447 40.1181 13.7957C38.2738 14.591 36.4536 15.4004 34.5006 15.8998C32.4428 16.4263 30.3125 16.685 28.1883 16.6588C26.0521 16.6337 23.9349 16.3125 21.8037 16.1988C20.0248 16.1031 18.2489 16.1666 16.4871 16.4414C12.9233 16.9981 9.48935 18.4478 6.81145 20.8771C6.32318 17.2277 6.07451 13.5511 6.37149 9.87449ZM2.00932 12.8897C2.41101 12.8131 2.80766 12.7125 3.20331 12.6118C3.39962 12.5615 3.59794 12.5192 3.79626 12.4779C3.9221 12.4517 4.05399 12.4165 4.18285 12.4185C4.3097 12.4195 4.43353 12.4467 4.55635 12.4719C4.8775 12.5373 4.95903 13.0578 4.65097 13.1977C4.53822 13.2491 4.42649 13.3074 4.30669 13.3407C4.18186 13.3749 4.04795 13.3779 3.91909 13.391C3.71775 13.4121 3.51842 13.4393 3.31707 13.4595C2.91136 13.4997 2.50565 13.54 2.09793 13.5551C1.7204 13.5682 1.63381 12.9611 2.00932 12.8897ZM1.63281 15.4165C2.07879 15.191 2.50062 14.9343 2.97983 14.7783C3.22245 14.6987 3.49124 14.6424 3.74695 14.6524C3.92514 14.6595 4.0973 14.7088 4.25535 14.7904C4.46173 14.8971 4.53822 15.0803 4.5644 15.2967C4.5805 15.4306 4.47882 15.5625 4.37312 15.629C4.34291 15.6481 4.3238 15.6572 4.28857 15.6723C4.27145 15.6793 4.23924 15.6924 4.18085 15.7176C4.1285 15.7296 4.07012 15.7357 4.01676 15.7327C3.98958 15.7286 3.96339 15.7256 3.93722 15.7216C3.89192 15.7226 3.84258 15.7166 3.79829 15.7135C3.78621 15.7125 3.56674 15.6773 3.67647 15.6974C3.75802 15.7125 3.6795 15.6994 3.66037 15.6984C3.56171 15.6914 3.46404 15.6974 3.36639 15.7055C3.34323 15.7105 3.32008 15.7135 3.29692 15.7176C3.2486 15.7266 3.19928 15.7377 3.15096 15.7498C2.7382 15.8504 2.34055 16.0115 1.9288 16.1192C1.74154 16.1686 1.54826 16.0729 1.47376 15.8957C1.4053 15.7317 1.46167 15.5031 1.63281 15.4165ZM2.09894 17.5548C2.11404 17.5538 2.14322 17.5528 2.1704 17.5508C2.15933 17.5528 2.15026 17.5538 2.17341 17.5478C2.22073 17.5367 2.27006 17.5297 2.31738 17.5186C2.41604 17.4954 2.51269 17.4662 2.60833 17.435C2.81169 17.3676 3.01102 17.2881 3.21136 17.2156C3.58888 17.0787 3.98352 16.983 4.38722 17.0374C4.76575 17.0887 5.09495 17.4914 4.9077 17.8649C4.77783 18.1236 4.44562 18.1619 4.19394 18.1488C4.11139 18.1448 4.0258 18.1619 3.94425 18.1579C3.94224 18.1579 3.94123 18.1579 3.93922 18.1589C3.89089 18.1669 3.84157 18.173 3.79224 18.182C3.61606 18.2132 3.44191 18.2565 3.26875 18.2988C2.8872 18.3924 2.49256 18.4881 2.09793 18.469C1.84222 18.4569 1.65295 18.2696 1.64187 18.0129C1.6308 17.7532 1.86135 17.572 2.09894 17.5548ZM1.76065 20.4542C1.74857 20.1804 2.00833 19.9267 2.28014 19.9348C2.35464 19.9368 2.42912 19.9368 2.50261 19.9307C2.53281 19.9287 2.56203 19.9247 2.59223 19.9217C2.47142 19.9337 2.57813 19.9217 2.6043 19.9166C2.73719 19.8925 2.86907 19.8572 2.99894 19.819C3.25263 19.7435 3.5033 19.6609 3.76102 19.5995C4.4013 19.4465 5.30636 19.4032 5.56308 20.1653C5.62852 20.3596 5.48759 20.6173 5.28322 20.6586C5.20067 20.6757 5.11811 20.6888 5.03455 20.6968C4.94697 20.7049 4.86541 20.6848 4.78084 20.6797C4.77681 20.6797 4.78388 20.6807 4.76677 20.6797C4.73858 20.6787 4.71139 20.6767 4.6832 20.6757C4.61978 20.6737 4.55737 20.6697 4.49395 20.6687C4.43757 20.6677 4.38119 20.6687 4.32381 20.6727C4.29662 20.6747 4.26944 20.6777 4.24125 20.6797C4.12447 20.7009 4.0087 20.725 3.89393 20.7532C3.36942 20.8821 2.8258 21.0401 2.28116 20.9727C1.99021 20.9375 1.77474 20.7643 1.76065 20.4542ZM2.0637 22.7163C2.05162 22.4415 2.29724 22.2452 2.55094 22.2291C2.77745 22.215 2.97277 22.1747 3.24761 22.1043C3.49728 22.0408 3.74492 21.9603 3.99661 21.9069C4.59259 21.7801 5.24495 21.6653 5.77952 22.0308C5.96275 22.1556 6.04935 22.3539 6.00002 22.5724C5.95069 22.7898 5.74228 22.9056 5.5369 22.9247C5.50469 22.9278 5.48858 22.9298 5.48556 22.9298C5.43321 22.9388 5.38088 22.9469 5.32753 22.9529C5.26712 22.958 5.2057 22.963 5.14429 22.964C5.02248 22.965 4.90065 22.9539 4.77783 22.958C4.71642 22.96 4.65601 22.964 4.5946 22.969C4.5805 22.97 4.47985 22.9821 4.45469 22.9851C4.44663 22.9862 4.44563 22.9862 4.43355 22.9882C4.39831 22.9932 4.36307 22.9992 4.32884 23.0053C4.26743 23.0153 4.206 23.0264 4.14358 23.0355C3.61706 23.116 3.08753 23.2278 2.55195 23.2036C2.27812 23.1925 2.07578 22.9902 2.0637 22.7163ZM2.87411 25.6298C2.60833 25.5684 2.47644 25.2785 2.53382 25.0298C2.59725 24.752 2.88216 24.6513 3.13384 24.6895C3.06035 24.6785 3.24258 24.7006 3.2607 24.7016C3.31204 24.7056 3.36337 24.7077 3.41471 24.7097C3.53451 24.7127 3.65433 24.7107 3.77313 24.7036C3.88387 24.6976 3.99561 24.6875 4.10635 24.6744C4.12246 24.6724 4.21708 24.6603 4.22715 24.6603C4.26641 24.6553 4.30669 24.6493 4.34596 24.6432C4.59865 24.606 4.85133 24.5617 5.10503 24.5355C5.40202 24.5053 5.70301 24.4771 5.96979 24.6402C6.29295 24.8395 6.28691 25.2956 5.96979 25.4959C5.71005 25.66 5.39899 25.6419 5.10503 25.6681C4.86643 25.6892 4.62683 25.7053 4.38823 25.7204C3.87883 25.7526 3.37244 25.7446 2.87411 25.6298ZM3.2003 27.8738C3.18922 27.6191 3.41069 27.4631 3.63721 27.4369C3.55566 27.446 3.6493 27.4349 3.66541 27.4319C3.68655 27.4278 3.70666 27.4248 3.7268 27.4198C3.78217 27.4087 3.83754 27.3946 3.8919 27.3805C3.99559 27.3523 4.09728 27.3161 4.20098 27.2849C4.40937 27.2215 4.61375 27.146 4.81912 27.0765C5.22383 26.9396 5.69194 26.8077 6.11778 26.9205C6.28188 26.9648 6.43895 27.0332 6.54566 27.1711C6.65741 27.3161 6.69767 27.5446 6.60102 27.7097C6.58089 27.7359 6.55974 27.7631 6.53961 27.7893C6.55471 27.7711 6.56982 27.753 6.58493 27.7349C6.58291 27.7782 6.48425 27.8537 6.45405 27.8779C6.35337 27.9554 6.23358 27.9906 6.10774 27.9977C6.03022 28.0027 5.95068 28.0047 5.87317 28.0067C5.80873 28.0077 5.72617 28.0198 5.65469 28.0198C5.65671 28.0238 5.6416 28.0238 5.60637 28.0198C5.59227 28.0228 5.57717 28.0248 5.56206 28.0269C5.52079 28.0339 5.47953 28.0399 5.43825 28.047C5.24798 28.0802 5.06072 28.1255 4.87347 28.1708C4.46675 28.2685 4.056 28.348 3.63619 28.3097C3.39257 28.2876 3.21238 28.1285 3.2003 27.8738ZM3.6342 30.7138C3.55467 30.4692 3.72681 30.2024 3.96339 30.1329C4.36005 30.0182 4.75671 29.8863 5.16242 29.8037C5.39497 29.7564 5.63052 29.7232 5.8661 29.694C6.1198 29.6628 6.447 29.6024 6.66646 29.7635C6.82351 29.8782 6.93225 30.0222 6.93225 30.2266C6.93225 30.4339 6.82251 30.5699 6.66646 30.6897C6.4631 30.8457 6.11375 30.7984 5.8661 30.8165C5.77247 30.8236 5.67886 30.8326 5.58523 30.8427C5.551 30.8467 5.39597 30.8477 5.53893 30.8477C5.49866 30.8477 5.45032 30.8608 5.41005 30.8668C5.33354 30.8779 5.25604 30.887 5.17953 30.897C5.15436 30.9001 4.9651 30.9212 5.10604 30.9061C5.01846 30.9152 4.93086 30.9313 4.84327 30.9444C4.63387 30.9766 4.42346 31.0108 4.21406 31.044C3.95332 31.0853 3.72078 30.9796 3.6342 30.7138ZM7.47085 32.7555C7.00071 32.9035 6.48524 32.829 6.001 32.7947C5.5369 32.7615 5.07381 32.687 4.61675 32.6045C4.42044 32.5692 4.30466 32.3467 4.32983 32.1645C4.355 31.9752 4.52415 31.8091 4.72348 31.8172C5.15839 31.8333 5.59227 31.8081 6.02718 31.7991C6.50538 31.789 7.00776 31.7155 7.47085 31.8615C7.9118 31.9984 7.91079 32.6165 7.47085 32.7555ZM20.5744 33.6011C19.2546 33.4592 17.8784 33.5609 16.5747 33.7954C14.2602 34.2122 12.0384 35.1988 10.2816 36.7592C10.1266 36.0777 9.83767 35.4525 9.3182 34.933C9.09671 34.7115 8.85209 34.5323 8.5994 34.3693C8.61047 34.3461 8.63159 34.334 8.63863 34.3078C8.86615 33.3595 8.53293 32.3055 8.38695 31.3561C8.22487 30.294 8.06281 29.2319 7.89972 28.1698C7.67018 26.6708 7.44567 25.1708 7.22117 23.6707C10.7719 23.418 14.3086 22.9942 17.8482 22.6257C21.5067 22.2452 25.1672 21.8747 28.8276 21.5173C36.2331 20.7955 43.6427 20.121 51.0562 19.4968C55.0842 19.1576 59.1141 18.8384 63.1441 18.5153C63.1008 20.4109 63.0192 22.3056 62.9518 24.2003C62.9336 24.7006 62.9195 25.201 62.8984 25.7013C62.8783 26.1574 62.5219 26.1161 62.1242 26.2168C61.3189 26.4201 60.5235 26.6446 59.7333 26.8933C59.698 26.8882 59.6628 26.8802 59.6275 26.8772C58.1829 26.7352 56.6265 27.0835 55.1889 27.2315C51.9985 27.5587 48.8092 27.8869 45.6189 28.2091C44.0031 28.3722 42.3883 28.5413 40.7715 28.6994C40.6486 28.7114 40.5148 28.7165 40.3778 28.7225C40.3205 28.65 40.2309 28.6007 40.101 28.6077C37.5097 28.7336 34.9193 29.1262 32.3965 29.7272C31.132 30.0282 29.8796 30.3806 28.6434 30.7843C27.5702 31.1346 26.4477 31.485 25.4873 32.094C24.4796 32.7333 23.8322 33.6243 23.4134 34.637C22.7329 33.9323 21.4614 33.6958 20.5744 33.6011ZM41.3443 73.5281C39.2734 73.1203 37.253 72.4327 35.4469 71.3284C31.6706 69.0199 29.474 64.995 27.8179 61.0235C25.9736 56.5979 24.694 51.9075 24.1061 47.1477C23.8121 44.7627 23.6732 42.3587 23.6953 39.9546C23.7124 38.0086 23.6651 35.7193 24.8531 34.0622C25.5849 33.0414 26.7819 32.5269 27.9246 32.1081C29.2142 31.635 30.527 31.2232 31.8529 30.8658C34.0516 30.2729 36.2805 29.8531 38.5315 29.542C38.4409 29.7957 38.4167 30.0826 38.4047 30.3655C38.3785 30.9655 38.1993 31.8071 38.5979 32.3256C39.0419 32.9035 39.799 32.6608 40.4091 32.5793C41.1933 32.4746 41.9785 32.3769 42.7638 32.2783C42.6047 32.4555 42.4688 32.6538 42.4004 32.9004C42.2 33.6213 42.6178 34.332 43.1766 34.7619C44.6061 35.8653 46.6739 34.7256 48.0582 35.7193C44.8205 36.0988 41.5809 36.4643 38.3453 36.8599C35.2053 37.2445 32.0663 37.6381 28.9303 38.0549C27.8028 38.2049 26.5494 38.4234 25.8004 39.3697C25.0584 40.3059 25.0755 41.516 25.2598 42.6375C25.4863 44.0137 25.9071 45.3718 26.2373 46.7259C26.5816 48.1363 26.9712 49.5357 27.4071 50.9209C28.2769 53.6884 29.3159 56.4076 30.5179 59.0472C32.7186 63.8856 35.3804 69.1297 39.9208 72.169C40.8822 72.8123 41.903 73.3368 42.9601 73.7757C42.4185 73.7113 41.8799 73.6328 41.3443 73.5281ZM76.9312 34.1095C76.8668 34.5686 76.6443 34.9844 76.454 35.4001C76.1822 35.9961 75.9386 36.6032 75.7332 37.2254C74.0892 42.2137 74.6983 47.49 74.4758 52.6444C74.2483 57.9056 72.9577 63.3379 69.6042 67.5219C68.1103 69.3854 66.2629 70.9458 64.1085 71.9908C61.7175 73.1515 59.0306 73.7052 56.409 74.0415C51.8264 74.6284 46.8853 74.4341 42.6249 72.4861C37.7815 70.2723 34.9516 65.8548 32.5757 61.2852C30.0649 56.4559 28.0877 51.2672 26.936 45.9396C26.6591 44.6611 26.3893 43.3241 26.341 42.0144C26.2937 40.7298 26.7991 39.867 28.0806 39.5449C29.4296 39.2056 30.8743 39.1261 32.2525 38.9448C33.7032 38.7536 35.1529 38.5623 36.6026 38.37C40.7292 37.8213 44.8578 37.2999 48.9874 36.7733C49.0327 36.9666 49.071 37.1609 49.1022 37.3572C49.1052 37.3814 49.1072 37.3935 49.1082 37.3995C49.1112 37.4247 49.1143 37.4499 49.1173 37.476C49.1223 37.5233 49.1273 37.5697 49.1314 37.617C49.1404 37.7187 49.1465 37.8213 49.1525 37.924C49.1656 38.1304 49.1767 38.3368 49.1988 38.5422C49.2018 38.5683 49.2039 38.5935 49.2069 38.6197C49.1213 38.6448 49.0357 38.666 48.9512 38.6952C45.6481 39.1724 42.349 39.6747 39.05 40.1721C35.6764 40.6805 32.319 41.2744 28.9414 41.7526C28.7209 41.7838 28.8156 42.1161 29.033 42.0869C35.0331 41.2714 41.0685 40.6825 47.0786 39.9405C47.2407 39.9204 47.4028 39.8972 47.5659 39.8761C47.4934 40.0945 47.4582 40.3251 47.435 40.5657C47.4149 40.7811 47.3948 40.9956 47.3746 41.211C48.6723 40.8325 49.967 40.4479 51.2415 39.9949C52.0126 39.721 52.7757 39.419 53.5268 39.0928C57.2849 38.5865 61.042 38.068 64.8011 37.5566C66.4985 37.326 68.1958 37.0955 69.8952 36.876C71.5825 36.6586 73.2708 36.4804 74.9329 36.1099C75.2439 36.0404 75.1765 35.5431 74.8574 35.5532C71.8331 35.6508 68.8029 36.1965 65.8008 36.5659C62.8259 36.9314 59.847 37.2586 56.8721 37.623C55.6268 37.776 54.3825 37.9411 53.1392 38.1093C53.111 38.0801 53.0818 38.0499 53.0335 38.0519C52.7707 38.0579 52.5099 38.0871 52.2492 38.1062C52.2099 37.8868 52.1616 37.6683 52.1324 37.4468C52.0861 37.0985 52.0892 36.7381 52.1133 36.3787C58.8061 35.53 65.4988 34.6894 72.1926 33.8558C72.3023 33.8417 72.41 33.8216 72.5197 33.8075C72.9516 33.7703 73.3835 33.733 73.8144 33.6958C74.5111 33.6343 75.2067 33.5739 75.9033 33.5125C76.5034 33.4582 77.04 33.3414 76.9312 34.1095Z" fill="#FDF0EA"/>
</svg>
