<svg width="62" height="43" viewBox="0 0 62 43" fill="none" xmlns="http://www.w3.org/2000/svg">
<path d="M0.318731 22.4933C0.526 23.3708 1.30642 24.2174 1.24438 25.0352C1.05544 27.53 2.2645 29.5162 3.1669 31.6555C4.32661 34.4047 6.19063 36.4092 8.82872 37.7862C10.8972 38.8668 12.8535 40.1686 14.9572 41.1698C17.847 42.5454 20.8933 43.5178 24.1433 42.7014C27.0042 41.982 29.8721 41.226 32.6364 40.2136C34.9051 39.3825 37.3296 38.519 39.1562 37.0267C44.4253 32.7235 50.0125 29.1726 56.65 27.3551C60.089 26.4136 62.0375 23.8759 61.9995 20.4179C61.9663 17.4263 61.3396 14.4087 60.6875 11.4664C60.0396 8.54296 57.4621 6.92142 55.67 4.74344C52.1782 0.499887 47.3722 -0.209714 42.6727 0.046023C37.4297 0.331268 32.2226 1.72939 27.0691 2.93501C25.1902 3.37482 23.2078 4.11604 21.8514 5.75303C21.8944 5.76287 21.9381 5.772 21.9811 5.78184C22.2984 5.62376 22.6163 5.46568 22.9336 5.3069C22.6163 5.46498 22.2984 5.62306 21.9811 5.78184C24.512 6.36076 27.0775 6.82516 29.5598 7.56497C32.5885 8.46778 34.5413 10.5832 35.5086 13.5095C33.0996 14.4109 30.7647 15.3235 28.3938 16.1329C27.9905 16.2706 27.4392 15.9235 26.9485 15.8708C23.7507 15.5251 20.6296 15.6671 17.852 17.5471C17.1886 17.9961 16.3391 18.4633 16.0542 19.1258C14.9072 21.7949 12.3121 22.201 10.0843 23.1846C8.33382 23.9574 6.54595 24.6467 4.78769 25.4026C4.0136 25.7356 3.51095 25.6787 3.05975 24.8392C1.33956 21.6354 0.59369 18.516 2.61139 15.053C3.83173 12.9593 5.63087 12.2891 7.72329 11.6575C11.9815 10.3718 16.1846 8.90759 20.4139 7.52703C21.1415 7.28956 21.7626 7.00924 21.5306 6.06217C20.9335 6.18722 20.323 6.26942 19.7407 6.44437C15.4634 7.72937 11.17 8.96661 6.93086 10.3654C5.40948 10.8678 3.5765 11.4221 2.66212 12.568C0.395558 15.4085 -0.549118 18.8139 0.318731 22.4933ZM57.0469 25.6661C55.9231 26.1424 54.7669 26.5731 53.5882 26.8858C49.0494 28.0907 44.9781 30.3157 41.5708 33.3937C37.3994 37.163 32.3967 38.8717 27.2629 40.6316C22.2638 42.3459 17.878 41.5288 13.6424 38.6462C12.4707 37.8487 11.0868 37.3668 9.86293 36.6354C8.58266 35.8703 7.37854 34.9801 6.14127 34.1441C6.29002 33.9087 6.43877 33.6726 6.58753 33.4373C7.3602 33.8434 8.13573 34.2438 8.90488 34.6576C13.6657 37.2178 18.6493 37.9668 23.9029 36.4829C24.4909 36.3171 25.148 36.1956 25.6196 35.8464C29.8404 32.722 35.0285 31.1349 38.8954 27.4218C40.2609 26.1108 41.85 24.8511 43.5737 24.1331C46.0652 23.0954 48.7307 22.3134 51.397 21.8933C54.9558 21.3326 57.0588 20.8774 60.0036 19.1293C60.8348 22.1188 59.778 24.5097 57.0469 25.6661ZM35.13 10.0247C33.199 7.04858 29.9962 5.54718 26.319 4.6528C28.3374 4.08934 30.3325 3.41416 32.3798 2.98981C34.9742 2.45234 37.6003 1.87763 40.232 1.7603C43.2635 1.62611 46.5862 1.25585 49.3025 2.26826C54.2904 4.12728 58.361 7.67879 59.6392 13.0865C60.5944 17.1291 59.2175 18.5947 55.847 19.5172C53.1095 20.2661 50.2839 20.7235 47.4759 21.1788C44.9097 21.5947 42.5508 22.3886 40.2045 24.7064C39.9578 22.5277 40.0967 20.8057 39.5306 19.3563C38.2806 16.1546 36.9883 12.8884 35.13 10.0247ZM16.6626 20.5809C17.7081 19.7877 18.0889 17.5844 20.2088 18.7949C20.2165 18.7998 20.2299 18.797 20.2398 18.7991C20.3188 18.4851 20.3977 18.1703 20.4767 17.8563C20.3977 18.171 20.3188 18.4851 20.2398 18.7991C20.4562 18.8525 21.0505 18.3706 21.3706 18.0593C23.157 16.3212 25.1663 17.219 27.0803 17.6251C27.9912 17.8183 28.0194 18.5743 27.4011 19.2516C27.1988 19.4736 26.9626 19.7286 26.6919 19.8151C23.7196 20.7663 20.7375 21.6867 17.7815 22.6085C17.2295 22.357 16.5872 22.2635 16.4378 21.9425C16.2707 21.5834 16.3792 20.7958 16.6626 20.5809ZM6.66085 25.8375C8.90626 24.7071 11.421 24.1057 13.8257 23.2963C14.1768 23.1783 14.6999 23.0293 14.9347 23.193C17.2548 24.8054 19.4594 23.5605 21.678 22.9759C23.0464 22.6148 24.3816 22.1343 25.738 21.7275C27.7592 21.1211 29.6092 20.4256 29.6606 17.786C29.6705 17.271 30.36 16.4448 30.8697 16.3247C32.5384 15.9319 34.265 15.7408 35.9795 15.6123C36.3327 15.5856 36.8664 16.0886 37.0877 16.4764C38.6112 19.1441 38.5993 22.1785 38.607 25.0689C38.6098 26.0813 37.0264 27.3221 35.9012 28.052C34.6534 28.8628 33.039 29.1221 32.3692 30.7022C32.3347 30.7844 32.2254 30.8511 32.1359 30.8925C28.7646 32.453 25.4102 34.052 22.0058 35.5366C21.1943 35.8907 20.2151 35.8626 19.4467 35.989C15.6735 35.3939 11.9025 35.3426 8.84494 32.9237C7.66407 31.9893 6.42891 31.031 5.53709 29.8457C3.69987 27.4064 4.00372 27.1759 6.66085 25.8375Z" fill="#FDF0EA"/>
</svg>
