<svg width="95" height="95" viewBox="0 0 95 95" fill="none" xmlns="http://www.w3.org/2000/svg">
<path d="M80.5488 5.36174C79.9733 1.4936 79.1467 0.81205 75.3376 0.876105C66.6826 1.02223 58.0215 1.08431 49.3765 1.48164C46.8084 1.59973 44.3204 0.84312 41.9234 1.04128C38.3856 1.33352 35.0568 1.07527 31.608 0.367698C26.8682 -0.604091 22.2275 0.48279 17.7438 2.08009C13.4163 3.62234 11.4147 7.07215 10.8122 11.3606C10.4429 13.9908 10.0946 16.738 10.4529 19.3331C11.1314 24.2371 9.34698 26.9303 4.49304 27.825C1.14933 28.4415 -0.0736604 31.0036 0.00340227 34.0131C0.165534 40.3532 0.101474 46.7995 2.34029 52.8354C4.39896 58.3849 6.81995 63.8903 14.0768 64.2276C15.8573 64.3106 15.9013 65.6427 16.1075 66.9268C16.8501 71.5695 17.5097 76.2313 18.4364 80.8371C19.0649 83.9596 20.6712 86.6898 24.092 87.2673C33.2234 88.8095 42.1957 91.5648 51.6133 91.0634C52.3699 91.0233 53.1776 91.0574 53.8932 91.2785C60.2954 93.2601 67.0208 92.4004 73.5261 93.5524C76.6206 94.1008 79.9403 93.6064 82.9387 94.4071C86.3105 95.3078 89.4541 95.1007 92.6897 94.332C93.2321 94.2029 93.7035 93.7786 94.2089 93.4913C93.8687 92.9949 93.6124 92.4025 93.1731 92.0221C92.1592 91.1454 91.0564 90.3708 89.7943 89.405C90.7261 88.9066 91.3917 88.7145 91.798 88.2801C92.1022 87.9559 92.2854 86.949 92.1583 86.876C90.5109 85.9232 90.2647 84.7392 91.0604 83.0369C91.6699 81.7328 90.3237 79.9904 91.9641 78.7864C93.4132 77.7225 93.2351 76.5276 92.1232 75.1975C91.3175 74.2347 90.8592 72.9857 90.0786 71.9959C89.5621 71.3413 88.8025 70.5727 88.0599 70.4597C85.689 70.0964 83.269 69.7961 80.8791 69.8662C73.0247 70.0953 65.1773 70.5617 57.323 70.8049C54.3305 70.898 51.3261 70.6338 48.3276 70.5327C49.9369 69.1946 51.5302 68.446 53.1796 67.8545C54.3155 67.4472 54.7879 66.7897 54.7579 65.5907C54.6708 62.1709 54.7599 58.7421 54.5507 55.3313C54.4566 53.7951 55.0451 53.2427 56.3652 53.0575C57.2479 52.9334 58.2967 53.0755 58.9743 52.6382C59.856 52.0697 61.1631 50.8827 61.0199 50.2482C60.6406 48.5669 59.789 46.8695 58.7021 45.5204C58.1436 44.8268 56.6294 44.5006 55.6376 44.6427C53.4958 44.9489 52.8883 43.9101 52.6872 42.1336C52.53 40.7415 52.3369 39.3524 52.1237 37.9673C51.4282 33.4536 50.7727 28.9339 49.991 24.4353C49.4976 21.597 49.3414 21.1226 52.3048 21.3077C54.1553 21.4228 55.2953 20.9484 55.6826 18.7016C56.6444 13.1201 56.7655 13.0711 50.9858 14.195C49.3134 14.5202 48.5388 14.0418 48.3357 12.4555C48.0124 9.92746 47.8103 7.38042 47.3869 4.87038C47.0917 3.11996 47.9363 2.96383 49.3074 3.00686C51.8555 3.08593 54.4066 3.10595 56.9557 3.06392C62.7874 2.96884 68.6191 2.73667 74.4509 2.72966C78.0538 2.72566 78.8915 3.37013 78.8594 6.88898C78.8034 13.1851 79.3708 19.3401 81.3434 25.341C81.5386 25.9355 81.5346 26.597 81.6177 27.2275C82.6405 35.0399 82.6876 42.9913 85.0555 50.6135C85.695 52.6732 86.1884 54.7939 86.5547 56.9206C87.3373 61.4723 88.7034 65.8179 90.8542 69.9012C91.2215 70.5998 91.859 71.1562 92.4865 71.9178C92.7277 71.3303 92.9059 71.0981 92.8959 70.874C92.8798 70.5007 92.8238 70.0883 92.6457 69.7701C90.0576 65.1583 88.7475 60.1182 87.6976 54.9981C86.3705 48.5298 84.2168 42.2667 84.1057 35.5022C84.0286 30.8445 82.8047 26.1977 81.994 21.5629C81.4496 18.4504 80.4617 15.4699 81.0172 12.1563C81.3805 9.97449 80.8831 7.61057 80.5488 5.36174ZM2.7086 46.0098C2.32429 42.9944 2.01304 39.9659 1.80788 36.9324C1.63874 34.4294 1.6077 31.8933 4.20881 29.7506C3.78847 32.2806 3.10191 34.3913 3.16796 36.477C3.27905 40.0079 3.86556 43.5228 4.25487 47.0446C4.43302 48.658 4.61815 50.2713 4.8003 51.8846C4.47203 51.9756 4.14376 52.0657 3.81549 52.1558C3.43918 50.1081 2.97182 48.0725 2.7086 46.0098ZM7.18025 53.1736C6.2535 47.2878 5.49189 41.356 5.09757 35.4142C4.88239 32.1735 6.49765 30.7994 9.2699 30.5062C10.3308 30.3941 10.9913 30.6943 11.2575 31.7422C11.3516 32.1125 11.4707 32.4808 11.5118 32.8581C12.0412 37.647 12.5136 42.4419 13.0961 47.2237C13.3883 49.6187 13.9167 51.9836 14.259 54.3726C14.4532 55.7267 14.4882 57.1048 14.5992 58.5239C10.5069 58.614 7.78174 56.9917 7.18025 53.1736ZM8.54037 59.855C11.1085 59.7489 13.2402 60.1783 15.0646 61.8847C12.7918 61.9417 10.3178 62.5002 8.54037 59.855ZM87.5635 72.2781C88.8195 73.353 89.5241 75.0894 90.3938 76.5856C90.5419 76.8398 90.4999 77.4533 90.3048 77.6205C87.9719 79.6211 89.6001 82.4924 88.7194 84.8493C88.3291 85.8942 88.9516 87.2573 87.5965 88.129C87.3633 88.2791 87.6106 89.5341 87.9368 90.1076C88.4182 90.9563 89.1678 91.6518 89.8414 92.4575C88.0249 94.1048 86.1574 93.6245 84.2769 93.2712C81.931 92.8308 79.583 92.3524 77.2131 92.0932C70.1543 91.3216 63.0886 90.606 56.0179 89.9565C52.7432 89.6552 49.4496 89.5632 46.1659 89.361C45.2902 89.3069 44.4074 89.2609 43.5477 89.1018C37.5619 87.9939 31.5681 86.918 25.6092 85.68C24.3182 85.4118 22.887 84.7833 21.9923 83.8625C20.2469 82.0641 20.433 80.6539 22.3325 78.9816C24.6364 76.9529 27.2265 75.6759 30.301 74.8222C37.3958 72.8546 44.5736 72.7465 51.8135 72.6314C62.5002 72.4623 73.1848 72.131 83.8715 71.9038C85.1285 71.8778 86.7889 71.6146 87.5635 72.2781ZM58.9793 49.6337C58.9052 51.6974 57.1408 51.207 56.103 51.4522C53.9362 51.3912 53.619 50.8567 53.619 48.4678C53.619 47.0456 54.1984 46.321 55.5375 46.276C57.1308 46.223 59.0373 48.0244 58.9793 49.6337ZM54.1283 16.1485C54.7879 16.797 53.2406 19.0158 52.0687 19.3021C51.5903 19.4192 51.1149 19.5483 50.2862 19.7625C49.96 19.4412 49.1223 18.9728 49.1543 18.5745C49.2224 17.7188 49.6417 16.8351 50.1231 16.0965C50.2982 15.8273 51.0599 15.8813 51.5523 15.8914C52.439 15.9094 53.647 15.6751 54.1283 16.1485ZM43.9481 19.8876C42.7021 19.8986 41.9425 19.3111 42.0215 18.1652C42.1526 16.2676 43.7679 16.8731 45.5023 16.6079C45.8336 16.8671 46.8735 17.2674 47.0516 17.907C47.4369 19.2831 46.334 19.8656 43.9481 19.8876ZM37.9863 3.14296C39.5125 3.12094 41.0408 2.9438 42.563 2.99184C44.2914 3.04688 45.4073 3.88158 45.6155 5.75611C45.7846 7.27134 46.1569 8.76355 46.352 10.2778C46.5141 11.5358 47.0436 13.1361 46.4892 13.9758C46.0268 14.6754 44.2283 14.5052 43.0183 14.6954C41.0267 15.0096 40.0609 16.0365 39.8608 17.912C39.6706 19.6914 40.6714 20.4561 42.1697 20.8694C42.8943 21.0696 43.6138 21.3677 44.3504 21.4268C47.4729 21.674 47.6761 21.613 48.1926 24.6835C49.2674 31.0747 50.061 37.5119 51.0739 43.9141C51.3271 45.5134 50.8767 46.0739 49.3254 45.8427C48.9481 45.7866 48.5388 45.6125 48.1985 45.7005C47.0406 45.9988 45.111 46.1509 44.9179 46.7924C44.3994 48.5168 44.6166 50.4654 44.5846 52.3259C44.5826 52.427 44.9879 52.6241 45.1941 52.6131C45.3943 52.6021 45.7175 52.409 45.7525 52.2448C45.8846 51.6314 45.9197 50.9968 45.9947 50.3713C46.327 47.6001 48.1505 46.315 50.5244 47.573C51.3451 48.0074 51.5683 49.6637 51.8865 50.8117C51.9206 50.9358 50.7887 51.5943 50.1682 51.6444C48.9832 51.7405 47.7052 51.3922 46.9916 52.8694C52.7953 53.3528 52.7953 53.3527 52.515 59.2195C52.497 59.6018 52.5361 59.9871 52.5011 60.3674C52.3389 62.1189 52.8083 64.6139 51.8425 65.4546C50.1381 66.9388 47.6221 67.7094 45.3222 68.2348C42.622 68.8523 39.7837 68.8493 37.0145 69.1886C32.2976 69.7671 28.4475 72.2491 24.7045 74.9303C23.2673 75.9601 21.8732 77.048 19.7174 78.6673C19.0969 74.613 18.5985 71.2763 18.0711 67.9436C17.7538 65.941 16.8191 63.8403 17.1603 61.9667C18.0521 57.0798 15.3599 52.8964 15.0526 48.2316C14.5632 40.8086 13.09 33.4556 12.4024 26.0386C12.0902 22.6758 12.6817 19.231 12.8228 15.8223C12.8589 14.9416 12.7187 14.0538 12.6997 13.1691C12.6066 8.75753 14.5422 4.64918 19.5233 3.40917C24.2861 2.22321 28.9649 0.399722 33.91 3.00283C34.9938 3.5763 36.6142 3.16298 37.9863 3.14296Z" fill="#FDF0EA"/>
</svg>
