<svg width="66" height="60" viewBox="0 0 66 60" fill="none" xmlns="http://www.w3.org/2000/svg">
<path fill-rule="evenodd" clip-rule="evenodd" d="M58.9281 26.7376C60.5203 24.8843 61.9501 23.2193 63.5419 21.364C64.2645 22.458 64.8196 23.2774 65.3508 24.1123C66.1272 25.3268 66.2616 26.5573 65.4545 27.8221C65.1033 28.3705 64.5569 28.9586 64.5504 29.5376C64.5212 32.0076 62.936 33.6416 61.6337 35.4324C59.235 38.7334 56.7927 42.0004 54.3941 45.3013C53.7931 46.1278 53.2956 47.0291 52.7217 47.9405C53.5715 49.3969 54.9677 49.9813 56.0557 50.8987C57.2622 51.916 57.5251 52.7032 56.7246 53.9782C55.7574 55.519 54.5827 56.9274 53.4953 58.3968C50.5401 59.0556 49.0585 55.0994 45.9363 55.9766C45.0842 56.9469 44.2518 57.9334 43.3762 58.8828C42.6839 59.6347 41.795 59.8412 40.8539 59.4552C39.3784 58.849 38.0405 58.0307 37.0155 56.7515C35.9155 55.3781 35.9301 54.1704 37.2247 52.9314C37.7737 52.4067 38.4405 52.0041 39.2894 51.3698C38.7783 50.7724 38.4519 50.2188 37.9774 49.8677C30.6431 44.4104 23.2949 38.9742 15.9388 33.5463C15.4293 33.171 14.8434 32.8988 14.1271 32.4809C13.3171 33.3561 12.6393 34.117 11.9295 34.8472C10.3787 36.4418 8.51321 36.6061 6.61216 35.3132C6.06588 34.9423 5.54773 34.5238 5.03833 34.103C4.22102 33.428 4.0775 32.5748 4.41474 31.6111C4.84069 30.3938 5.26436 29.1749 5.76468 27.7427C4.21725 26.5397 2.73469 25.4566 1.33075 24.2791C-0.350611 22.8683 -0.439065 21.5018 1.06828 19.8942C2.23122 18.6543 3.46979 17.4791 4.73512 16.3465C5.96678 15.2451 8.09287 15.1246 9.55174 16.0394C10.1035 16.3863 10.5417 16.9105 11.0583 17.3191C11.7868 17.8898 12.5213 18.4596 13.2929 18.9675C13.602 19.1699 14.0177 19.2093 14.6239 19.3966C15.099 18.8645 15.6399 18.3268 16.1029 17.7296C19.7291 13.0489 23.395 8.39569 26.9274 3.64378C28.0744 2.10097 29.4635 1.06351 31.1908 0.339403C32.5826 -0.243755 33.7943 -0.125592 34.6721 1.09029C35.5797 2.34931 36.6166 3.63391 36.4188 5.37768C36.3928 5.61795 36.5071 5.87614 36.5636 6.15994C37.7807 6.59768 39.1073 6.89207 39.5878 8.39433C40.1785 10.2342 41.4071 11.4888 43.2095 12.2423C43.7985 12.4888 44.2776 13.0029 44.9266 13.4831C45.0894 16.2161 45.1219 18.9176 44.5476 21.6329C43.6516 25.8705 43.7245 30.2063 43.5236 34.5112C43.5089 34.8317 43.8247 35.1706 43.9518 35.433C44.7757 35.7007 44.9874 35.0807 45.2757 34.7101C46.4069 33.2555 47.6313 31.849 48.5591 30.2685C50.01 27.7951 52.551 26.5176 54.4667 24.5635C55.1193 23.8963 56.2506 24.011 57.009 24.6844C57.6626 25.2681 58.2155 25.9665 58.9281 26.7376ZM5.00599 22.5137C6.51832 23.5996 7.86386 25.2686 9.79478 25.7244C11.7087 26.1746 13.1453 27.2148 14.6234 28.3087C22.8179 34.364 30.9878 40.4502 39.2015 46.4795C41.1121 47.8811 43.4179 48.837 45.0765 50.4694C47.2555 52.615 50.0765 53.0631 52.648 54.54C53.1502 53.7158 53.5231 53.1046 53.877 52.5214C53.4119 52.0264 53.1462 51.7439 52.8785 51.4616C51.9057 50.4314 50.3794 50.5714 49.3497 49.89C48.212 49.1375 47.8769 47.5271 46.5572 46.689C42.323 44.0027 38.5439 40.6871 34.5068 37.7224C32.5891 36.3137 30.6602 34.8987 28.8836 33.3209C27.0158 31.6634 24.4844 30.8789 23.003 28.7184C22.7392 28.3355 22.1156 28.2002 21.6582 27.9476C20.7369 27.4394 19.7148 27.0531 18.9155 26.3967C17.257 25.029 15.4188 24.1282 13.2353 23.8993C12.4983 20.8641 9.82383 19.8913 7.76405 18.3144C6.92867 17.6734 6.04453 18.1764 5.74344 19.337C5.49157 20.3167 5.28452 21.3049 5.00599 22.5137ZM20.3378 24.0406C21.8543 22.0295 23.1125 20.3674 24.3623 18.7025C26.5724 15.7565 28.8355 12.8462 30.9627 9.84052C32.3321 7.90649 33.0389 5.71349 32.78 3.17238C30.9096 3.20494 29.6686 3.90149 28.7059 5.32644C25.1022 10.6638 21.4408 15.962 17.8214 21.2895C17.7025 21.4645 17.8067 21.7888 17.807 22.1677C18.4651 22.6547 19.1813 23.1848 20.3378 24.0406ZM41.5177 36.4967C41.4309 34.4196 41.1911 32.8307 41.3344 31.2798C41.7072 27.2458 42.1542 23.2142 42.7668 19.2139C43.0526 17.3512 42.967 15.6064 42.5605 13.8467C39.7462 13.819 39.2738 14.0638 39.208 16.0228C39.1009 19.2136 38.3609 22.2552 37.4971 25.2998C36.6354 28.3389 35.9511 31.4271 37.0924 34.6053C38.4009 35.1651 39.7049 35.7216 41.5177 36.4967ZM25.3333 27.2272C26.866 25.3421 28.2071 23.7588 29.4755 22.1164C31.9515 18.9113 34.3813 15.6684 36.8422 12.4503C37.4204 11.6929 37.8395 10.9142 37.51 9.92348C37.3053 9.30561 37.1593 8.54879 36.3159 8.62948C35.8543 8.67363 35.2674 8.93008 35.0075 9.28836C31.6261 13.9364 28.2887 18.6133 24.9552 23.2968C24.5021 23.9329 24.1178 24.6216 23.7584 25.3148C23.6548 25.5168 23.7491 25.8234 23.7528 26.0593C24.1734 26.3688 24.5817 26.671 25.3333 27.2272ZM33.2706 34.0881C33.5882 34.0215 33.9057 33.9549 34.223 33.8863C33.6067 31.2105 34.1848 28.6927 34.6195 26.1494C35.0432 23.6663 36.5223 21.3575 36.0209 17.9776C34.1428 20.2962 32.7264 22.1481 31.4826 24.1032C30.243 26.0526 28.3032 27.5909 27.7902 30.0325C29.679 31.4302 31.4742 32.7587 33.2706 34.0881ZM63.9665 25.2866C62.9584 25.7066 62.5436 25.7591 62.3193 25.9929C57.2803 31.2184 53.2716 37.2555 48.958 43.0512C48.0525 44.2677 48.0852 44.8198 48.7915 45.4564C49.566 46.1558 50.2869 45.9616 51.3333 44.581C54.4341 40.4934 57.4968 36.381 60.558 32.2658C60.9465 31.7432 61.4788 31.1623 61.5178 30.5775C61.6421 28.7566 62.9498 27.5167 63.9665 25.2866ZM55.0132 29.3444C54.055 29.2893 53.7393 29.1696 53.6011 29.2777C50.6572 31.5861 49.0202 34.9598 46.7276 37.8027C45.7727 38.988 44.5874 40.1079 44.3677 41.7215C45.1522 42.3144 45.68 41.9685 46.0987 41.4122C47.9914 38.8975 49.8689 36.3699 51.7411 33.84C52.7455 32.4828 53.7294 31.1103 55.0132 29.3444Z" fill="#FDF0EA"/>
</svg>
